<svg width="1920" height="5040" viewBox="0 0 1920 5040" fill="none" xmlns="http://www.w3.org/2000/svg">
<rect width="1920" height="5040" fill="#EFF3F6"/>
<path d="M790.117 4529.6C423.351 4410.52 96.5527 4495.53 -21.0005 4552.92V5383.28C264.654 5257.74 377.505 5252.36 569.704 5246.98C761.904 5241.6 945.287 5252.36 1096.93 5298.99C1248.57 5345.62 1409.03 5386.87 1601.23 5383.28C1754.99 5380.41 1909.81 5325.89 1968 5298.99V4646.18C1925.68 4666.78 1902.76 4675.75 1849.86 4692.8C1502.49 4782.48 1248.57 4678.46 790.117 4529.6Z" fill="url(#paint0_radial_530_780)"/>
<path d="M1232.41 2063.51C1610.24 1988.2 1946.9 2041.96 2068 2078.25V2603.36C1773.73 2523.97 1657.47 2520.57 1459.48 2517.17C1261.48 2513.76 1072.56 2520.57 916.345 2550.06C760.127 2579.54 594.827 2605.63 396.83 2603.36C238.432 2601.55 78.944 2567.07 18.9998 2550.06V2137.23C62.5956 2150.26 86.2098 2155.93 140.705 2166.71C498.553 2223.42 760.127 2157.64 1232.41 2063.51Z" fill="url(#paint1_radial_530_780)"/>
<path fill-rule="evenodd" clip-rule="evenodd" d="M1509.92 3574.04C1560.67 3571.89 1617.44 3555.39 1658.84 3584.83C1700.14 3614.21 1694.24 3676.75 1717.61 3721.73C1742.73 3770.08 1799.95 3803.98 1800.98 3858.45C1802.02 3913.79 1766.49 3967.09 1722.86 4001.14C1681.93 4033.09 1625.15 4025.61 1574.18 4035.48C1528.72 4044.28 1484.87 4065.85 1439.64 4055.96C1392.91 4045.73 1351.79 4016.93 1321.23 3980.12C1291.05 3943.75 1277.51 3897.75 1269.65 3851.15C1261.62 3803.61 1258.03 3754.47 1275.57 3709.56C1293.66 3663.25 1325.84 3621.99 1368.88 3597.1C1410.97 3572.76 1461.34 3576.1 1509.92 3574.04Z" fill="url(#paint2_radial_530_780)"/>
<path fill-rule="evenodd" clip-rule="evenodd" d="M-313.424 3480.76C-363.145 3405.15 -398.487 3315.72 -363.73 3224.87C-328.646 3133.16 -221.446 3060.51 -125.726 2990.13C-31.9903 2921.21 65.72 2845.92 186.411 2820.38C304.64 2795.36 419.345 2821.35 520.783 2853.32C609.944 2881.41 650.983 2951.59 729.631 2991.55C824.162 3039.57 980.823 3033 1029.03 3111.54C1076.71 3189.23 1011.04 3292.77 970.615 3384.18C930.18 3475.62 897.362 3578.49 794.074 3642.86C691.914 3706.52 556.191 3696.36 433.528 3718.89C326.085 3738.62 215.565 3784.32 116.045 3767.39C17.8013 3750.67 -26.609 3676.29 -98.3809 3628.38C-172.257 3579.08 -269.115 3548.14 -313.424 3480.76Z" fill="url(#paint3_radial_530_780)"/>
<path fill-rule="evenodd" clip-rule="evenodd" d="M1159.57 1758.55C1036.83 1662.1 846.362 1598.19 826.111 1443.41C806.327 1292.2 946.307 1157.23 1069.05 1066.74C1173.68 989.612 1318.23 1024.97 1443.03 988.627C1540.14 960.35 1618.48 864.6 1718.8 877.552C1818.97 890.487 1880.57 988.755 1956.84 1054.97C2030.88 1119.25 2103.4 1179.49 2159.36 1260C2234.76 1368.48 2344.35 1472.39 2338.74 1604.38C2332.99 1739.78 2245.33 1872.16 2130.31 1943.83C2019.62 2012.8 1878.43 1975.83 1748.06 1972.42C1642.08 1969.66 1539.61 1962.01 1439.98 1925.8C1335.58 1887.86 1246.91 1827.19 1159.57 1758.55Z" fill="url(#paint4_diamond_530_780)"/>
<path d="M1679.47 -14.6092C1808.8 -27.4086 1962.67 -14.0888 2023.44 -5.82896L1968.22 -381.487L-116.043 -75.1179L-70.0008 238.111C19.1341 242.756 210.512 249.564 397.188 244.308C583.863 239.051 741.923 202.508 905.782 169.549C1069.64 136.589 1193.44 90.1085 1288.42 62.8361C1383.41 35.5637 1517.8 1.39003 1679.47 -14.6092Z" fill="#D5EDEE" fill-opacity="0.5"/>
<path d="M174.914 224.717C125.655 247.061 0.516113 294.958 -58.2794 317.852L-117 -81.6313L1967.26 -388L1989.47 -236.903C1960.8 -240.462 1867.24 -250.586 1821.85 -252.242C1776.45 -253.898 1699.48 -250.913 1652.52 -251.228C1605.56 -251.544 1510.99 -252.634 1439.66 -247.148C1368.34 -241.661 1275.11 -229.623 1220.82 -219.977C1166.52 -210.33 1059.89 -185.772 1003.11 -169.097C946.332 -152.422 842.92 -113.901 801.386 -97.2456C759.853 -80.5907 641.363 -20.974 614.419 -4.79786C587.476 11.3783 475.031 76.2143 411.306 109.457C347.581 142.701 236.488 196.788 174.914 224.717Z" fill="#B7E1E3" fill-opacity="0.5"/>
<path d="M1859.8 215.57C1920.33 206.672 2012.3 187.979 2050.72 179.744L1978.43 -312.011L-105.83 -5.64263L-85.7244 131.137C-85.0715 131.596 -85.7244 131.137 -34.8311 134.746C45.3219 140.431 141.097 144.375 237.565 151.266C334.034 158.157 422.731 163.972 524.343 173.989C625.956 184.005 709.08 191.749 796.855 203.245C884.63 214.741 910.396 218.717 1089 234.606C1267.61 250.494 1362.64 247.615 1497.69 246.063C1632.74 244.511 1784.13 226.693 1859.8 215.57Z" fill="#96D3D6" fill-opacity="0.5"/>
<path d="M1804.33 140.548C1891.37 146.386 2001.24 144.505 2045.29 142.836L1980.03 -301.156L-104.235 5.21291L-87.9588 115.939C19.7787 100.103 200.572 87.3904 290.754 83.561C380.937 79.7315 584.957 69.7044 701.885 68.5976C818.813 67.4908 1004.28 74.6084 1146.38 81.4462C1288.48 88.284 1403.31 100.793 1478.31 109.177C1553.31 117.56 1695.54 133.251 1804.33 140.548Z" fill="#D5EDEE" fill-opacity="0.5"/>
<defs>
<radialGradient id="paint0_radial_530_780" cx="0" cy="0" r="1" gradientUnits="userSpaceOnUse" gradientTransform="translate(1051 4748) rotate(162.94) scale(1218.62 364.18)">
<stop stop-color="#97CDCD"/>
<stop offset="0.594639" stop-color="#D2E4E4"/>
<stop offset="1" stop-color="#D2E4E4" stop-opacity="0"/>
</radialGradient>
<radialGradient id="paint1_radial_530_780" cx="0" cy="0" r="1" gradientUnits="userSpaceOnUse" gradientTransform="translate(1097.5 2281) rotate(114.871) scale(355.467 1260.12)">
<stop stop-color="#A7D2D2"/>
<stop offset="0.572917" stop-color="#D2E4E4"/>
<stop offset="1" stop-color="#D2E4E4" stop-opacity="0"/>
</radialGradient>
<radialGradient id="paint2_radial_530_780" cx="0" cy="0" r="1" gradientUnits="userSpaceOnUse" gradientTransform="translate(1577.5 3858.5) rotate(-143.507) scale(258.106 282.812)">
<stop offset="0.567708" stop-color="#D2E4E4"/>
<stop offset="1" stop-color="#D2E4E4" stop-opacity="0.3"/>
</radialGradient>
<radialGradient id="paint3_radial_530_780" cx="0" cy="0" r="1" gradientUnits="userSpaceOnUse" gradientTransform="translate(132 3586) rotate(-25.4244) scale(1010.9 689.171)">
<stop offset="0.244322" stop-color="#B7DBDB"/>
<stop offset="0.503933" stop-color="#B7DBDB" stop-opacity="0.6"/>
<stop offset="0.744508" stop-color="#B7DBDB" stop-opacity="0.8"/>
<stop offset="1" stop-color="#B7DBDB" stop-opacity="0.5"/>
</radialGradient>
<radialGradient id="paint4_diamond_530_780" cx="0" cy="0" r="1" gradientUnits="userSpaceOnUse" gradientTransform="translate(1323 1120.5) rotate(115.568) scale(732.2 783.998)">
<stop offset="0.450354" stop-color="#C6E3DD"/>
<stop offset="0.841165" stop-color="#C3E2DC" stop-opacity="0.36"/>
</radialGradient>
</defs>
</svg>
