<svg width="1920" height="1763" viewBox="0 0 1920 1763" fill="none" xmlns="http://www.w3.org/2000/svg">
<g clip-path="url(#clip0_638_114)">
<rect width="1920" height="1763" fill="white"/>
<rect width="1920" height="5040" fill="#EFF3F6"/>
<path d="M218.091 81.0981C88.2509 78.4578 -62.0697 63.1824 -121 55.8748L-121 219L1986 219.001L1986 82.9843C1898.47 75.4409 1710.09 60.5898 1524.6 51.1606C1339.12 41.7313 1177.4 47.3888 1010.46 51.1604C843.525 54.9321 714.265 66.9543 616.305 72.6118C518.346 78.2694 380.391 84.3983 218.091 81.0981Z" fill="#D5EDEE" fill-opacity="0.5"/>
<path d="M1791.87 79.001C1853.07 79.001 1946.79 80.4213 1986 81.1315L1986 219L-121 219L-121 180.652C-120.42 180.5 -121 180.652 -71.1645 177.609C7.32252 172.816 101.521 167.87 195.977 162.087C290.433 156.305 377.355 151.131 476.447 144.283C575.538 137.435 656.666 131.957 741.85 125.261C827.034 118.566 851.952 116.435 1026.38 104.87C1200.8 93.3051 1295.26 90.2617 1429.12 85.24C1562.98 80.2183 1715.38 79.001 1791.87 79.001Z" fill="#96D3D6" fill-opacity="0.5"/>
<path d="M117.102 42.0441C31.8256 34.1164 -77.1645 28.0448 -121 25.9999L-121 219L1986 219.001L1986 170.869C1877.09 170.869 1696.34 164.97 1606.54 160.959C1516.75 156.948 1313.41 148.454 1197.54 141.612C1081.68 134.77 899.189 120.141 759.572 108.344C619.955 96.5468 508.145 84.0418 435.151 75.7839C362.156 67.5259 223.698 51.9536 117.102 42.0441Z" fill="#D5EDEE" fill-opacity="0.5"/>
<path d="M1646.91 356.903C1776.75 359.543 1927.07 374.819 1986 382.126L1986 219.001L-121 219L-121 355.017C-33.474 362.56 154.91 377.411 340.395 386.841C525.881 396.27 687.601 390.612 854.538 386.841C1021.48 383.069 1150.74 371.047 1248.69 365.389C1346.65 359.732 1484.61 353.603 1646.91 356.903Z" fill="#D5EDEE" fill-opacity="0.5"/>
<path d="M73.1268 359C11.9334 359 -81.7884 357.58 -121 356.87L-121 219L1986 219.001L1986 257.349C1985.42 257.501 1986 257.349 1936.16 260.392C1857.68 265.186 1763.48 270.131 1669.02 275.914C1574.57 281.696 1487.64 286.87 1388.55 293.718C1289.46 300.566 1208.33 306.044 1123.15 312.74C1037.97 319.435 1013.05 321.566 838.624 333.131C664.199 344.696 569.744 347.739 435.883 352.761C302.023 357.783 149.619 359 73.1268 359Z" fill="#96D3D6" fill-opacity="0.5"/>
<path d="M1747.9 395.957C1833.17 403.885 1942.16 409.956 1986 412.001L1986 219.001L-121 219L-121 267.132C-12.087 267.132 168.662 273.031 258.457 277.042C348.252 281.053 551.595 289.547 667.459 296.389C783.324 303.232 965.811 317.86 1105.43 329.657C1245.05 341.454 1356.85 353.959 1429.85 362.217C1502.84 370.475 1641.3 386.048 1747.9 395.957Z" fill="#D5EDEE" fill-opacity="0.5"/>
</g>
<defs>
<clipPath id="clip0_638_114">
<rect width="1920" height="1763" fill="white"/>
</clipPath>
</defs>
</svg>
