<svg width="141" height="73" viewBox="0 0 141 73" fill="none" xmlns="http://www.w3.org/2000/svg">
<path d="M58.546 68.8689H55.566V54.5889H63.746V57.0689H58.546V60.7489H63.386V63.2289H58.546V68.8689ZM67.8026 53.6689C68.2426 53.6689 68.6226 53.7756 68.9426 53.9889C69.2626 54.1889 69.4226 54.5689 69.4226 55.1289C69.4226 55.6756 69.2626 56.0556 68.9426 56.2689C68.6226 56.4822 68.2426 56.5889 67.8026 56.5889C67.3493 56.5889 66.9626 56.4822 66.6426 56.2689C66.3359 56.0556 66.1826 55.6756 66.1826 55.1289C66.1826 54.5689 66.3359 54.1889 66.6426 53.9889C66.9626 53.7756 67.3493 53.6689 67.8026 53.6689ZM69.2826 57.9489V68.8689H66.3026V57.9489H69.2826ZM76.9964 66.6889C77.3297 66.6889 77.6497 66.6622 77.9564 66.6089C78.263 66.5422 78.5697 66.4556 78.8764 66.3489V68.5689C78.5564 68.7156 78.1564 68.8356 77.6764 68.9289C77.2097 69.0222 76.6964 69.0689 76.1364 69.0689C75.483 69.0689 74.8964 68.9622 74.3764 68.7489C73.8697 68.5356 73.463 68.1689 73.1564 67.6489C72.863 67.1289 72.7164 66.3956 72.7164 65.4489V60.1889H71.2964V58.9289L72.9364 57.9289L73.7964 55.6289H75.6964V57.9489H78.7564V60.1889H75.6964V65.4489C75.6964 65.8622 75.8164 66.1756 76.0564 66.3889C76.2964 66.5889 76.6097 66.6889 76.9964 66.6889ZM92.5635 56.9089C91.4035 56.9089 90.5169 57.3422 89.9035 58.2089C89.2902 59.0756 88.9835 60.2622 88.9835 61.7689C88.9835 63.2889 89.2635 64.4689 89.8235 65.3089C90.3969 66.1356 91.3102 66.5489 92.5635 66.5489C93.1369 66.5489 93.7169 66.4822 94.3035 66.3489C94.8902 66.2156 95.5235 66.0289 96.2035 65.7889V68.3289C95.5769 68.5822 94.9569 68.7689 94.3435 68.8889C93.7302 69.0089 93.0435 69.0689 92.2835 69.0689C90.8035 69.0689 89.5902 68.7689 88.6435 68.1689C87.6969 67.5556 86.9969 66.7022 86.5435 65.6089C86.0902 64.5022 85.8635 63.2156 85.8635 61.7489C85.8635 60.3089 86.1235 59.0356 86.6435 57.9289C87.1635 56.8222 87.9169 55.9556 88.9035 55.3289C89.9035 54.7022 91.1235 54.3889 92.5635 54.3889C93.2702 54.3889 93.9769 54.4822 94.6835 54.6689C95.4035 54.8422 96.0902 55.0822 96.7435 55.3889L95.7635 57.8489C95.2302 57.5956 94.6902 57.3756 94.1435 57.1889C93.6102 57.0022 93.0835 56.9089 92.5635 56.9089ZM101.978 68.8689H98.9979V53.6689H101.978V68.8689ZM115.112 57.9489V68.8689H112.832L112.432 67.4689H112.272C111.925 68.0289 111.445 68.4356 110.832 68.6889C110.232 68.9422 109.592 69.0689 108.912 69.0689C107.738 69.0689 106.798 68.7556 106.092 68.1289C105.385 67.4889 105.032 66.4689 105.032 65.0689V57.9489H108.012V64.3289C108.012 65.1156 108.152 65.7089 108.432 66.1089C108.712 66.4956 109.158 66.6889 109.772 66.6889C110.678 66.6889 111.298 66.3822 111.632 65.7689C111.965 65.1422 112.132 64.2489 112.132 63.0889V57.9489H115.112ZM121.216 53.6689V57.2089C121.216 57.6222 121.203 58.0289 121.176 58.4289C121.15 58.8289 121.123 59.1422 121.096 59.3689H121.216C121.51 58.9156 121.903 58.5356 122.396 58.2289C122.89 57.9089 123.53 57.7489 124.316 57.7489C125.543 57.7489 126.536 58.2289 127.296 59.1889C128.056 60.1356 128.436 61.5356 128.436 63.3889C128.436 65.2556 128.05 66.6689 127.276 67.6289C126.503 68.5889 125.49 69.0689 124.236 69.0689C123.436 69.0689 122.803 68.9289 122.336 68.6489C121.883 68.3556 121.51 68.0289 121.216 67.6689H121.016L120.516 68.8689H118.236V53.6689H121.216ZM123.356 60.1289C122.583 60.1289 122.036 60.3756 121.716 60.8689C121.396 61.3489 121.23 62.0756 121.216 63.0489V63.3689C121.216 64.4222 121.37 65.2356 121.676 65.8089C121.996 66.3689 122.57 66.6489 123.396 66.6489C124.01 66.6489 124.496 66.3689 124.856 65.8089C125.216 65.2356 125.396 64.4156 125.396 63.3489C125.396 62.2822 125.21 61.4822 124.836 60.9489C124.476 60.4022 123.983 60.1289 123.356 60.1289Z" fill="white"/>
<path d="M50.3409 0.399515C44.9811 2.76959 46.7885 6.26424 53.2281 5.98298C57.4021 5.80049 61.3052 2.67195 59.2901 1.12333C57.9235 0.0730563 52.1374 -0.395165 50.3409 0.399515Z" fill="black"/>
<path d="M50.3409 0.399515C44.9811 2.76959 46.7885 6.26424 53.2281 5.98298C57.4021 5.80049 61.3052 2.67195 59.2901 1.12333C57.9235 0.0730563 52.1374 -0.395165 50.3409 0.399515Z" stroke="black"/>
<path d="M90.1756 3.75401C84.8158 6.12409 86.6232 9.61873 93.0628 9.33747C97.2368 9.15498 101.14 6.02644 99.1248 4.47782C97.7582 3.42755 91.9721 2.95933 90.1756 3.75401Z" fill="black"/>
<path d="M90.1756 3.75401C84.8158 6.12409 86.6232 9.61873 93.0628 9.33747C97.2368 9.15498 101.14 6.02644 99.1248 4.47782C97.7582 3.42755 91.9721 2.95933 90.1756 3.75401Z" stroke="black"/>
<path d="M125.439 0.399515C120.079 2.76959 121.887 6.26424 128.326 5.98298C132.5 5.80049 136.404 2.67195 134.388 1.12333C133.022 0.0730563 127.236 -0.395165 125.439 0.399515Z" fill="black"/>
<path d="M125.439 0.399515C120.079 2.76959 121.887 6.26424 128.326 5.98298C132.5 5.80049 136.404 2.67195 134.388 1.12333C133.022 0.0730563 127.236 -0.395165 125.439 0.399515Z" stroke="black"/>
<path fill-rule="evenodd" clip-rule="evenodd" d="M121.175 11.277C123.776 11.1597 126.51 11.0362 128.777 10.8854C134.259 10.5207 139.91 10.6641 140.121 11.6498C140.522 13.5231 138.237 13.6347 134.694 13.8078C134.069 13.8383 133.404 13.8708 132.708 13.9152C128.799 14.1647 127.816 14.2566 125.345 14.4875C123.818 14.6303 121.724 14.8261 118.02 15.1449C96.0787 17.0339 63.6718 19.9085 52.81 21.157C44.829 22.0743 42.7043 22.3905 41.2828 23.775C39.0177 25.9813 33.0128 35.3912 32.5807 36.0753C32.8565 36.2939 56.5298 32.339 64.171 30.7372C66.453 30.2593 67.7661 30.9446 66.7372 32.077C66.4202 32.4256 61.6041 35.2581 58.7149 36.6046C55.6427 38.0362 53.9385 39.1382 49.3813 42.1644C42.9409 46.4413 41.2828 47.3296 41.2828 45.5333C41.2828 45.192 42.0132 43.206 45.4892 40.1468C47.2542 38.5935 48.4405 37.7407 48.3129 37.4328C48.1411 37.0187 45.5924 37.5901 38.8777 38.768C38.578 38.8206 38.2885 38.8712 38.0089 38.9201C31.8331 39.9992 30.4703 40.2373 29.0236 42.7518C26.5432 47.0629 23.3964 52.5868 19.6077 62.694C18.9458 64.4597 17.4602 67.2195 15.9447 64.9819C14.6966 63.1389 16.643 56.3073 20.9607 47.3756C21.3242 46.6239 21.6539 45.9453 21.9476 45.3408C23.0861 42.9974 23.684 41.7666 23.617 41.6977C23.3091 41.6977 22.4291 41.841 21.2898 42.0264C20.0827 42.2229 18.5845 42.4668 17.1673 42.6379C13.4885 43.082 11.1329 43.1189 11.0017 42.2443C10.8706 41.3698 12.6398 40.5155 14.964 40.0669C16.2205 39.8243 19.1974 39.1837 21.5797 38.6432L25.911 37.66L31.0939 30.2633C33.2403 27.2002 34.399 25.371 34.9379 24.5203C35.1147 24.2412 35.2248 24.0674 35.2811 23.99C35.083 23.8333 26.2006 25.0035 22.0573 25.5508C18.6846 25.9962 9.02232 27.8341 7.99096 28.7652C6.99438 29.6653 5.83008 29.5352 3.84385 29.3132C3.61485 29.2876 3.37492 29.2608 3.12306 29.2342C-0.656656 28.8342 -1.08759 27.3352 2.27975 26.3007C12.8383 23.057 26.4962 20.5425 33.3338 19.6627C36.2267 19.2904 39.0044 17.8823 39.7016 17.1929C43.0954 13.8371 48.0276 10.3821 49.3819 10.3821C51.0804 10.3821 51.4289 10.9491 48.1433 14.3504C44.9964 17.6075 46.3908 17.3846 47.3384 17.2331C47.4344 17.2177 47.5259 17.2031 47.6076 17.1929C50.4884 16.673 71.3898 14.3426 84.2242 13.4515C90.4126 13.0218 96.605 12.6811 102.006 12.384C106.899 12.1148 111.143 11.8813 114.145 11.6498C115.882 11.5158 118.455 11.3997 121.175 11.277ZM117.115 23.7979C121.469 23.164 126.977 22.4174 130.005 22.1081C135.522 21.5447 138.691 21.4222 139.35 22.7806C139.952 24.02 137.752 24.5199 134.628 25.2295C134.293 25.3056 133.947 25.3842 133.593 25.4663C129.426 27.4188 127.386 28.5563 123.15 32.019C119.459 35.0351 112.895 40.7407 112.895 42.4464C112.895 43.1096 112.068 43.7096 111.372 43.7096C108.102 43.7096 110.805 37.54 116.495 32.019C118.623 29.9541 120.15 28.0957 119.889 27.8891C119.278 27.4071 102.629 29.4895 96.7962 30.7779C92.5063 31.7257 90.7109 31.6111 90.7109 30.3913C90.7109 29.6314 94.3244 27.1326 102.583 25.9222C106.293 25.3783 112.76 24.4324 117.115 23.7979ZM67.842 51.1156C64.9254 47.3756 72.8195 32.8488 78.6366 26.676C81.1944 23.9625 86.2439 22.4934 86.2439 24.1764C86.2439 24.615 85.3348 25.7395 84.2242 26.676C81.1756 29.2462 74.8255 39.0338 72.3074 45.0427C69.92 50.7403 69.1677 51.7628 67.842 51.1156Z" fill="black"/>
</svg>
