<svg width="330" height="1200" viewBox="0 0 330 1200" fill="none" xmlns="http://www.w3.org/2000/svg">
<rect width="330" height="1200" fill="#6EC1C5"/>
<mask id="mask0_565_10" style="mask-type:alpha" maskUnits="userSpaceOnUse" x="0" y="0" width="330" height="385">
<rect width="330" height="385" fill="#EFF3F6"/>
</mask>
<g mask="url(#mask0_565_10)">
<path d="M1611 139.544C1729.32 145.145 1866.3 177.549 1920 193.052V-153H0V135.543C79.7579 151.546 251.422 183.05 420.446 203.053C589.469 223.056 736.836 211.054 888.957 203.053C1041.08 195.052 1158.87 169.548 1248.13 157.546C1337.4 145.545 1463.11 132.543 1611 139.544Z" fill="#D5EDEE" fill-opacity="0.5"/>
<path d="M222.616 155.928C175.238 169.546 56.0508 196.149 0.00012207 209V-159H1920V-19.8109C1894.62 -26.8204 1811.6 -48.3497 1770.88 -55.8599C1730.17 -63.3701 1660.37 -70.8803 1618.07 -77.3891C1575.76 -83.898 1490.63 -97.4163 1425.59 -101.922C1360.55 -106.429 1274.89 -107.931 1224.65 -106.429C1174.42 -104.927 1075.01 -96.9156 1021.6 -89.4054C968.196 -81.8952 869.843 -60.8667 830.185 -51.3537C790.526 -41.8408 675.781 -3.78912 649.342 7.22585C622.903 18.2408 512.917 61.8 451.049 83.3293C389.182 104.858 281.84 138.905 222.616 155.928Z" fill="#B7E1E3" fill-opacity="0.5"/>
<path d="M1743.1 371C1798.86 371 1884.27 366.333 1920 364V-89H0.000244141V37C0.52832 37.5 0.000244141 37 45.4127 47C116.934 62.7493 202.772 79 288.845 98C374.918 117 454.126 134 544.423 156.5C634.72 179 708.647 197 786.271 219C863.895 241 886.601 248 1045.54 286C1204.49 324 1290.56 334 1412.54 350.5C1534.52 367 1673.4 371 1743.1 371Z" fill="#96D3D6" fill-opacity="0.5"/>
<path d="M1703.03 296C1780.74 312.8 1880.05 325.667 1920 330V-79H0V23C99.2467 23 263.954 35.5 345.78 44C427.605 52.5 612.901 70.5 718.482 85C824.064 99.5 990.355 130.5 1117.58 155.5C1244.81 180.5 1346.69 207 1413.21 224.5C1479.73 242 1605.89 275 1703.03 296Z" fill="#D5EDEE" fill-opacity="0.5"/>
</g>
</svg>
