<svg width="593" height="609" viewBox="0 0 593 609" fill="none" xmlns="http://www.w3.org/2000/svg">
<rect width="593" height="609" rx="30" fill="#D9D9D9"/>
<path d="M307.595 293.427C308.301 293.427 308.977 293.684 309.476 294.142C309.975 294.599 310.255 295.22 310.255 295.867V312.946C310.255 313.594 309.975 314.214 309.476 314.672C308.977 315.129 308.301 315.386 307.595 315.386H286.319C285.614 315.386 284.937 315.129 284.438 314.672C283.94 314.214 283.659 313.594 283.659 312.946V295.867C283.659 295.22 283.94 294.599 284.438 294.142C284.937 293.684 285.614 293.427 286.319 293.427H307.595ZM307.595 295.867H286.319V308.189L292.961 302.096C293.116 301.955 293.299 301.842 293.5 301.766C293.702 301.689 293.918 301.649 294.137 301.649C294.355 301.649 294.571 301.689 294.773 301.766C294.975 301.842 295.158 301.955 295.312 302.096L300.718 307.057L302.364 305.546C302.518 305.405 302.702 305.292 302.903 305.216C303.105 305.139 303.321 305.099 303.539 305.099C303.758 305.099 303.974 305.139 304.176 305.216C304.377 305.292 304.561 305.405 304.715 305.546L307.595 308.19V295.867ZM301.611 298.307C302.14 298.307 302.648 298.5 303.022 298.843C303.396 299.186 303.606 299.652 303.606 300.137C303.606 300.622 303.396 301.088 303.022 301.431C302.648 301.774 302.14 301.967 301.611 301.967C301.082 301.967 300.575 301.774 300.201 301.431C299.827 301.088 299.617 300.622 299.617 300.137C299.617 299.652 299.827 299.186 300.201 298.843C300.575 298.5 301.082 298.307 301.611 298.307Z" fill="#FEFEFE"/>
</svg>
