<svg width="146" height="145" viewBox="0 0 146 145" fill="none" xmlns="http://www.w3.org/2000/svg">
<rect x="0.961914" y="0.0380859" width="144.962" height="144.962" fill="white"/>
<path d="M41.573 125.033V130.185H39.963V126.587H38.395V125.033H41.573ZM41.573 129.527C42.105 130.451 43.099 130.857 44.541 130.913C46.221 130.997 49.539 130.955 51.485 130.801C51.303 131.179 51.037 131.949 50.967 132.439C49.217 132.523 46.235 132.551 44.527 132.467C42.847 132.397 41.713 131.991 40.873 130.913C40.313 131.459 39.725 131.991 39.025 132.593L38.227 130.927C38.815 130.549 39.501 130.045 40.117 129.527H41.573ZM38.437 120.875L39.725 119.937C40.523 120.553 41.503 121.491 41.937 122.149L40.551 123.213C40.173 122.527 39.235 121.561 38.437 120.875ZM45.773 121.449H47.397V130.605H45.773V121.449ZM44.331 126.377V126.937H48.881V126.377H44.331ZM44.331 124.865V125.411H48.881V124.865H44.331ZM42.903 123.843H50.379V127.959H42.903V123.843ZM42.231 120.007H51.079V121.939H49.525V121.197H43.715V121.939H42.231V120.007ZM42.623 122.163H50.617V123.325H42.623V122.163ZM42.119 128.463H51.233V129.681H42.119V128.463ZM52.675 128.631H59.213V129.821H52.675V128.631ZM52.353 121.967H59.353V123.185H52.353V121.967ZM55.139 120.973H56.651V131.011H55.139V120.973ZM52.283 130.857C54.019 130.731 56.693 130.535 59.213 130.311L59.227 131.585C56.847 131.837 54.299 132.089 52.479 132.257L52.283 130.857ZM54.061 126.391V127.035H57.757V126.391H54.061ZM54.061 124.781V125.411H57.757V124.781H54.061ZM52.717 123.731H59.143V128.085H52.717V123.731ZM58.457 119.643L59.199 120.903C57.407 121.267 54.859 121.477 52.759 121.519C52.703 121.183 52.549 120.651 52.395 120.329C54.481 120.231 56.917 119.979 58.457 119.643ZM59.353 122.737H64.197V124.277H59.353V122.737ZM63.525 122.737H65.135C65.135 122.737 65.121 123.283 65.121 123.479C64.995 129.247 64.883 131.291 64.421 131.921C64.113 132.397 63.791 132.551 63.329 132.635C62.895 132.719 62.237 132.719 61.579 132.691C61.537 132.229 61.355 131.543 61.089 131.095C61.691 131.151 62.223 131.151 62.503 131.151C62.713 131.151 62.853 131.109 62.979 130.913C63.301 130.493 63.413 128.519 63.525 123.101V122.737ZM60.697 119.811H62.307C62.293 125.789 62.279 130.283 59.045 132.831C58.807 132.425 58.261 131.851 57.883 131.571C60.837 129.317 60.683 125.397 60.697 119.811ZM68.579 124.711H76.153V126.349H68.579V124.711ZM75.607 124.711H77.371C77.371 124.711 77.357 125.229 77.343 125.439C77.189 129.695 77.021 131.361 76.531 131.935C76.181 132.411 75.789 132.537 75.257 132.621C74.767 132.691 73.955 132.677 73.129 132.649C73.101 132.159 72.877 131.431 72.569 130.955C73.353 131.025 74.081 131.039 74.431 131.039C74.683 131.039 74.837 130.997 74.991 130.843C75.327 130.479 75.481 128.911 75.607 125.019V124.711ZM70.161 119.755L71.981 120.287C70.931 122.723 69.223 124.977 67.459 126.363C67.137 125.999 66.409 125.327 66.003 125.005C67.767 123.843 69.321 121.883 70.161 119.755ZM75.495 119.727C76.377 121.505 78.141 123.549 79.681 124.725C79.219 125.089 78.575 125.775 78.253 126.251C76.671 124.795 74.949 122.527 73.843 120.385L75.495 119.727ZM71.085 125.187H72.905C72.639 128.337 72.037 131.263 67.865 132.817C67.655 132.355 67.165 131.641 66.773 131.277C70.525 130.045 70.861 127.679 71.085 125.187ZM88.683 119.657H90.265V121.337H88.683V119.657ZM86.037 120.413H93.107V121.617H86.037V120.413ZM85.659 122.653H93.359V123.913H85.659V122.653ZM86.961 121.673L88.305 121.407C88.515 121.799 88.725 122.331 88.795 122.667L87.381 122.975C87.325 122.625 87.143 122.079 86.961 121.673ZM90.685 121.337L92.085 121.687C91.819 122.205 91.595 122.653 91.399 122.989L90.167 122.667C90.349 122.289 90.573 121.729 90.685 121.337ZM87.577 127.021V127.679H91.511V127.021H87.577ZM87.577 125.397V126.041H91.511V125.397H87.577ZM86.261 124.389H92.883V128.687H86.261V124.389ZM88.711 125.201H90.265V131.837H88.711V125.201ZM86.191 129.261H92.925V130.479H86.191V129.261ZM85.533 131.165H93.429V132.453H85.533V131.165ZM81.263 123.059H85.309V124.459H81.263V123.059ZM80.591 125.481H85.701V126.909H80.591V125.481ZM80.731 127.693L81.795 127.427C82.033 128.211 82.229 129.191 82.299 129.863L81.165 130.157C81.137 129.485 80.941 128.477 80.731 127.693ZM80.437 130.899C81.809 130.703 83.895 130.325 85.855 129.961L85.967 131.347C84.161 131.739 82.229 132.131 80.759 132.425L80.437 130.899ZM84.609 127.315L85.813 127.609C85.561 128.407 85.337 129.289 85.127 129.877L84.119 129.597C84.301 128.967 84.511 127.987 84.609 127.315ZM82.509 123.619H83.951V131.165L82.509 131.417V123.619ZM82.439 119.573H83.321V119.881H83.797V120.315C83.251 121.379 82.397 122.821 81.011 124.081C80.787 123.745 80.311 123.213 80.003 122.989C81.179 121.981 82.005 120.665 82.439 119.573ZM82.649 119.573H83.825C84.637 120.273 85.687 121.267 86.191 121.981L85.113 123.269C84.665 122.569 83.713 121.393 82.943 120.763H82.649V119.573ZM102.781 122.135H107.429V123.675H102.781V122.135ZM102.921 119.559L104.531 119.797C104.125 122.681 103.397 125.481 102.165 127.245C101.941 126.937 101.325 126.307 100.975 126.027C102.053 124.515 102.627 122.079 102.921 119.559ZM105.189 123.031L106.743 123.157C106.253 127.791 105.077 130.885 101.969 132.775C101.829 132.425 101.353 131.725 101.073 131.403C103.845 129.877 104.839 127.077 105.189 123.031ZM103.663 123.423C104.139 126.965 105.175 130.031 107.513 131.417C107.149 131.711 106.645 132.341 106.407 132.747C103.859 131.053 102.809 127.763 102.235 123.619L103.663 123.423ZM97.363 119.573H98.805V127.049H97.363V119.573ZM96.551 121.323V123.353H99.687V121.323H96.551ZM95.179 120.259H101.143V124.417H95.179V120.259ZM96.271 125.873V126.447H99.967V125.873H96.271ZM94.885 124.851H101.423V127.455H94.885V124.851ZM94.325 128.043C96.285 128.043 99.267 128.001 102.067 127.959L102.025 129.135C99.253 129.205 96.327 129.247 94.367 129.275L94.325 128.043ZM97.027 127.161L98.413 127.483C97.811 128.617 97.013 129.961 96.453 130.843L95.095 130.507C95.683 129.625 96.481 128.239 97.027 127.161ZM96.173 130.507L96.971 129.541C98.581 130.087 100.317 130.899 101.325 131.543L100.289 132.565C99.365 131.907 97.741 131.081 96.173 130.507ZM99.421 128.631L100.821 128.785C100.247 131.277 98.567 132.229 95.235 132.775C95.151 132.341 94.885 131.809 94.647 131.487C97.475 131.235 98.889 130.549 99.421 128.631ZM94.283 121.729H95.697V121.827H100.457V121.729H102.067V122.933H100.457V122.835H95.697V122.933H94.283V121.729Z" fill="#6EC1C5"/>
<path d="M52.5165 115.938H93.2093" stroke="#6EC1C5"/>
<path d="M82.9102 26.6411C85.7152 26.6366 88.4226 27.6652 90.5113 29.5288C92.5999 31.3925 93.9219 33.9594 94.2228 36.7353C94.5237 39.5112 93.7821 42.2997 92.1409 44.5639C90.4997 46.8281 88.075 48.4078 85.3336 48.9989L84.6861 49.1195L90.1235 57.7769L96.6515 55.1763C97.5494 54.8155 98.552 54.8108 99.4533 55.1632C100.355 55.5155 101.086 56.1982 101.497 57.0708C101.908 57.9434 101.968 58.9396 101.664 59.8547C101.36 60.7698 100.715 61.5341 99.8624 61.9907L99.4611 62.1791L92.9369 64.776C91.3904 65.3919 89.683 65.483 88.0791 65.0354C86.4753 64.5877 85.0645 63.6262 84.0651 62.2997L83.7016 61.7721L83.0844 60.7921L80.7898 69.9282C80.5912 70.7232 80.2638 71.4806 79.8204 72.1708L79.4796 72.6607L85.7387 77.2891C87.2317 78.3934 88.2641 80.006 88.6392 81.8194L88.749 82.5054L90.0857 94.4833H90.4832C91.4484 94.4844 92.3766 94.8522 93.0784 95.5117C93.7802 96.1711 94.2025 97.0724 94.2591 98.0314C94.3156 98.9904 94.0022 99.9347 93.3827 100.671C92.7633 101.408 91.8846 101.881 90.9263 101.995L90.4832 102.021H87.0375C86.0899 102.022 85.1705 101.7 84.4312 101.11C83.6918 100.52 83.1767 99.6969 82.9708 98.7762L82.8951 98.3352L81.2214 83.3383L69.2939 74.5189C69.0817 74.3635 68.8863 74.1867 68.7108 73.9912C67.659 73.1528 66.8508 72.0504 66.3696 70.7976C65.8884 69.5448 65.7515 68.187 65.9731 66.864L66.0981 66.2723L69.1046 54.2981L63.1598 56.0695L59.998 65.5222C59.6944 66.4368 59.0504 67.201 58.1984 67.6578C57.3464 68.1146 56.3511 68.2294 55.4167 67.9785C54.4824 67.7277 53.68 67.1303 53.1743 66.309C52.6686 65.4877 52.4981 64.5049 52.6976 63.5623L52.8112 63.1402L55.9767 53.6875C56.3284 52.6387 56.9076 51.6797 57.6732 50.8785C58.4388 50.0774 59.3721 49.4537 60.407 49.0517L60.9863 48.8519L74.0006 44.966C72.6754 43.2998 71.8489 41.2955 71.6157 39.183C71.3825 37.0706 71.7522 34.9355 72.6822 33.0225C73.6123 31.1096 75.0652 29.4963 76.8742 28.3676C78.6832 27.239 80.7752 26.6406 82.9102 26.6411ZM70.0361 76.392C70.8395 76.9918 71.3706 77.8847 71.5126 78.8742C71.6546 79.8638 71.3959 80.869 70.7934 81.6687L66.189 87.782C65.3178 88.938 64.0351 89.7181 62.6041 89.962C61.1732 90.2059 59.7027 89.8952 58.4948 89.0936L51.1868 84.2429C50.4304 84.8471 49.4699 85.1394 48.5033 85.0594C47.5368 84.9795 46.6379 84.5334 45.9921 83.8132C45.3462 83.093 45.0026 82.1536 45.0322 81.1886C45.0617 80.2237 45.4621 79.3068 46.1507 78.6271L48.0251 76.7652C48.65 76.1419 49.4727 75.7536 50.353 75.6663C51.2332 75.579 52.1167 75.7982 52.8529 76.2865L61.2059 81.8307L64.735 77.1458C65.0333 76.7499 65.4071 76.4163 65.835 76.1641C66.2628 75.9119 66.7364 75.7461 67.2287 75.6761C67.7209 75.6061 68.2222 75.6333 68.7039 75.7562C69.1856 75.879 69.6383 76.0951 70.0361 76.392Z" fill="#F5C371" fill-opacity="0.5"/>
<path d="M49.6918 61.8345C49.6918 63.3812 49.5318 64.7012 49.2118 65.7945C48.8918 66.8878 48.3785 67.7278 47.6718 68.3145C46.9785 68.9012 46.0652 69.1945 44.9318 69.1945C43.3185 69.1945 42.1252 68.5478 41.3518 67.2545C40.5918 65.9478 40.2118 64.1412 40.2118 61.8345C40.2118 60.2878 40.3652 58.9678 40.6718 57.8745C40.9918 56.7812 41.4985 55.9478 42.1918 55.3745C42.8852 54.7878 43.7985 54.4945 44.9318 54.4945C46.5318 54.4945 47.7252 55.1412 48.5118 56.4345C49.2985 57.7145 49.6918 59.5145 49.6918 61.8345ZM41.9718 61.8345C41.9718 63.7945 42.1918 65.2612 42.6318 66.2345C43.0852 67.2078 43.8518 67.6945 44.9318 67.6945C45.9985 67.6945 46.7585 67.2145 47.2118 66.2545C47.6785 65.2812 47.9118 63.8078 47.9118 61.8345C47.9118 59.8878 47.6785 58.4278 47.2118 57.4545C46.7585 56.4812 45.9985 55.9945 44.9318 55.9945C43.8518 55.9945 43.0852 56.4812 42.6318 57.4545C42.1918 58.4278 41.9718 59.8878 41.9718 61.8345Z" fill="#362405"/>
<path d="M54.325 62.8319V65.0619C54.325 65.3286 54.3083 65.5786 54.275 65.8119H54.335C54.5083 65.5386 54.7416 65.3319 55.035 65.1919C55.335 65.0519 55.6583 64.9819 56.005 64.9819C56.6516 64.9819 57.1383 65.1386 57.465 65.4519C57.7983 65.7586 57.965 66.2552 57.965 66.9419V70.4319H57.095V67.0019C57.095 66.1419 56.695 65.7119 55.895 65.7119C55.295 65.7119 54.8816 65.8819 54.655 66.2219C54.435 66.5552 54.325 67.0352 54.325 67.6619V70.4319H53.445V62.8319H54.325ZM62.1266 64.9719C62.2266 64.9719 62.3333 64.9786 62.4466 64.9919C62.5599 64.9986 62.6633 65.0119 62.7566 65.0319L62.6466 65.8419C62.5599 65.8219 62.4633 65.8052 62.3566 65.7919C62.2499 65.7786 62.1533 65.7719 62.0666 65.7719C61.7933 65.7719 61.5366 65.8486 61.2966 66.0019C61.0566 66.1486 60.8633 66.3586 60.7166 66.6319C60.5766 66.8986 60.5066 67.2119 60.5066 67.5719V70.4319H59.6266V65.0719H60.3466L60.4466 66.0519H60.4866C60.6533 65.7586 60.8733 65.5052 61.1466 65.2919C61.4266 65.0786 61.7533 64.9719 62.1266 64.9719Z" fill="black"/>
<path d="M80.225 65.7545H78.145V68.9945H76.445V65.7545H69.605V64.2545L76.325 54.6345H78.145V64.1745H80.225V65.7545ZM76.445 64.1745V59.6745C76.445 58.9812 76.4516 58.3945 76.465 57.9145C76.4916 57.4212 76.5183 56.9545 76.545 56.5145H76.465C76.3583 56.7678 76.225 57.0412 76.065 57.3345C75.905 57.6278 75.7516 57.8745 75.605 58.0745L71.325 64.1745H76.445ZM91.0903 61.8345C91.0903 63.3812 90.9303 64.7012 90.6103 65.7945C90.2903 66.8878 89.7769 67.7278 89.0703 68.3145C88.3769 68.9012 87.4636 69.1945 86.3303 69.1945C84.7169 69.1945 83.5236 68.5478 82.7503 67.2545C81.9903 65.9478 81.6103 64.1412 81.6103 61.8345C81.6103 60.2878 81.7636 58.9678 82.0703 57.8745C82.3903 56.7812 82.8969 55.9478 83.5903 55.3745C84.2836 54.7878 85.1969 54.4945 86.3303 54.4945C87.9303 54.4945 89.1236 55.1412 89.9103 56.4345C90.6969 57.7145 91.0903 59.5145 91.0903 61.8345ZM83.3703 61.8345C83.3703 63.7945 83.5903 65.2612 84.0303 66.2345C84.4836 67.2078 85.2503 67.6945 86.3303 67.6945C87.3969 67.6945 88.1569 67.2145 88.6103 66.2545C89.0769 65.2812 89.3103 63.8078 89.3103 61.8345C89.3103 59.8878 89.0769 58.4278 88.6103 57.4545C88.1569 56.4812 87.3969 55.9945 86.3303 55.9945C85.2503 55.9945 84.4836 56.4812 84.0303 57.4545C83.5903 58.4278 83.3703 59.8878 83.3703 61.8345Z" fill="#362405"/>
<path d="M102.942 64.9719C103.548 64.9719 104.002 65.1286 104.302 65.4419C104.602 65.7552 104.752 66.2552 104.752 66.9419V70.4319H103.882V66.9819C103.882 66.1352 103.518 65.7119 102.792 65.7119C102.272 65.7119 101.898 65.8619 101.672 66.1619C101.452 66.4619 101.342 66.8986 101.342 67.4719V70.4319H100.472V66.9819C100.472 66.1352 100.105 65.7119 99.3716 65.7119C98.8316 65.7119 98.4582 65.8786 98.2516 66.2119C98.0449 66.5452 97.9416 67.0252 97.9416 67.6519V70.4319H97.0616V65.0719H97.7716L97.9016 65.8019H97.9516C98.1182 65.5219 98.3416 65.3152 98.6216 65.1819C98.9082 65.0419 99.2116 64.9719 99.5316 64.9719C100.372 64.9719 100.918 65.2719 101.172 65.8719H101.222C101.402 65.5652 101.645 65.3386 101.952 65.1919C102.258 65.0452 102.588 64.9719 102.942 64.9719ZM106.857 63.0619C106.991 63.0619 107.107 63.1086 107.207 63.2019C107.314 63.2886 107.367 63.4286 107.367 63.6219C107.367 63.8152 107.314 63.9586 107.207 64.0519C107.107 64.1386 106.991 64.1819 106.857 64.1819C106.711 64.1819 106.587 64.1386 106.487 64.0519C106.387 63.9586 106.337 63.8152 106.337 63.6219C106.337 63.4286 106.387 63.2886 106.487 63.2019C106.587 63.1086 106.711 63.0619 106.857 63.0619ZM107.287 65.0719V70.4319H106.407V65.0719H107.287ZM111.565 64.9719C112.205 64.9719 112.689 65.1286 113.015 65.4419C113.342 65.7552 113.505 66.2552 113.505 66.9419V70.4319H112.635V67.0019C112.635 66.1419 112.235 65.7119 111.435 65.7119C110.842 65.7119 110.432 65.8786 110.205 66.2119C109.979 66.5452 109.865 67.0252 109.865 67.6519V70.4319H108.985V65.0719H109.695L109.825 65.8019H109.875C110.049 65.5219 110.289 65.3152 110.595 65.1819C110.902 65.0419 111.225 64.9719 111.565 64.9719Z" fill="black"/>
</svg>
