<svg width="145" height="147" viewBox="0 0 145 147" fill="none" xmlns="http://www.w3.org/2000/svg">
<rect width="144.962" height="144.962" fill="white"/>
<circle cx="73.0607" cy="59.0745" r="49.8669" fill="#97CDF4"/>
<path d="M24.564 47.4654C22.2679 57.0571 22.8677 67.1143 26.2875 76.3652C29.7072 85.6161 35.7934 93.6452 43.7764 99.4371C51.7593 105.229 61.2805 108.524 71.1359 108.904C80.9913 109.285 90.7382 106.735 99.1442 101.576L73.0607 59.0745L24.564 47.4654Z" fill="#CCE4F5"/>
<path d="M51.1683 65.4777H49.4483V55.4977C49.4483 54.9243 49.455 54.4643 49.4683 54.1177C49.4817 53.771 49.5017 53.411 49.5283 53.0377C49.315 53.251 49.115 53.431 48.9283 53.5777C48.755 53.7243 48.5417 53.911 48.2883 54.1377L46.7683 55.3777L45.8483 54.1977L49.7083 51.1977H51.1683V65.4777ZM65.3736 54.5377C65.3736 55.4977 65.1003 56.2643 64.5536 56.8377C64.0203 57.3977 63.307 57.771 62.4136 57.9577V58.0377C63.547 58.171 64.3936 58.531 64.9536 59.1177C65.527 59.7043 65.8136 60.471 65.8136 61.4177C65.8136 62.2577 65.6203 62.9977 65.2336 63.6377C64.847 64.2777 64.247 64.7777 63.4336 65.1377C62.6336 65.4977 61.6003 65.6777 60.3336 65.6777C59.587 65.6777 58.8936 65.6177 58.2536 65.4977C57.6136 65.391 57.0003 65.191 56.4136 64.8977V63.2577C57.0136 63.5643 57.6603 63.7977 58.3536 63.9577C59.047 64.1177 59.7136 64.1977 60.3536 64.1977C61.6336 64.1977 62.5536 63.951 63.1136 63.4577C63.687 62.951 63.9736 62.2577 63.9736 61.3777C63.9736 60.4843 63.6203 59.8443 62.9136 59.4577C62.2203 59.0577 61.2403 58.8577 59.9736 58.8577H58.5936V57.3577H59.9936C61.167 57.3577 62.0536 57.111 62.6536 56.6177C63.267 56.1243 63.5736 55.471 63.5736 54.6577C63.5736 53.9643 63.3403 53.431 62.8736 53.0577C62.407 52.671 61.7736 52.4777 60.9736 52.4777C60.2003 52.4777 59.5403 52.591 58.9936 52.8177C58.447 53.0443 57.907 53.331 57.3736 53.6777L56.4936 52.4777C57.0003 52.0777 57.627 51.731 58.3736 51.4377C59.1336 51.1443 59.9936 50.9977 60.9536 50.9977C62.447 50.9977 63.5536 51.331 64.2736 51.9977C65.007 52.6643 65.3736 53.511 65.3736 54.5377ZM74.059 65.4777H72.339V55.4977C72.339 54.9243 72.3456 54.4643 72.359 54.1177C72.3723 53.771 72.3923 53.411 72.419 53.0377C72.2056 53.251 72.0056 53.431 71.819 53.5777C71.6456 53.7243 71.4323 53.911 71.179 54.1377L69.659 55.3777L68.739 54.1977L72.599 51.1977H74.059V65.4777ZM79.5043 59.3777C79.5043 58.351 79.5909 57.3443 79.7643 56.3577C79.9509 55.3577 80.2776 54.4577 80.7443 53.6577C81.2243 52.8443 81.8909 52.1977 82.7443 51.7177C83.5976 51.2377 84.6976 50.9977 86.0443 50.9977C86.3243 50.9977 86.6309 51.011 86.9643 51.0377C87.3109 51.0643 87.5909 51.111 87.8043 51.1777V52.6777C87.5643 52.5977 87.2909 52.5377 86.9843 52.4977C86.6776 52.4577 86.3776 52.4377 86.0843 52.4377C85.1643 52.4377 84.3976 52.591 83.7843 52.8977C83.1709 53.2043 82.6843 53.6243 82.3243 54.1577C81.9776 54.691 81.7243 55.3043 81.5643 55.9977C81.4043 56.691 81.3043 57.431 81.2643 58.2177H81.3843C81.6909 57.751 82.1176 57.3577 82.6643 57.0377C83.2109 56.7043 83.9109 56.5377 84.7643 56.5377C86.0043 56.5377 87.0043 56.9177 87.7643 57.6777C88.5243 58.4243 88.9043 59.491 88.9043 60.8777C88.9043 62.371 88.4909 63.5443 87.6643 64.3977C86.8509 65.251 85.7509 65.6777 84.3643 65.6777C83.4576 65.6777 82.6376 65.451 81.9043 64.9977C81.1709 64.5443 80.5843 63.851 80.1443 62.9177C79.7176 61.9843 79.5043 60.8043 79.5043 59.3777ZM84.3443 64.1977C85.1843 64.1977 85.8643 63.931 86.3843 63.3977C86.9043 62.851 87.1643 62.011 87.1643 60.8777C87.1643 59.971 86.9309 59.251 86.4643 58.7177C86.0109 58.1843 85.3243 57.9177 84.4043 57.9177C83.7776 57.9177 83.2309 58.051 82.7643 58.3177C82.2976 58.571 81.9309 58.9043 81.6643 59.3177C81.4109 59.7177 81.2843 60.1243 81.2843 60.5377C81.2843 61.111 81.3976 61.6843 81.6243 62.2577C81.8509 62.8177 82.1909 63.2843 82.6443 63.6577C83.0976 64.0177 83.6643 64.1977 84.3443 64.1977Z" fill="#362405"/>
<path d="M101.574 67.0147C101.094 67.0147 100.671 66.918 100.304 66.7247C99.9374 66.5313 99.6474 66.2313 99.4341 65.8247C99.2274 65.418 99.1241 64.898 99.1241 64.2647C99.1241 63.6047 99.2308 63.068 99.4441 62.6547C99.6641 62.2413 99.9641 61.938 100.344 61.7447C100.724 61.5513 101.154 61.4547 101.634 61.4547C101.901 61.4547 102.161 61.4847 102.414 61.5447C102.674 61.598 102.884 61.6647 103.044 61.7447L102.774 62.4747C102.614 62.4147 102.427 62.358 102.214 62.3047C102.001 62.2513 101.801 62.2247 101.614 62.2247C100.561 62.2247 100.034 62.9013 100.034 64.2547C100.034 64.9013 100.161 65.398 100.414 65.7447C100.674 66.0847 101.057 66.2547 101.564 66.2547C101.851 66.2547 102.107 66.2247 102.334 66.1647C102.561 66.1047 102.767 66.0313 102.954 65.9447V66.7247C102.774 66.818 102.574 66.888 102.354 66.9347C102.141 66.988 101.881 67.0147 101.574 67.0147ZM106.259 61.4647C106.912 61.4647 107.395 61.608 107.709 61.8947C108.022 62.1813 108.179 62.638 108.179 63.2647V66.9147H107.539L107.369 66.1547H107.329C107.095 66.448 106.849 66.6647 106.589 66.8047C106.329 66.9447 105.975 67.0147 105.529 67.0147C105.042 67.0147 104.639 66.888 104.319 66.6347C103.999 66.3747 103.839 65.9713 103.839 65.4247C103.839 64.8913 104.049 64.4813 104.469 64.1947C104.889 63.9013 105.535 63.7413 106.409 63.7147L107.319 63.6847V63.3647C107.319 62.918 107.222 62.608 107.029 62.4347C106.835 62.2613 106.562 62.1747 106.209 62.1747C105.929 62.1747 105.662 62.218 105.409 62.3047C105.155 62.3847 104.919 62.478 104.699 62.5847L104.429 61.9247C104.662 61.798 104.939 61.6913 105.259 61.6047C105.579 61.5113 105.912 61.4647 106.259 61.4647ZM107.309 64.2947L106.519 64.3247C105.852 64.3513 105.389 64.458 105.129 64.6447C104.875 64.8313 104.749 65.0947 104.749 65.4347C104.749 65.7347 104.839 65.9547 105.019 66.0947C105.205 66.2347 105.442 66.3047 105.729 66.3047C106.175 66.3047 106.549 66.1813 106.849 65.9347C107.155 65.6813 107.309 65.2947 107.309 64.7747V64.2947ZM110.714 66.9147H109.834V59.3147H110.714V66.9147Z" fill="#362405"/>
<path d="M43.257 127.274H48.801V128.688H43.257V127.274ZM43.243 129.738H48.801V131.138H43.243V129.738ZM48.661 121.086L50.299 121.66C49.837 122.64 49.319 123.634 48.885 124.306L47.429 123.76C47.849 123.046 48.381 121.94 48.661 121.086ZM41.703 121.814L43.117 121.184C43.677 121.954 44.279 122.99 44.489 123.704L42.977 124.418C42.795 123.704 42.249 122.626 41.703 121.814ZM42.137 124.67H48.829V126.238H43.789V133.896H42.137V124.67ZM48.045 124.67H49.683V132.09C49.683 132.888 49.529 133.336 49.011 133.602C48.479 133.854 47.723 133.868 46.673 133.868C46.603 133.42 46.379 132.734 46.169 132.3C46.813 132.328 47.555 132.328 47.765 132.328C47.975 132.314 48.045 132.258 48.045 132.076V124.67ZM45.119 120.75H46.813V125.72H45.119V120.75ZM37.937 122.052L38.917 120.876C39.785 121.296 40.891 121.954 41.437 122.486L40.387 123.774C39.897 123.256 38.805 122.514 37.937 122.052ZM37.293 125.776L38.245 124.586C39.127 124.992 40.261 125.664 40.821 126.196L39.813 127.512C39.295 126.98 38.189 126.238 37.293 125.776ZM37.685 132.762C38.371 131.698 39.337 129.92 40.093 128.282L41.325 129.29C40.695 130.802 39.911 132.426 39.155 133.84L37.685 132.762ZM51.615 122.15H56.879V123.564H51.615V122.15ZM57.397 125.496L63.711 124.53L63.949 126.014L57.635 127.008L57.397 125.496ZM57.131 128.618L64.271 127.554L64.481 129.038L57.355 130.144L57.131 128.618ZM62.367 120.778L63.753 121.898C62.087 122.864 59.749 123.592 57.649 124.082C57.565 123.732 57.313 123.158 57.103 122.836C59.063 122.346 61.177 121.576 62.367 120.778ZM59.511 123.046H61.135V131.558C61.135 132.202 61.191 132.3 61.583 132.3C61.751 132.3 62.465 132.3 62.661 132.3C63.025 132.3 63.095 131.922 63.151 130.34C63.515 130.62 64.145 130.9 64.579 130.998C64.425 133.028 64.033 133.728 62.801 133.728C62.507 133.728 61.569 133.728 61.303 133.728C59.889 133.728 59.511 133.224 59.511 131.558V123.046ZM51.433 126.798H57.187V128.254H51.433V126.798ZM51.867 124.46H56.599V125.874H51.867V124.46ZM53.631 120.75H55.185V133.896H53.631V120.75ZM53.701 127.344L54.751 127.834C54.135 129.43 53.057 131.348 51.923 132.356C51.769 131.894 51.433 131.222 51.195 130.816C52.175 129.99 53.211 128.52 53.701 127.344ZM55.045 127.848C55.479 128.24 56.935 129.864 57.257 130.27L56.207 131.544C55.745 130.746 54.667 129.29 54.121 128.618L55.045 127.848ZM65.531 125.706H78.285V127.372H65.531V125.706ZM71.789 122.472H76.773V124.082H71.789V122.472ZM70.697 120.764H72.475V126.504H70.697V120.764ZM70.697 126.784H72.475V133.896H70.697V126.784ZM71.971 129.458L72.811 128.1C74.211 128.506 76.353 129.248 77.445 129.78L76.549 131.292C75.527 130.76 73.441 129.934 71.971 129.458ZM86.517 131.964H90.927V133.406H86.517V131.964ZM87.119 122.094H90.675V123.522H87.119V122.094ZM85.831 128.688H91.613V133.826H90.017V130.102H87.371V133.868H85.831V128.688ZM90.087 122.094H90.381L90.675 122.038L91.739 122.486C90.717 126 88.351 128.24 85.509 129.444C85.313 129.052 84.893 128.478 84.557 128.17C87.091 127.246 89.303 125.104 90.087 122.36V122.094ZM87.175 120.75L88.771 121.142C88.141 123.032 87.105 124.852 85.971 126C85.691 125.706 85.047 125.16 84.669 124.922C85.761 123.942 86.685 122.374 87.175 120.75ZM87.217 122.878C88.015 124.768 89.835 126.938 92.691 127.834C92.355 128.156 91.879 128.814 91.655 129.248C88.771 128.128 86.937 125.678 86.083 123.606L87.217 122.878ZM79.881 126.938H81.253V132.034H79.881V126.938ZM81.449 122.724V124.502H83.297V122.724H81.449ZM79.993 121.282H84.837V125.944H79.993V121.282ZM81.953 125.356H83.437V131.614H81.953V125.356ZM79.265 131.768C80.749 131.502 82.989 131.012 85.089 130.536L85.243 132.02C83.269 132.51 81.141 133.014 79.545 133.378L79.265 131.768ZM82.541 127.582H84.977V129.052H82.541V127.582ZM96.639 125.244V126.406H103.331V125.244H96.639ZM96.639 122.752V123.872H103.331V122.752H96.639ZM94.959 121.254H105.095V127.89H94.959V121.254ZM93.587 131.95H106.243V133.504H93.587V131.95ZM94.539 129.08H105.529V130.634H94.539V129.08ZM99.201 122.192H100.797V127.526H100.909V132.93H99.075V127.526H99.201V122.192Z" fill="#6EC1C5"/>
<path d="M51.5551 117.059H92.2478" stroke="#6EC1C5"/>
</svg>
