<svg width="146" height="147" viewBox="0 0 146 147" fill="none" xmlns="http://www.w3.org/2000/svg">
<rect x="0.923828" y="0.878174" width="145" height="145" fill="white"/>
<path d="M64.8673 73.1971C66.9097 78.5425 66.6924 84.1051 60.5652 86.3215C47.9631 90.9715 45.1384 78.7598 44.9646 78.1514L64.8673 73.1971ZM43.0091 69.677L61.7819 65.027C60.9563 60.4639 62.2165 55.9007 62.2165 50.5119C62.2165 43.2109 56.4369 28.9132 47.2243 31.2165C36.708 33.824 35.1871 45.5142 35.5782 51.1638C36.0996 56.8134 42.7049 68.8947 43.0091 69.677ZM96.8753 94.7959C96.7449 95.4477 93.8768 107.616 81.2747 103.009C75.1909 100.75 74.9302 95.187 76.9726 89.8416L96.8753 94.7959ZM106.218 67.8518C106.653 62.2022 105.175 50.4685 94.6156 47.861C85.4465 45.4708 79.6668 59.8554 79.6668 67.1999C79.6668 72.5452 80.8836 77.1084 80.1449 81.6715L98.8308 86.3215C99.1784 85.5392 105.74 73.4579 106.218 67.8518Z" fill="#F5C371" fill-opacity="0.5"/>
<path d="M51.4641 61.0881C52.9174 61.0881 54.0774 61.4548 54.9441 62.1881C55.8241 62.9215 56.2641 63.9548 56.2641 65.2881C56.2641 66.7681 55.7908 67.9348 54.8441 68.7881C53.9108 69.6281 52.6041 70.0481 50.9241 70.0481C50.1774 70.0481 49.4841 69.9815 48.8441 69.8481C48.2041 69.7148 47.6641 69.5215 47.2241 69.2681V67.6081C47.7041 67.9015 48.2841 68.1348 48.9641 68.3081C49.6574 68.4681 50.3174 68.5481 50.9441 68.5481C51.9974 68.5481 52.8441 68.3015 53.4841 67.8081C54.1374 67.3015 54.4641 66.5215 54.4641 65.4681C54.4641 64.5348 54.1774 63.8215 53.6041 63.3281C53.0308 62.8215 52.1241 62.5681 50.8841 62.5681C50.5108 62.5681 50.0841 62.6015 49.6041 62.6681C49.1241 62.7348 48.7374 62.8015 48.4441 62.8681L47.5641 62.3081L48.1041 55.5681H55.2641V57.1681H49.6041L49.2641 61.3081C49.4908 61.2681 49.7974 61.2215 50.1841 61.1681C50.5708 61.1148 50.9974 61.0881 51.4641 61.0881ZM68.4494 66.6081H66.3694V69.8481H64.6694V66.6081H57.8294V65.1081L64.5494 55.4881H66.3694V65.0281H68.4494V66.6081ZM64.6694 65.0281V60.5281C64.6694 59.8348 64.6761 59.2481 64.6894 58.7681C64.7161 58.2748 64.7428 57.8081 64.7694 57.3681H64.6894C64.5828 57.6215 64.4494 57.8948 64.2894 58.1881C64.1294 58.4815 63.9761 58.7281 63.8294 58.9281L59.5494 65.0281H64.6694ZM79.3147 62.6881C79.3147 64.2348 79.1547 65.5548 78.8347 66.6481C78.5147 67.7415 78.0014 68.5815 77.2947 69.1681C76.6014 69.7548 75.6881 70.0481 74.5547 70.0481C72.9414 70.0481 71.7481 69.4015 70.9747 68.1081C70.2147 66.8015 69.8347 64.9948 69.8347 62.6881C69.8347 61.1415 69.9881 59.8215 70.2947 58.7281C70.6147 57.6348 71.1214 56.8015 71.8147 56.2281C72.5081 55.6415 73.4214 55.3481 74.5547 55.3481C76.1547 55.3481 77.3481 55.9948 78.1347 57.2881C78.9214 58.5681 79.3147 60.3681 79.3147 62.6881ZM71.5947 62.6881C71.5947 64.6481 71.8147 66.1148 72.2547 67.0881C72.7081 68.0615 73.4747 68.5481 74.5547 68.5481C75.6214 68.5481 76.3814 68.0681 76.8347 67.1081C77.3014 66.1348 77.5347 64.6615 77.5347 62.6881C77.5347 60.7415 77.3014 59.2815 76.8347 58.3081C76.3814 57.3348 75.6214 56.8481 74.5547 56.8481C73.4747 56.8481 72.7081 57.3348 72.2547 58.3081C71.8147 59.2815 71.5947 60.7415 71.5947 62.6881ZM90.76 62.6881C90.76 64.2348 90.6 65.5548 90.28 66.6481C89.96 67.7415 89.4467 68.5815 88.74 69.1681C88.0467 69.7548 87.1334 70.0481 86 70.0481C84.3867 70.0481 83.1934 69.4015 82.42 68.1081C81.66 66.8015 81.28 64.9948 81.28 62.6881C81.28 61.1415 81.4334 59.8215 81.74 58.7281C82.06 57.6348 82.5667 56.8015 83.26 56.2281C83.9534 55.6415 84.8667 55.3481 86 55.3481C87.6 55.3481 88.7934 55.9948 89.58 57.2881C90.3667 58.5681 90.76 60.3681 90.76 62.6881ZM83.04 62.6881C83.04 64.6481 83.26 66.1148 83.7 67.0881C84.1534 68.0615 84.92 68.5481 86 68.5481C87.0667 68.5481 87.8267 68.0681 88.28 67.1081C88.7467 66.1348 88.98 64.6615 88.98 62.6881C88.98 60.7415 88.7467 59.2815 88.28 58.3081C87.8267 57.3348 87.0667 56.8481 86 56.8481C84.92 56.8481 84.1534 57.3348 83.7 58.3081C83.26 59.2815 83.04 60.7415 83.04 62.6881Z" fill="#362405"/>
<path d="M54.8121 118.358H95.5156" stroke="#6EC1C5"/>
<path d="M67.352 126.208H69.046V129.064C69.046 129.834 68.892 130.24 68.332 130.478C67.772 130.702 67.03 130.702 66.064 130.702C65.994 130.254 65.756 129.624 65.56 129.204C66.148 129.232 66.89 129.232 67.1 129.218C67.296 129.218 67.352 129.176 67.352 129.022V126.208ZM64.468 126.586L66.218 127.16C65.434 128.392 64.174 129.638 63.11 130.394C62.774 130.072 62.06 129.526 61.64 129.26C62.732 128.63 63.852 127.608 64.468 126.586ZM71.51 127.006L73.232 127.552C71.706 131.654 68.78 133.222 63.698 133.992C63.53 133.488 63.194 132.816 62.844 132.41C67.548 131.878 70.264 130.548 71.51 127.006ZM61.836 124.794H74.492V126.376H61.836V124.794ZM68.36 122.176H73.022V123.744H68.36V122.176ZM67.338 120.832H69.074V125.788H67.338V120.832ZM63.754 121.742H65.462V125.648H63.754V121.742ZM84.082 123.394H88.73V124.934H84.082V123.394ZM84.222 120.818L85.832 121.056C85.426 123.94 84.698 126.74 83.466 128.504C83.242 128.196 82.626 127.566 82.276 127.286C83.354 125.774 83.928 123.338 84.222 120.818ZM86.49 124.29L88.044 124.416C87.554 129.05 86.378 132.144 83.27 134.034C83.13 133.684 82.654 132.984 82.374 132.662C85.146 131.136 86.14 128.336 86.49 124.29ZM84.964 124.682C85.44 128.224 86.476 131.29 88.814 132.676C88.45 132.97 87.946 133.6 87.708 134.006C85.16 132.312 84.11 129.022 83.536 124.878L84.964 124.682ZM78.664 120.832H80.106V128.308H78.664V120.832ZM77.852 122.582V124.612H80.988V122.582H77.852ZM76.48 121.518H82.444V125.676H76.48V121.518ZM77.572 127.132V127.706H81.268V127.132H77.572ZM76.186 126.11H82.724V128.714H76.186V126.11ZM75.626 129.302C77.586 129.302 80.568 129.26 83.368 129.218L83.326 130.394C80.554 130.464 77.628 130.506 75.668 130.534L75.626 129.302ZM78.328 128.42L79.714 128.742C79.112 129.876 78.314 131.22 77.754 132.102L76.396 131.766C76.984 130.884 77.782 129.498 78.328 128.42ZM77.474 131.766L78.272 130.8C79.882 131.346 81.618 132.158 82.626 132.802L81.59 133.824C80.666 133.166 79.042 132.34 77.474 131.766ZM80.722 129.89L82.122 130.044C81.548 132.536 79.868 133.488 76.536 134.034C76.452 133.6 76.186 133.068 75.948 132.746C78.776 132.494 80.19 131.808 80.722 129.89ZM75.584 122.988H76.998V123.086H81.758V122.988H83.368V124.192H81.758V124.094H76.998V124.192H75.584V122.988Z" fill="#6EC1C5"/>
</svg>
