<svg width="145" height="147" viewBox="0 0 145 147" fill="none" xmlns="http://www.w3.org/2000/svg">
<rect y="0.878174" width="144.962" height="144.962" fill="white"/>
<path d="M19.7148 80.3175C19.7148 75.5139 23.6089 71.6198 28.4126 71.6198V71.6198C33.2162 71.6198 37.1103 75.5138 37.1103 80.3175V108.73H19.7148V80.3175Z" fill="#CCE4F5"/>
<path d="M41.749 89.5947C41.749 84.7911 45.6431 80.897 50.4467 80.897V80.897C55.2504 80.897 59.1445 84.7911 59.1445 89.5947V108.73H41.749V89.5947Z" fill="#CCE4F5"/>
<path d="M63.7832 75.6783C63.7832 70.8747 67.6773 66.9806 72.4809 66.9806V66.9806C77.2845 66.9806 81.1786 70.8747 81.1786 75.6783V108.73H63.7832V75.6783Z" fill="#CCE4F5"/>
<path d="M85.8174 62.9221C85.8174 58.1185 89.7115 54.2244 94.5151 54.2244V54.2244C99.3187 54.2244 103.213 58.1185 103.213 62.9221V108.73H85.8174V62.9221Z" fill="#97CDF4"/>
<path d="M107.852 103.511C107.852 98.7076 111.746 94.8135 116.549 94.8135V94.8135C121.353 94.8135 125.247 98.7076 125.247 103.511V108.73H107.852V103.511Z" fill="#CCE4F5"/>
<path d="M35.891 32.4231C35.891 31.3964 35.9776 30.3897 36.151 29.4031C36.3376 28.4031 36.6643 27.5031 37.131 26.7031C37.611 25.8897 38.2776 25.2431 39.131 24.7631C39.9843 24.2831 41.0843 24.0431 42.431 24.0431C42.711 24.0431 43.0176 24.0564 43.351 24.0831C43.6976 24.1097 43.9776 24.1564 44.191 24.2231V25.7231C43.951 25.6431 43.6776 25.5831 43.371 25.5431C43.0643 25.5031 42.7643 25.4831 42.471 25.4831C41.551 25.4831 40.7843 25.6364 40.171 25.9431C39.5576 26.2497 39.071 26.6697 38.711 27.2031C38.3643 27.7364 38.111 28.3497 37.951 29.0431C37.791 29.7364 37.691 30.4764 37.651 31.2631H37.771C38.0776 30.7964 38.5043 30.4031 39.051 30.0831C39.5976 29.7497 40.2976 29.5831 41.151 29.5831C42.391 29.5831 43.391 29.9631 44.151 30.7231C44.911 31.4697 45.291 32.5364 45.291 33.9231C45.291 35.4164 44.8776 36.5897 44.051 37.4431C43.2376 38.2964 42.1376 38.7231 40.751 38.7231C39.8443 38.7231 39.0243 38.4964 38.291 38.0431C37.5576 37.5897 36.971 36.8964 36.531 35.9631C36.1043 35.0297 35.891 33.8497 35.891 32.4231ZM40.731 37.2431C41.571 37.2431 42.251 36.9764 42.771 36.4431C43.291 35.8964 43.551 35.0564 43.551 33.9231C43.551 33.0164 43.3176 32.2964 42.851 31.7631C42.3976 31.2297 41.711 30.9631 40.791 30.9631C40.1643 30.9631 39.6176 31.0964 39.151 31.3631C38.6843 31.6164 38.3176 31.9497 38.051 32.3631C37.7976 32.7631 37.671 33.1697 37.671 33.5831C37.671 34.1564 37.7843 34.7297 38.011 35.3031C38.2376 35.8631 38.5776 36.3297 39.031 36.7031C39.4843 37.0631 40.051 37.2431 40.731 37.2431Z" fill="#362405"/>
<path d="M49.8841 32.3603V34.5903C49.8841 34.857 49.8674 35.107 49.8341 35.3403H49.8941C50.0674 35.067 50.3007 34.8603 50.5941 34.7203C50.8941 34.5803 51.2174 34.5103 51.5641 34.5103C52.2108 34.5103 52.6974 34.667 53.0241 34.9803C53.3574 35.287 53.5241 35.7837 53.5241 36.4703V39.9603H52.6541V36.5303C52.6541 35.6703 52.2541 35.2403 51.4541 35.2403C50.8541 35.2403 50.4408 35.4103 50.2141 35.7503C49.9941 36.0837 49.8841 36.5637 49.8841 37.1903V39.9603H49.0041V32.3603H49.8841ZM57.6857 34.5003C57.7857 34.5003 57.8924 34.507 58.0057 34.5203C58.1191 34.527 58.2224 34.5403 58.3157 34.5603L58.2057 35.3703C58.1191 35.3503 58.0224 35.3337 57.9157 35.3203C57.8091 35.307 57.7124 35.3003 57.6257 35.3003C57.3524 35.3003 57.0957 35.377 56.8557 35.5303C56.6157 35.677 56.4224 35.887 56.2757 36.1603C56.1357 36.427 56.0657 36.7403 56.0657 37.1003V39.9603H55.1857V34.6003H55.9057L56.0057 35.5803H56.0457C56.2124 35.287 56.4324 35.0337 56.7057 34.8203C56.9857 34.607 57.3124 34.5003 57.6857 34.5003Z" fill="black"/>
<path d="M75.7839 35.2832H73.7039V38.5232H72.0039V35.2832H65.1639V33.7832L71.8839 24.1632H73.7039V33.7032H75.7839V35.2832ZM72.0039 33.7032V29.2032C72.0039 28.5099 72.0105 27.9232 72.0239 27.4432C72.0505 26.9499 72.0772 26.4832 72.1039 26.0432H72.0239C71.9172 26.2965 71.7839 26.5699 71.6239 26.8632C71.4639 27.1565 71.3105 27.4032 71.1639 27.6032L66.8839 33.7032H72.0039ZM86.6492 31.3632C86.6492 32.9099 86.4892 34.2299 86.1692 35.3232C85.8492 36.4165 85.3358 37.2565 84.6292 37.8432C83.9358 38.4299 83.0225 38.7232 81.8892 38.7232C80.2758 38.7232 79.0825 38.0765 78.3092 36.7832C77.5492 35.4765 77.1692 33.6699 77.1692 31.3632C77.1692 29.8165 77.3225 28.4965 77.6292 27.4032C77.9492 26.3099 78.4558 25.4765 79.1492 24.9032C79.8425 24.3165 80.7558 24.0232 81.8892 24.0232C83.4892 24.0232 84.6825 24.6699 85.4692 25.9632C86.2558 27.2432 86.6492 29.0432 86.6492 31.3632ZM78.9292 31.3632C78.9292 33.3232 79.1492 34.7899 79.5892 35.7632C80.0425 36.7365 80.8092 37.2232 81.8892 37.2232C82.9558 37.2232 83.7158 36.7432 84.1692 35.7832C84.6358 34.8099 84.8692 33.3365 84.8692 31.3632C84.8692 29.4165 84.6358 27.9565 84.1692 26.9832C83.7158 26.0099 82.9558 25.5232 81.8892 25.5232C80.8092 25.5232 80.0425 26.0099 79.5892 26.9832C79.1492 27.9565 78.9292 29.4165 78.9292 31.3632Z" fill="#362405"/>
<path d="M98.5006 34.5003C99.1072 34.5003 99.5606 34.657 99.8606 34.9703C100.161 35.2837 100.311 35.7837 100.311 36.4703V39.9603H99.4406V36.5103C99.4406 35.6637 99.0772 35.2403 98.3506 35.2403C97.8306 35.2403 97.4572 35.3903 97.2306 35.6903C97.0106 35.9903 96.9006 36.427 96.9006 37.0003V39.9603H96.0306V36.5103C96.0306 35.6637 95.6639 35.2403 94.9306 35.2403C94.3906 35.2403 94.0172 35.407 93.8106 35.7403C93.6039 36.0737 93.5006 36.5537 93.5006 37.1803V39.9603H92.6206V34.6003H93.3306L93.4606 35.3303H93.5106C93.6772 35.0503 93.9006 34.8437 94.1806 34.7103C94.4672 34.5703 94.7706 34.5003 95.0906 34.5003C95.9306 34.5003 96.4772 34.8003 96.7306 35.4003H96.7806C96.9606 35.0937 97.2039 34.867 97.5106 34.7203C97.8172 34.5737 98.1472 34.5003 98.5006 34.5003ZM102.416 32.5903C102.55 32.5903 102.666 32.637 102.766 32.7303C102.873 32.817 102.926 32.957 102.926 33.1503C102.926 33.3437 102.873 33.487 102.766 33.5803C102.666 33.667 102.55 33.7103 102.416 33.7103C102.27 33.7103 102.146 33.667 102.046 33.5803C101.946 33.487 101.896 33.3437 101.896 33.1503C101.896 32.957 101.946 32.817 102.046 32.7303C102.146 32.637 102.27 32.5903 102.416 32.5903ZM102.846 34.6003V39.9603H101.966V34.6003H102.846ZM107.124 34.5003C107.764 34.5003 108.248 34.657 108.574 34.9703C108.901 35.2837 109.064 35.7837 109.064 36.4703V39.9603H108.194V36.5303C108.194 35.6703 107.794 35.2403 106.994 35.2403C106.401 35.2403 105.991 35.407 105.764 35.7403C105.538 36.0737 105.424 36.5537 105.424 37.1803V39.9603H104.544V34.6003H105.254L105.384 35.3303H105.434C105.608 35.0503 105.848 34.8437 106.154 34.7103C106.461 34.5703 106.784 34.5003 107.124 34.5003Z" fill="black"/>
<path d="M52.1863 119.097H92.879" stroke="#6EC1C5"/>
<path d="M60.0866 122.23H63.6426V132.352H60.0866V130.882H62.1026V123.7H60.0866V122.23ZM60.2966 125.114H63.1106V126.528H60.2966V125.114ZM64.0206 124.596H71.8746V125.968H64.0206V124.596ZM63.9926 130.336H71.8886V131.708H63.9926V130.336ZM63.6006 133.038H72.1126V134.48H63.6006V133.038ZM63.7966 127.354H72.1126V128.81H63.7966V127.354ZM60.2966 127.984H63.1106V129.398H60.2966V127.984ZM59.4006 122.23H60.9126V133.5H59.4006V122.23ZM67.1006 123.154H68.6406V133.878H67.1006V123.154ZM64.7906 125.198H66.1346V130.896H64.7906V125.198ZM69.6626 125.198H71.0486V130.896H69.6626V125.198ZM70.6146 121.628L71.7346 122.86C69.7046 123.392 66.8626 123.63 64.4406 123.686C64.3986 123.322 64.2026 122.734 64.0346 122.384C66.3726 122.286 69.0326 122.034 70.6146 121.628ZM74.1426 122.216H77.7546V132.38H74.1426V130.896H76.2006V123.7H74.1426V122.216ZM74.3246 125.1H77.1946V126.514H74.3246V125.1ZM74.3246 127.984H77.1946V129.398H74.3246V127.984ZM73.4006 122.216H74.9546V133.514H73.4006V122.216ZM79.6866 122.16H85.6926V126.556H79.6866V125.058H84.0686V123.644H79.6866V122.16ZM79.6026 128.082H86.0146V129.636H79.6026V128.082ZM78.7206 122.16H80.3306V133.472H78.7206V122.16ZM77.4606 132.926C78.7066 132.744 80.5406 132.422 82.3326 132.1L82.4726 133.57C80.8906 133.92 79.2246 134.256 77.9086 134.536L77.4606 132.926ZM81.7446 126.08H83.3686C83.3546 129.734 84.0966 133.108 84.7546 133.108C84.9506 133.094 85.0486 132.45 85.0906 131.19C85.4126 131.512 85.9586 131.834 86.3786 131.974C86.1826 134.158 85.6506 134.662 84.6146 134.662C82.7246 134.648 81.8706 130.574 81.7446 126.08Z" fill="#6EC1C5"/>
</svg>
