<svg width="63" height="166" viewBox="0 0 63 166" fill="none" xmlns="http://www.w3.org/2000/svg">
<path d="M34.1472 96.0384C34.1472 96.0384 37.2382 113.965 37.6969 116.337C37.854 117.159 38.4367 117.953 38.8664 118.651C39.7012 120.003 40.5855 121.321 41.4451 122.656C43.6394 126.069 45.6354 129.561 47.4248 133.197C49.0116 136.417 50.3133 139.876 51.7556 143.202C52.4085 144.715 53.0986 146.161 53.9499 147.566C54.1896 147.959 55.6194 149.847 55.3178 150.327L51.7473 155.938C51.7473 155.938 43.6849 139.776 42.8584 138.404C42.0319 137.037 31.5892 122.61 31.5892 122.61L24.7169 99.7824L34.1472 96.0384Z" fill="#F79176"/>
<mask id="mask0_193_1129" style="mask-type:luminance" maskUnits="userSpaceOnUse" x="45" y="152" width="15" height="14">
<path d="M45.1602 152.075H59.9709V165.79H45.1602V152.075Z" fill="white"/>
</mask>
<g mask="url(#mask0_193_1129)">
<path d="M45.2635 164.472C45.2635 164.472 44.875 165.294 45.904 165.567C46.9371 165.844 49.6852 165.935 51.3547 165.431C53.0283 164.931 54.8632 163.947 55.3425 162.761C55.8219 161.575 55.6649 160.435 56.1649 159.224C56.4789 158.476 57.1277 157.939 57.7931 157.509C58.4336 157.1 58.9832 156.682 59.2518 155.947C59.4832 155.323 59.7932 154.637 59.8758 153.971C59.9006 153.79 59.7229 152.583 58.7477 152.331C57.7683 152.079 55.2516 157.443 55.2516 157.443L45.2635 164.472Z" fill="#372F2E"/>
</g>
<mask id="mask1_193_1129" style="mask-type:luminance" maskUnits="userSpaceOnUse" x="44" y="148" width="16" height="18">
<path d="M44.3627 148.297H59.1734V165.827H44.3627V148.297Z" fill="white"/>
</mask>
<g mask="url(#mask1_193_1129)">
<path d="M56.6691 156.645C55.4334 157.534 54.6318 160.228 54.6318 161.302C54.6318 162.373 52.6647 163.836 49.867 164.815C47.0735 165.794 45.4907 164.951 45.2635 164.476C45.1395 164.212 45.4618 163.749 45.5899 163.546C45.8172 163.17 46.0776 162.811 46.3586 162.472C46.8793 161.844 47.4867 161.282 48.1562 160.811C48.4826 160.579 48.7141 160.352 48.9042 160.05C48.9744 159.943 49.0405 159.823 49.0984 159.695C49.1893 159.492 49.2678 159.282 49.3381 159.067C49.4662 158.691 49.5612 158.298 49.6273 157.901C49.6852 157.587 49.7265 157.269 49.7554 156.959C49.772 156.802 49.7844 156.645 49.7968 156.492C49.8298 156.05 49.8836 155.55 49.7761 155.112C49.5901 154.36 48.0115 152.715 49.7968 152.046C51.5861 151.372 51.6522 153.356 52.2721 153.314C52.8879 153.265 54.3342 151.141 54.6318 150.459C54.7888 150.095 54.7805 149.698 54.7351 149.405C54.7061 149.198 54.9169 149.041 55.107 149.132C55.4004 149.269 55.7682 149.517 56.0285 149.955C56.5327 150.802 58.4584 151.851 58.7105 152.533C58.9626 153.219 57.9088 155.752 56.6691 156.645Z" fill="#5C5D9D"/>
</g>
<path d="M37.2382 98.7038C37.2382 98.7038 35.734 97.8525 34.6678 96.8277C33.6058 95.7987 29.3783 93.782 29.3783 93.782L31.0974 87.6536C31.0974 87.6536 35.6514 87.6867 35.6927 87.9925C35.734 88.3024 37.2382 98.7038 37.2382 98.7038Z" fill="#4E5184"/>
<path d="M15.5099 74.033C15.5099 74.033 14.4106 81.5211 18.853 95.5384L35.3457 90.3769L30.8082 72.347L15.5099 74.033Z" fill="#5C5D9D"/>
<path d="M41.3005 135.255L36.4449 138.999C36.4449 138.999 29.3743 127.131 24.7914 119.631C23.3905 117.337 22.221 115.453 21.5556 114.436C18.7166 110.101 16.3818 102.522 16.6545 99.3278C16.9273 96.1334 23.5268 88.1413 23.5268 88.1413C29.0685 85.8147 38.6888 93.4845 38.6888 93.4845C38.6888 93.4845 29.118 100.696 27.7874 102.431C26.9278 103.551 28.7007 105.543 29.1842 106.601C30.6181 109.754 31.7628 113.027 32.829 116.32C34.1431 120.37 35.1762 124.511 37.3251 128.23C37.6392 128.772 41.5361 135.074 41.3005 135.255Z" fill="#F79176"/>
<path d="M44.0941 67.231C44.0941 67.231 48.7679 73.2603 48.7225 78.7812C48.6811 83.5377 40.2261 95.3276 37.8706 98.5179C37.6185 98.8608 37.0896 98.7947 36.9326 98.398C36.3912 97.0426 35.1969 94.4556 33.2381 92.3398C30.4446 89.3273 23.7541 88.5958 22.7458 88.9636C21.7375 89.3273 30.3991 75.1323 30.3991 75.1323L44.0941 67.231Z" fill="#5C5D9D"/>
<mask id="mask2_193_1129" style="mask-type:luminance" maskUnits="userSpaceOnUse" x="48" y="40" width="15" height="36">
<path d="M48.5942 40.1055H63V75.748H48.5942V40.1055Z" fill="white"/>
</mask>
<g mask="url(#mask2_193_1129)">
<path d="M55.7311 40.2997C55.7311 40.2997 61.7769 47.8291 62.81 50.0234C63.839 52.2136 60.3925 75.2686 60.5992 75.5455C60.8058 75.8182 56.3551 75.5455 56.3551 75.5455C56.3551 75.5455 56.351 55.7055 55.1815 54.4741C54.012 53.2426 48.7225 47.2836 48.7225 47.2836L55.7311 40.2997Z" fill="#F79176"/>
</g>
<path d="M60.5247 75.1281C60.5247 75.1281 61.5661 80.9218 61.5661 81.2483C61.5661 81.5748 55.1856 81.2483 55.1856 81.2483L56.4377 75.1281H60.5247Z" fill="#F79176"/>
<path d="M56.3551 75.5455C56.3551 75.5455 53.7269 78.5457 53.6359 79.7937C53.5492 81.0417 54.231 83.7733 54.4707 84.0708C54.7104 84.3683 56.0865 83.7857 56.1113 82.4591C56.1402 81.1285 55.2187 80.3846 55.9047 79.6119C56.5906 78.8432 56.3551 75.5455 56.3551 75.5455Z" fill="#F79176"/>
<path d="M61.4752 80.5871C61.4752 80.5871 61.9174 82.2979 61.719 83.0707C61.5165 83.8435 60.5041 85.546 60.2851 85.451C60.0661 85.3477 59.9049 86.5544 58.9957 86.5296C58.2808 87.1866 57.4626 87.3519 57.1444 87.0337C56.8262 86.7155 58.7767 80.9714 58.7767 80.9714L61.4752 80.5871Z" fill="#F79176"/>
<path d="M56.2517 80.3763C56.2517 80.4755 56.5658 83.3889 56.2517 83.7236C55.9335 84.0625 54.0656 86.5585 55.1855 86.9552C56.3096 87.3519 57.3344 85.6783 57.3344 85.6783C57.3344 85.6783 58.2187 83.3476 58.3799 83.05C58.5369 82.7525 58.8138 80.5747 58.8138 80.5747L56.2517 80.3763Z" fill="#F79176"/>
<path d="M4.57122 37.7872C4.57122 37.7872 -1.11091 51.2094 0.194948 56.9618C1.50081 62.7142 6.33165 58.466 7.50527 57.3048C8.67889 56.1395 12.3361 44.4281 12.3361 44.4281L4.57122 37.7872Z" fill="#F79176"/>
<path d="M30.9032 26.58C30.9032 26.58 41.0277 27.423 44.5982 28.9313C48.1727 30.4356 57.0369 40.8452 57.3096 40.9816C57.5865 41.118 54.8384 48.106 49.5447 50.7053C49.5447 50.7053 45.0362 44.6099 44.2676 44.4735C43.4989 44.3372 41.9203 55.6353 42.8129 56.1849C43.7056 56.7345 44.2552 57.3503 43.7758 57.966C43.2923 58.5817 43.937 60.0198 44.2676 60.6356C44.5982 61.2513 43.3626 63.1027 43.4328 63.7845C43.4989 64.4705 45.2883 66.5946 44.9453 67.4831C44.5982 68.3757 43.1559 70.632 38.8954 72.004C34.6348 73.3718 31.6098 77.3472 28.1055 76.934C24.6012 76.5249 16.1503 75.8389 15.1874 74.6074C14.2287 73.3718 17.9355 62.896 17.5264 61.3216C17.1132 59.7471 14.0221 43.585 14.0221 43.585L9.5549 29.8901C9.5549 29.8901 10.9062 27.7536 15.2329 27.1048C19.5637 26.456 30.9032 26.58 30.9032 26.58Z" fill="#CBD1E4"/>
<path d="M10.4269 29.3074C10.4269 29.3074 5.39357 31.8365 2.31075 42.1098C2.19504 42.4941 2.33555 42.9115 2.65788 43.1346L11.6997 49.4077C11.6997 49.4077 16.9727 41.6676 16.9727 41.1882C16.9727 40.7089 10.4269 29.3074 10.4269 29.3074Z" fill="#CBD1E4"/>
<path d="M18.6919 49.1226C18.5597 50.04 18.6175 51.6764 17.572 52.0897C16.5967 52.474 15.3818 52.0112 14.4189 51.788C12.9271 51.445 11.5055 50.8541 10.1212 50.2135C9.81124 50.0689 9.50957 49.9201 9.2079 49.7631C8.60869 49.4532 8.02188 49.1143 7.45987 48.7465C5.55894 47.5068 3.88116 45.9406 2.63729 44.0231C1.25292 41.8908 0.467747 39.4278 0.219801 36.907C0.207403 36.7583 0.195006 36.6095 0.182609 36.4648C0.124755 35.6631 0.116488 34.8615 0.153681 34.0639C0.228065 32.4192 0.500807 30.7868 0.938849 29.2041C0.988438 29.0306 1.02976 28.8281 1.07935 28.6173C1.22812 27.985 1.43061 27.2743 1.98436 27.0387C2.71994 26.7288 3.66627 26.9478 4.42251 27.0594C5.27793 27.1916 6.12095 27.3858 6.94745 27.642C8.16652 28.0181 9.34427 28.5305 10.4518 29.1628C10.8444 29.3859 11.2287 29.6256 11.6047 29.8818C11.8527 30.0513 12.0965 30.2248 12.3362 30.4108C13.0594 30.9687 13.7329 31.5885 14.3528 32.2663C17.072 35.2458 18.4398 38.8575 18.8448 42.6511C18.9068 43.2049 18.944 43.7586 18.9646 44.3207C19.0184 45.9116 18.9192 47.5233 18.6919 49.1226Z" fill="#B05B4F"/>
<path d="M18.6588 13.5338C18.6588 13.4884 17.7786 9.00876 18.4191 8.15335C19.0597 7.30206 19.9068 7.27726 19.9068 7.27726C19.9068 7.27726 21.068 8.67817 21.0722 8.71536C21.0763 8.75668 19.196 13.5338 19.196 13.5338H18.6588Z" fill="#964A47"/>
<path d="M31.0397 20.9392C31.1265 20.9433 31.9654 19.6457 32.4199 17.877C32.5976 17.1704 32.9654 16.5257 33.1514 15.8232C33.3249 15.1703 33.4902 14.6579 33.639 13.8934C33.858 12.7652 34.1886 11.5998 34.2052 10.4262C34.2258 9.14103 33.7795 8.16577 32.9034 7.24423C32.5398 6.86404 32.0439 7.16158 31.5562 7.28969C31.3496 7.34754 28.7172 8.00874 28.7255 8.04593C28.7255 8.05006 31.0397 20.9392 31.0397 20.9392Z" fill="#964A47"/>
<path d="M25.436 24.365H24.6839C21.8697 24.365 20.2993 22.6128 19.4274 19.9061C18.7249 17.7241 18.8943 15.4058 18.8406 13.1495C18.8199 12.3602 18.8034 11.5709 18.7869 10.7775C18.7869 9.33111 19.9729 8.15336 21.4358 8.15336H28.3411C29.9982 8.15336 31.3371 9.48401 31.3371 11.1205V18.5217C31.3371 21.7492 28.6965 24.365 25.436 24.365Z" fill="#F79176"/>
<path d="M31.0975 12.9966C31.0975 12.9966 32.424 11.8354 33.1389 12.9966C33.8456 14.1619 32.8827 18.3853 31.0975 17.2406C29.3123 16.1001 31.0975 12.9966 31.0975 12.9966Z" fill="#F79176"/>
<path d="M31.5439 17.1869C31.5439 17.1869 30.3413 25.8816 31.5439 26.6006C32.7464 27.3197 33.6721 27.2536 33.7754 27.5594C33.8787 27.8693 31.0976 33.2787 26.3204 32.9026C20.3201 32.5348 19.0349 28.0181 19.2663 27.6544C19.4936 27.2866 21.0309 27.018 21.5103 26.518C21.9896 26.0138 21.5309 22.2657 21.5309 22.2657L31.5439 17.1869Z" fill="#F79176"/>
<path d="M31.6429 12.4015C31.4074 13.1701 31.2545 13.9553 31.1759 14.7529C31.1305 15.195 31.0685 15.5587 30.961 15.4223C30.8743 15.3149 30.8288 15.162 30.7834 15.038C30.6924 14.7735 30.6139 14.5091 30.5561 14.2404C30.5065 13.9842 30.4982 13.7363 30.5065 13.4718C30.5271 12.728 30.7544 12.0172 30.7544 11.2733C30.7586 10.7485 30.6635 10.2072 30.3536 9.76912C30.2875 9.66994 30.2089 9.57903 30.1222 9.49638C29.0229 8.41781 28.2667 8.52938 27.0063 8.55005C25.7459 8.57071 21.4523 8.98809 20.1919 8.63683C19.5761 8.61616 18.791 10.5873 18.791 10.5873L18.9687 8.66162L20.3406 7.47561C20.3406 7.47561 22.3118 6.35158 22.8614 6.28546C23.411 6.21934 26.2583 5.07465 26.2583 5.07465L29.7337 7.93431L32.2297 8.57071L31.7297 12.1205L31.6429 12.4015Z" fill="#964A47"/>
<path d="M19.2498 13.4388C19.2498 13.4388 18.4523 12.7528 18.2622 13.0421C18.0762 13.3355 17.9481 18.1374 19.1713 18.7325C20.3945 19.3234 19.2498 13.4388 19.2498 13.4388Z" fill="#F79176"/>
<path d="M21.5102 14.1743C21.5102 14.6744 21.316 15.0835 21.0721 15.0835C20.8283 15.0835 20.6341 14.6744 20.6341 14.1743C20.6341 13.6702 20.8283 13.2652 21.0721 13.2652C21.316 13.2652 21.5102 13.6702 21.5102 14.1743Z" fill="#372F2E"/>
<path d="M26.6839 13.9636C26.6839 14.4677 26.4856 14.8727 26.2459 14.8727C26.0021 14.8727 25.8079 14.4677 25.8079 13.9636C25.8079 13.4636 26.0021 13.0544 26.2459 13.0544C26.4856 13.0544 26.6839 13.4636 26.6839 13.9636Z" fill="#372F2E"/>
<path d="M23.8368 18.0465C23.5351 18.0465 22.9689 17.9803 22.5392 17.563C21.9358 16.9761 22.659 14.6909 22.7417 14.4347C22.7582 14.381 22.816 14.352 22.8656 14.3727C22.9193 14.3892 22.9483 14.4429 22.9317 14.4967C22.7169 15.1661 22.2458 16.9968 22.6797 17.4183C23.2086 17.9349 24.0062 17.8357 24.0145 17.8357C24.0682 17.8316 24.1178 17.8688 24.126 17.9225C24.1343 17.9762 24.0971 18.0258 24.0434 18.0341C24.031 18.0341 23.9525 18.0465 23.8368 18.0465Z" fill="#CD664E"/>
<path d="M25.7996 20.2532C25.2748 20.4102 24.7293 20.5094 24.1797 20.5218C23.7292 20.5383 23.2333 20.5135 22.8242 20.2945C22.6176 20.1829 22.444 20.0218 22.3242 19.8193C22.2994 19.7779 22.2746 19.7325 22.2539 19.6829C22.2374 19.6498 22.225 19.6127 22.2126 19.5755C22.163 19.4226 22.1547 19.2531 22.2787 19.1498C22.2829 19.1457 22.2829 19.1416 22.287 19.1416C22.4151 19.0465 22.6713 19.0341 22.8242 19.0217C23.0226 19.0052 23.2168 19.0093 23.411 19.0176C23.7457 19.03 24.0846 19.0506 24.4111 18.9886C24.7747 18.9225 25.126 18.8192 25.4896 18.782C25.8285 18.749 26.155 18.7614 26.3699 19.0548C26.4029 19.0961 26.4236 19.1416 26.4442 19.1829C26.6633 19.6457 26.2624 20.1127 25.7996 20.2532Z" fill="#CD664E"/>
<path d="M25.1467 11.1742C25.4649 10.9841 26.0311 10.9427 26.3079 10.9303C26.7336 10.9097 27.2501 10.9799 27.5105 11.3519C28.0229 12.0916 25.9154 12.1618 25.5806 12.104C25.3864 12.0709 25.1922 11.9882 25.0558 11.8395C24.9442 11.7114 24.8822 11.5213 24.9566 11.3684C24.9938 11.294 25.0641 11.2279 25.1467 11.1742Z" fill="#86413B"/>
<path d="M19.9647 11.5337C20.2829 11.3436 20.8491 11.3023 21.1218 11.2899C21.5475 11.2692 22.0681 11.3353 22.3244 11.7073C22.8409 12.4511 20.7334 12.5214 20.3986 12.4635C20.2003 12.4305 20.006 12.3478 19.8738 12.199C19.7581 12.0709 19.6961 11.8808 19.7746 11.7279C19.8118 11.6494 19.8779 11.5874 19.9647 11.5337Z" fill="#86413B"/>
<path d="M26.4442 19.1829C25.5558 19.625 23.4234 19.7614 22.2126 19.5755C22.163 19.4226 22.1547 19.2531 22.2787 19.1498C22.2829 19.1457 22.2829 19.1416 22.287 19.1416C22.4151 19.0465 22.6713 19.0341 22.8242 19.0217C23.0226 19.0052 23.2168 19.0093 23.411 19.0176C23.7457 19.03 24.0846 19.0506 24.4111 18.9886C24.7747 18.9225 25.126 18.8192 25.4896 18.782C25.8285 18.749 26.155 18.7614 26.3699 19.0548C26.4029 19.0961 26.4236 19.1416 26.4442 19.1829Z" fill="#F7E9E4"/>
<mask id="mask3_193_1129" style="mask-type:luminance" maskUnits="userSpaceOnUse" x="16" y="0" width="23" height="10">
<path d="M16.857 0H38.0152V9.71128H16.857V0Z" fill="white"/>
</mask>
<g mask="url(#mask3_193_1129)">
<path d="M35.3621 2.87207C34.4571 2.7357 33.5315 2.81422 32.6223 2.69851C31.1057 2.50015 29.7337 1.77697 28.3494 1.15297C26.965 0.528964 25.4566 -0.0165197 23.9442 0.190103C23.0805 0.305812 22.2622 0.694262 21.601 1.26041C20.8655 1.89268 20.5101 2.63652 20.1919 3.53326C19.4232 3.33077 18.5596 3.50434 17.9273 3.98783C16.7537 4.88458 17.0801 6.35987 17.9232 7.53762C18.1215 7.81863 17.9975 8.13269 18.105 8.43436C18.1628 8.59966 18.3033 8.73603 18.481 8.75669C18.6877 8.77322 18.8447 8.63272 19.0141 8.54181C19.2166 8.43436 19.4315 8.35584 19.6547 8.30212C20.2456 8.16575 20.7746 8.28972 21.3531 8.41783C21.6796 8.48808 22.0102 8.579 22.3449 8.52941C23.0102 8.43436 23.4028 7.7649 24.002 7.48389C24.531 7.23595 25.1632 7.31446 25.7087 7.52522C26.2501 7.73597 26.7336 8.06657 27.246 8.33518C29.118 9.31871 31.4652 9.42615 33.4323 8.62032C34.7133 8.0955 35.3167 6.87642 36.1142 5.78545C36.5358 5.20691 37.4036 4.91351 37.5937 4.23165C37.2052 3.43408 36.2671 3.01257 35.3621 2.87207Z" fill="#86413B"/>
</g>
<path d="M24.2706 24.3567C24.2623 24.3567 24.2499 24.3567 24.2375 24.3567C23.316 24.3237 21.9729 23.7079 21.9151 23.679C21.8655 23.6542 21.8448 23.5964 21.8655 23.5468C21.8903 23.4972 21.9481 23.4724 21.9977 23.4972C22.0143 23.5055 23.3656 24.1253 24.2458 24.1542C25.1012 24.1873 28.3535 22.7947 29.2461 21.5632C29.2791 21.5177 29.3411 21.5053 29.3866 21.5384C29.432 21.5715 29.4403 21.6334 29.4072 21.6789C28.4733 22.9682 25.2293 24.3567 24.2706 24.3567Z" fill="#CD664E"/>
<path d="M31.5563 15.1331H31.5521C31.4984 15.1331 31.4529 15.0876 31.4529 15.0339C31.4529 14.9637 31.6596 13.7281 32.0935 13.447C32.2009 13.3727 32.3249 13.3644 32.4406 13.414C32.4902 13.4346 32.515 13.4966 32.4902 13.5462C32.4695 13.5958 32.4117 13.6165 32.358 13.5958C32.3042 13.5752 32.2588 13.5793 32.2092 13.6082C31.8786 13.8107 31.6637 14.9058 31.6554 15.038C31.6513 15.0876 31.61 15.1331 31.5563 15.1331Z" fill="#CD664E"/>
<path d="M31.6017 14.8603C31.5852 14.8603 31.5645 14.8562 31.5439 14.8438C31.4984 14.8108 31.4902 14.7488 31.5232 14.7033C31.7009 14.4471 32.0356 14.0173 32.2464 14.0173C32.2505 14.0173 32.2547 14.0173 32.2547 14.0173C32.3125 14.0173 32.3538 14.0669 32.3497 14.1206C32.3497 14.1744 32.3043 14.2157 32.2464 14.2157C32.1679 14.2239 31.9034 14.5049 31.6844 14.819C31.6637 14.8479 31.6348 14.8603 31.6017 14.8603Z" fill="#CD664E"/>
<path d="M45.3545 144.008C45.0817 146.268 45.3545 148.736 43.5692 150.207C41.784 151.678 40.6145 151.851 40.2715 151.678C40.2261 151.657 40.1476 151.529 40.0525 151.322C39.4657 150.099 38.0979 146.049 37.5152 144.033C37.4656 143.859 37.4201 143.702 37.383 143.566C37.3375 143.384 37.2714 143.19 37.1929 142.996C37.0689 142.665 36.9077 142.318 36.7259 141.958C36.5854 141.673 36.4284 141.384 36.2672 141.095C35.387 139.491 34.3621 137.871 34.4282 137.057C34.5357 135.805 35.5977 134.082 37.2796 134.867C38.9657 135.656 39.193 136.045 39.7426 135.379C39.7426 135.379 39.6517 132.685 39.1351 131.681C39.0111 131.441 40.6352 132.23 41.9948 133.061C42.6808 133.478 43.3048 133.908 43.6023 134.218C44.4949 135.14 44.1519 137.404 43.9122 138.669C43.6767 139.933 45.6272 141.748 45.3545 144.008Z" fill="#5C5D9D"/>
<path d="M45.3544 144.008C45.0817 146.268 45.3544 148.736 43.5692 150.207C41.784 151.678 40.6145 151.851 40.2715 151.678C40.226 151.657 40.1475 151.529 40.0525 151.322C40.4492 151.277 41.5815 151.083 42.3294 150.376C43.2592 149.504 44.7511 145.723 44.4287 144.111C44.1023 142.504 43.7056 140.962 43.2758 140.293C42.846 139.628 42.4162 138.582 42.5733 137.52C42.7262 136.458 42.7262 134.251 41.9947 133.061C42.6807 133.478 43.3047 133.908 43.6022 134.218C44.4949 135.14 44.1519 137.404 43.9122 138.669C43.6766 139.933 45.6271 141.748 45.3544 144.008Z" fill="#372F2E"/>
<path d="M39.1351 131.784C39.1062 131.784 39.0773 131.768 39.0566 131.743C37.3044 129.379 31.6347 113.118 30.4859 108.527C29.9156 106.254 28.8205 105.006 28.0973 104.175C27.6345 103.642 27.3245 103.291 27.3576 102.923C27.3741 102.721 27.494 102.539 27.7254 102.353C29.0395 101.295 34.3993 96.6624 34.453 96.6169C34.4944 96.5797 34.5564 96.5839 34.5935 96.6252C34.6307 96.6706 34.6266 96.7326 34.5853 96.7657C34.5316 96.8153 29.1676 101.448 27.8494 102.51C27.6634 102.659 27.5684 102.795 27.556 102.94C27.5312 103.225 27.8328 103.568 28.2502 104.047C28.9858 104.886 30.0974 106.159 30.6801 108.477C31.7959 112.94 37.5235 129.338 39.2178 131.623C39.2508 131.668 39.2426 131.73 39.1971 131.764C39.1806 131.776 39.1558 131.784 39.1351 131.784Z" fill="#CD664E"/>
<path d="M23.5269 87.914C24.5146 86.8643 25.5064 85.8105 26.4279 84.6948C27.3536 83.5831 28.1057 82.3186 29.0892 81.2524C30.0686 80.1863 31.1844 79.2317 32.2712 78.2688C33.3911 77.2687 34.5358 76.2935 35.6929 75.3389C35.8169 75.2397 35.6433 75.0703 35.5234 75.1653C34.3622 76.1241 33.2175 77.0993 32.0976 78.0952C31.0149 79.0581 29.895 80.0127 28.9156 81.0789C27.9362 82.1492 27.18 83.4096 26.2543 84.5253C25.3328 85.637 24.3451 86.6908 23.3575 87.7445C23.25 87.8561 23.4195 88.0297 23.5269 87.914Z" fill="#4E5184"/>
<path d="M26.6097 84.2195C26.1758 82.8724 25.4402 81.6615 24.4443 80.6532C24.3327 80.5417 24.1591 80.7152 24.2707 80.8268C25.2377 81.8062 25.9526 82.9757 26.3741 84.2815C26.4237 84.4303 26.6593 84.3683 26.6097 84.2195Z" fill="#4E5184"/>
<path d="M55.3881 54.594C55.384 54.594 55.3798 54.594 55.3757 54.594C55.322 54.5898 55.2807 54.5402 55.2889 54.4824C55.2931 54.4535 55.7022 51.164 59.0371 50.6061C59.0908 50.5979 59.1445 50.6351 59.1528 50.6888C59.161 50.7466 59.1239 50.7962 59.0701 50.8045C55.8799 51.3335 55.4914 54.4741 55.4873 54.5072C55.479 54.5568 55.4377 54.594 55.3881 54.594Z" fill="#CD664E"/>
<path d="M55.8633 81.2318C55.8219 81.2318 55.7848 81.207 55.7682 81.1698C55.5864 80.7235 55.45 79.7854 56.2435 79.4466C56.293 79.4218 56.3509 79.4466 56.3716 79.4962C56.3964 79.5458 56.3716 79.6036 56.322 79.6284C55.512 79.9755 55.9377 81.05 55.9542 81.0954C55.9748 81.145 55.9501 81.2029 55.9005 81.2235C55.8881 81.2277 55.8757 81.2318 55.8633 81.2318Z" fill="#CD664E"/>
<path d="M57.3345 85.7775C57.3138 85.7775 57.2973 85.7733 57.2766 85.761C57.2311 85.732 57.2188 85.67 57.2477 85.6246C57.5452 85.1659 58.3263 83.9055 58.38 83.5294C58.4461 83.0666 58.2808 81.1574 58.2767 81.1409C58.2725 81.0871 58.3139 81.0375 58.3676 81.0334C58.4254 81.0293 58.4709 81.0665 58.475 81.1202C58.4833 81.2028 58.6486 83.0707 58.5783 83.5542C58.5081 84.0542 57.4626 85.6659 57.4171 85.732C57.3964 85.761 57.3634 85.7775 57.3345 85.7775Z" fill="#CD664E"/>
<path d="M58.8758 86.6081C58.8551 86.6081 58.8386 86.604 58.8221 86.5957C58.7766 86.5668 58.7601 86.5048 58.789 86.4593C58.8014 86.4387 59.8635 84.6659 59.9957 83.8352C60.1279 83.0046 59.8965 81.3144 59.8924 81.2979C59.8841 81.24 59.9254 81.1905 59.9792 81.1822C60.0329 81.1781 60.0825 81.2153 60.0907 81.269C60.1031 81.3392 60.3304 83.0046 60.1941 83.8683C60.0536 84.7361 59.0039 86.4841 58.9626 86.5585C58.9419 86.5916 58.9089 86.6081 58.8758 86.6081Z" fill="#CD664E"/>
<path d="M60.2395 85.4634C60.223 85.4634 60.2023 85.4593 60.1858 85.451C60.1403 85.4221 60.1238 85.3601 60.1527 85.3105C60.3759 84.9427 60.9668 83.9055 61.0081 83.5707C61.0577 83.1534 61.0081 81.9384 61.0081 81.926C61.004 81.8723 61.0495 81.8268 61.1032 81.8227C61.1569 81.8144 61.2065 81.864 61.2065 81.9177C61.2106 81.9673 61.2602 83.1616 61.2065 83.5955C61.1528 84.0377 60.3593 85.3601 60.3263 85.4138C60.3056 85.4469 60.2726 85.4634 60.2395 85.4634Z" fill="#CD664E"/>
<path d="M22.816 3.244C23.7292 2.69439 24.6219 2.339 25.6922 2.64893C26.6344 2.92167 27.4237 3.52914 28.2088 4.08703C28.8742 4.55813 29.5725 5.02096 30.3701 5.23585C31.2421 5.46727 32.1181 5.30197 32.9694 5.05815C33.0851 5.02509 33.0355 4.8474 32.9198 4.88046C31.8289 5.19039 30.7958 5.28957 29.7378 4.80607C28.8948 4.41762 28.184 3.80602 27.4113 3.29773C26.7212 2.83902 25.9484 2.42578 25.1095 2.34726C24.221 2.25635 23.4648 2.63653 22.7209 3.07871C22.6176 3.14069 22.7127 3.30599 22.816 3.244Z" fill="#72322F"/>
<path d="M21.5185 5.71935C21.8739 6.85165 22.8988 7.09546 23.9608 7.19051C24.7088 7.26076 25.3204 7.42193 25.9692 7.79385C26.4981 8.09552 26.9982 8.40958 27.6056 8.52116C27.7213 8.54596 27.7709 8.36413 27.6552 8.34346C26.5932 8.14097 25.8039 7.29382 24.7377 7.09546C23.5765 6.88057 22.1384 7.06653 21.6962 5.66976C21.6631 5.55405 21.4813 5.60364 21.5185 5.71935Z" fill="#72322F"/>
<path d="M31.614 3.3473C32.7298 3.92584 33.9571 3.35969 35.1308 3.57871C35.2465 3.59938 35.3002 3.42168 35.1804 3.39689C34.0357 3.182 32.7918 3.74815 31.7091 3.18613C31.6016 3.12828 31.5066 3.29357 31.614 3.3473Z" fill="#72322F"/>
<path d="M20.2374 3.87625C20.4027 4.28536 20.5763 4.69861 20.9234 4.99201C21.0143 5.0664 21.1507 4.93416 21.0557 4.85564C20.7333 4.58703 20.5722 4.20685 20.4151 3.82666C20.3738 3.71508 20.192 3.76467 20.2374 3.87625Z" fill="#72322F"/>
<path d="M19.3241 4.48373C18.6009 4.64076 18.1835 5.32262 18.3571 6.0334C18.386 6.14911 18.5678 6.09952 18.5389 5.98381C18.3901 5.36394 18.7497 4.7978 19.3737 4.66556C19.4894 4.64076 19.4398 4.45893 19.3241 4.48373Z" fill="#72322F"/>
<path d="M35.077 7.21944C35.6349 6.63677 35.8126 5.6739 36.0729 4.93832C36.1101 4.82262 35.9324 4.77716 35.8911 4.88873C35.6431 5.58712 35.4696 6.54172 34.9447 7.0872C34.8621 7.17399 34.9943 7.30622 35.077 7.21944Z" fill="#72322F"/>
<path d="M40.4161 39.3617C41.8914 40.9609 43.1931 42.7048 44.313 44.5686C44.3916 44.7008 44.6064 44.581 44.5238 44.4446C43.3915 42.5643 42.0774 40.8039 40.5897 39.1881C40.4823 39.0724 40.3087 39.246 40.4161 39.3617Z" fill="#ABB5CE"/>
<path d="M42.9122 58.4661C41.9286 59.7347 40.4368 60.4496 39.3128 61.5737C39.2012 61.6811 39.3748 61.8547 39.4864 61.7431C40.6269 60.6025 42.127 59.8794 43.1229 58.59C43.218 58.4661 43.0072 58.3421 42.9122 58.4661Z" fill="#ABB5CE"/>
<path d="M39.6681 61.5861C40.5897 60.6645 41.9658 60.6397 43.1353 60.2265C43.2799 60.1728 43.2179 59.9372 43.0691 59.9909C41.8542 60.4207 40.4533 60.4538 39.4946 61.4125C39.3871 61.5241 39.5565 61.6976 39.6681 61.5861Z" fill="#ABB5CE"/>
<path d="M18.1547 59.3008C18.7043 61.7265 20.9276 63.1357 22.4194 64.9581C22.5186 65.078 22.6921 64.9044 22.593 64.7846C21.1259 62.9993 18.9275 61.615 18.3902 59.2347C18.3531 59.0818 18.1175 59.1479 18.1547 59.3008Z" fill="#ABB5CE"/>
<path d="M39.6186 139.487C39.5938 139.549 39.5442 139.599 39.4905 139.648C39.0938 140.02 38.5607 140.231 38.0937 140.524C37.5234 140.892 37.0482 141.388 36.7259 141.958C36.5854 141.673 36.4283 141.384 36.2672 141.095C36.5482 140.628 36.9366 140.219 37.4036 139.909C37.9656 139.528 38.6392 139.293 39.3293 139.235C39.4244 139.227 39.536 139.227 39.5979 139.297C39.6434 139.347 39.6434 139.425 39.6186 139.487Z" fill="#F7E9E4"/>
<path d="M40.3501 142.124C40.251 142.227 40.0981 142.272 39.9534 142.318C38.9947 142.599 38.0401 143.099 37.5855 143.938C37.569 143.971 37.5442 144.008 37.5153 144.033C37.4657 143.859 37.4202 143.702 37.383 143.566C37.3376 143.384 37.2714 143.19 37.1929 142.996C37.8955 142.165 39.0319 141.669 40.16 141.719C40.2179 141.723 40.2757 141.727 40.3253 141.752C40.4576 141.822 40.4493 142.016 40.3501 142.124Z" fill="#F7E9E4"/>
<path d="M53.2393 157.662C53.2434 157.728 53.1979 157.79 53.1401 157.827C53.0781 157.86 53.0079 157.868 52.9376 157.877C52.3921 157.922 51.8425 157.765 51.2929 157.711C50.7267 157.662 50.1565 157.724 49.6275 157.901C49.6854 157.587 49.7267 157.269 49.7556 156.959C50.1937 156.823 50.6647 156.769 51.1276 156.802C51.8053 156.848 52.483 157.075 53.0657 157.451C53.1442 157.5 53.231 157.571 53.2393 157.662Z" fill="#F7E9E4"/>
<path d="M52.0944 160.352C51.9457 160.377 51.801 160.319 51.6605 160.265C50.772 159.914 49.7596 159.728 48.9042 160.05C48.9744 159.943 49.0405 159.823 49.0984 159.695C49.1893 159.492 49.2678 159.282 49.3381 159.067C50.3299 158.939 51.4043 159.253 52.1895 159.918C52.2349 159.959 52.2763 159.996 52.3011 160.046C52.3589 160.182 52.2349 160.331 52.0944 160.352Z" fill="#F7E9E4"/>
<path d="M39.1104 135.826C39.3625 136.727 39.2798 137.648 39.3294 138.574C39.3749 139.388 39.6104 140.095 39.9451 140.834C40.3625 141.735 40.5898 142.578 40.2468 143.553C39.9121 144.508 39.1641 145.306 38.1103 145.396C37.9533 145.409 37.9533 145.653 38.1103 145.636C39.8708 145.492 40.9865 143.516 40.6022 141.876C40.3625 140.838 39.7055 139.983 39.598 138.9C39.4906 137.851 39.6311 136.793 39.3459 135.764C39.3046 135.611 39.0691 135.677 39.1104 135.826Z" fill="#4E5184"/>
<path d="M52.14 153.525C52.5119 154.285 52.6855 155.178 52.9417 155.98C53.264 156.992 53.1979 157.856 52.7557 158.823C52.4086 159.583 52.1152 160.385 51.2887 160.744C50.8589 160.93 50.363 160.984 49.9043 161.005C49.5696 161.017 48.8175 161.1 48.6481 160.703C48.5902 160.558 48.3547 160.62 48.4125 160.765C48.7059 161.459 49.8589 161.278 50.4416 161.199C51.4995 161.054 52.2061 160.587 52.6648 159.612C53.1029 158.678 53.5574 157.744 53.3756 156.686C53.2764 156.108 53.0409 155.566 52.8756 155.009C52.7103 154.467 52.6028 153.913 52.3507 153.405C52.2805 153.265 52.0697 153.389 52.14 153.525Z" fill="#4E5184"/>
<path d="M12.3362 30.4108C7.91031 31.5183 3.73239 33.5969 0.182609 36.4648C0.124755 35.6631 0.116488 34.8614 0.153681 34.0639C3.15798 31.6877 6.70776 29.9975 10.4518 29.1628C10.8444 29.3859 11.2287 29.6256 11.6047 29.8818C11.8527 30.0512 12.0965 30.2248 12.3362 30.4108Z" fill="#F7E9E4"/>
<path d="M18.8447 42.6511C14.613 43.6718 10.65 45.7918 7.45975 48.7465C8.02176 49.1143 8.60857 49.4531 9.20778 49.7631C12.1005 47.391 15.4189 45.5356 18.9645 44.3206L18.8447 42.6511Z" fill="#F7E9E4"/>
<path d="M10.2822 45.548C9.28214 43.8041 8.40192 41.9982 7.56303 40.1716C6.73654 38.3699 5.81914 36.564 5.30671 34.6424C5.12488 33.9605 4.06284 34.2498 4.24467 34.9317C4.76123 36.8615 5.67863 38.6798 6.50512 40.4898C7.37707 42.3949 8.28621 44.2793 9.33173 46.1017C9.68299 46.7133 10.6335 46.1637 10.2822 45.548Z" fill="#F7E9E4"/>
<path d="M7.0135 35.3243C5.90187 35.8036 4.83156 36.3533 3.79018 36.9731C3.41412 37.2004 3.75712 37.7955 4.13731 37.5641C5.17869 36.9442 6.24899 36.3946 7.36062 35.9152C7.76561 35.7417 7.41848 35.1507 7.0135 35.3243Z" fill="#F7E9E4"/>
<path d="M7.85241 38.746C6.86889 39.1344 5.96801 39.6675 5.15392 40.3411C4.81092 40.6221 5.2531 41.1469 5.59609 40.8659C6.36886 40.2254 7.21602 39.7295 8.14582 39.3617C8.55906 39.2005 8.26566 38.5807 7.85241 38.746Z" fill="#F7E9E4"/>
<path d="M15.9438 36.1425C15.8199 35.6673 15.8364 34.8821 15.4521 34.7127C15.3157 34.6548 15.1835 34.6259 15.0636 34.6424C15.0554 34.1754 15.0182 33.7043 14.9314 33.4523C14.7661 32.977 13.5801 32.5183 13.5801 32.5183C13.0139 31.3736 12.2453 31.324 11.9064 31.3654C11.7535 31.1339 11.6006 30.9025 11.4643 30.6794C10.7783 29.5595 9.92698 31.5472 10.6543 32.3737C11.0097 32.7787 11.0551 33.3242 11.0138 33.7787L9.9807 37.2417C9.57985 37.031 9.18727 36.5557 9.10462 35.5309C8.91453 34.63 7.81529 33.4936 7.41857 34.2085C7.02599 34.9234 7.28633 38.1798 8.25333 39.0807C8.61699 39.4237 8.93932 39.684 9.19553 39.8741L9.1914 39.8948L9.17487 39.8865C5.50938 44.4074 0.562823 52.7137 0.562823 52.7137C-0.168623 55.9576 1.4761 59.2884 1.9224 59.8421C2.36871 60.4 5.55483 59.7016 7.61693 58.0569C9.67903 56.4122 12.7577 42.0065 12.7577 42.0065L12.7536 42.0023L15.3033 38.0186L15.324 38.0228C15.3405 38.0062 15.4025 37.8988 15.4769 37.7459C15.6918 37.312 16.0348 36.4937 15.9438 36.1425Z" fill="#F79176"/>
<path d="M0.653572 54.8006C0.59985 54.8006 0.554393 54.7592 0.554393 54.7096C0.34777 51.2177 5.21994 45.1265 5.4307 44.8703C5.46376 44.8289 5.52574 44.8207 5.56707 44.8537C5.61253 44.8909 5.62079 44.9529 5.5836 44.9942C5.53401 45.0604 0.550261 51.2797 0.752751 54.6931C0.756884 54.751 0.71556 54.7964 0.657705 54.8006H0.653572Z" fill="#CD664E"/>
<path d="M12.7618 35.6631C12.7536 35.6631 12.7453 35.6631 12.7412 35.6631C12.6874 35.6507 12.6503 35.597 12.6627 35.5433C12.6668 35.5268 13.0346 33.8944 12.9561 33.4192C12.8899 33.0308 12.1378 31.9109 11.8527 31.5141C11.8238 31.4687 11.832 31.4067 11.8775 31.3736C11.9229 31.3406 11.9849 31.353 12.018 31.3984C12.0593 31.4563 13.0676 32.8696 13.1544 33.3903C13.2412 33.9027 12.8734 35.5185 12.861 35.5887C12.8486 35.6342 12.8073 35.6631 12.7618 35.6631Z" fill="#CD664E"/>
<path d="M13.9189 35.9731C13.9106 35.9731 13.9024 35.9731 13.8941 35.9731C13.8404 35.9565 13.8073 35.9028 13.8238 35.8491C13.828 35.8367 14.1875 34.5102 14.0759 33.9068C13.9602 33.2952 13.5842 32.6878 13.58 32.6795C13.5511 32.634 13.5676 32.5721 13.6131 32.5431C13.6627 32.5142 13.7247 32.5307 13.7495 32.5762C13.7701 32.601 14.1503 33.2209 14.2702 33.8697C14.3941 34.5184 14.0305 35.845 14.0181 35.9028C14.0057 35.9483 13.9644 35.9731 13.9189 35.9731Z" fill="#CD664E"/>
<path d="M15.0015 36.4896C14.9891 36.4896 14.985 36.4855 14.9726 36.4855C14.923 36.4731 14.8899 36.4153 14.9023 36.3615C15.1172 35.5433 15.0222 34.7623 15.0222 34.754C15.0139 34.6962 15.0552 34.6507 15.109 34.6424C15.1627 34.6342 15.2123 34.6755 15.2205 34.7292C15.2247 34.7623 15.3197 35.5557 15.0966 36.4153C15.0842 36.4607 15.0428 36.4896 15.0015 36.4896Z" fill="#CD664E"/>
</svg>
