<svg width="184" height="184" viewBox="0 0 184 184" fill="none" xmlns="http://www.w3.org/2000/svg">
<path d="M151.292 60.3746C151.09 61.3742 150.265 62.1262 149.256 62.2362C148.092 62.3646 146.656 62.5022 146.065 62.5022C144.996 62.5022 140.714 61.8923 140.714 61.8923L143.162 57.9077L147.44 54.996L149.889 54.2303L152.026 56.6834L151.292 60.3746Z" fill="#F79176"/>
<path d="M147.101 64.992L148.972 65.4368C149.394 65.5331 149.815 65.2717 149.916 64.8545L153.025 51.713C153.121 51.2911 152.865 50.8693 152.443 50.7684L150.572 50.3236C150.15 50.2274 149.728 50.4887 149.632 50.906L146.523 64.0474C146.422 64.4693 146.684 64.8911 147.101 64.992Z" fill="#86413B"/>
<path d="M148.367 39.0392C148.435 39.4886 148.504 39.938 148.568 40.3873C148.591 40.5249 148.614 40.6579 148.633 40.7908C148.66 40.9834 148.692 41.176 148.72 41.3686C149.187 44.4453 149.651 47.5175 150.118 50.5942L152.026 51.3599L152.874 51.0436L157.317 45.0735L157.647 44.6287L158.569 43.3953L159.289 42.4278L158.156 42.4966L157.927 42.5057L157.345 42.5424C157.216 42.5516 156.854 43.1339 156.776 43.2256C156.634 43.3953 156.487 43.5649 156.345 43.7346C156.088 44.028 155.841 44.3261 155.593 44.6287C155.034 45.3165 154.479 46.0089 153.919 46.6967C153.851 46.7792 153.782 46.8663 153.718 46.9443C153.452 47.279 153.181 47.6092 152.915 47.9393C152.681 48.2282 152.172 48.7188 151.81 48.297C151.682 48.1502 151.641 47.9531 151.599 47.7605C151.416 46.8984 151.232 46.0318 151.049 45.1698C151.012 45.0047 150.976 44.8396 150.944 44.6746C150.751 43.7804 150.563 42.8909 150.375 42.0013C150.334 41.8088 150.292 41.6116 150.251 41.419C150.137 40.8779 150.017 40.3231 149.724 39.8554C149.591 39.6445 149.412 39.4565 149.21 39.3098C149.151 39.2639 149.082 39.2272 149.013 39.1906C148.811 39.0851 148.591 39.0301 148.367 39.0392Z" fill="#B05B4F"/>
<path d="M161.201 42.359C161.251 42.3361 161.302 42.3086 161.357 42.2765C161.384 42.2856 161.412 42.2948 161.439 42.2994L161.458 42.2214L161.49 42.0885L161.925 40.2681L162.26 38.8558L162.315 38.6449V38.6403L163.085 35.4123L163.136 35.1968L163.911 31.9641L163.961 31.7532L164.732 28.5206L164.782 28.3096L165.552 25.077L165.603 24.8615L166.378 21.6289L166.428 21.4179L167.198 18.1899L167.249 17.9744L167.767 15.8009L168.203 13.9852C168.143 13.9118 168.088 13.8384 168.028 13.7651L167.602 15.5442L167.038 17.9194L166.983 18.1303L166.217 21.3629L166.162 21.5784L165.392 24.8065L165.341 25.022L164.567 28.25L164.516 28.4655L163.746 31.6982L163.695 31.9091L162.925 35.1417L162.87 35.3527L162.1 38.5853L162.049 38.8008L161.655 40.4469L161.279 42.0289L161.228 42.2444L161.201 42.359Z" fill="#E5C9C2"/>
<path d="M157.67 43.5878C157.748 43.5787 157.826 43.5649 157.909 43.5466L158.156 42.4965L158.275 42.0059L158.395 41.5107L158.445 41.2952L159.215 38.0625L159.266 37.847L160.041 34.619L160.091 34.4035L160.862 31.1708L160.912 30.9599L161.682 27.7273L161.737 27.5164V27.5118L162.508 24.2837L162.558 24.0682L163.328 20.8402L163.383 20.6247L164.149 17.392L164.204 17.1811L165.199 13.0085L165.552 11.5412C165.484 11.4999 165.419 11.4586 165.355 11.4174L165.007 12.8709L163.993 17.1215L163.938 17.337L163.168 20.5696L163.117 20.7806L162.347 24.0132L162.292 24.2287L161.522 27.4567L161.471 27.6723L160.701 30.9049L160.651 31.1204L159.88 34.3484L159.825 34.564L159.055 37.792L159.004 38.0075L158.23 41.2402L158.179 41.4557L158.032 42.0655L157.927 42.5057L157.67 43.5878Z" fill="#E5C9C2"/>
<path d="M154.424 43.6337C154.497 43.6429 154.57 43.652 154.644 43.6658L154.974 42.2764L155.345 40.722L155.396 40.5065L156.166 37.2739L156.217 37.063L156.991 33.8349L157.042 33.6148L157.812 30.3868L157.867 30.1713L158.638 26.9432L158.688 26.7277L159.458 23.4951L159.509 23.2841L160.284 20.0515L160.334 19.836L161.104 16.6079L161.155 16.3924L162.283 11.6742L162.613 10.2986C162.54 10.2802 162.471 10.2619 162.398 10.2481L162.067 11.6237L160.944 16.3374L160.894 16.5529L160.119 19.781L160.068 19.9965L159.298 23.2291L159.243 23.44L158.472 26.6727L158.422 26.8882L157.652 30.1162L157.601 30.3317L156.831 33.5644L156.776 33.7753L156.006 37.0079L155.955 37.2234L155.185 40.4515L155.13 40.667L154.754 42.2489L154.424 43.6337Z" fill="#E5C9C2"/>
<path d="M151.425 42.6478C151.494 42.6845 151.558 42.7166 151.627 42.7487L151.966 41.3273L152.296 39.9379L152.351 39.727L153.121 36.4944L153.172 36.2789L153.942 33.0508L153.993 32.8353L154.763 29.6027L154.818 29.3917L155.588 26.1591L155.639 25.9436L156.409 22.7155L156.464 22.5L157.234 19.2674L157.285 19.0519L158.055 15.8238L158.106 15.6083L159.078 11.5503L159.422 10.106L159.339 10.0876L159.206 10.0601L159.197 10.106L158.844 11.587L157.895 15.5533L157.844 15.7688L157.069 19.0015L157.023 19.2124L156.249 22.445L156.198 22.6605L155.428 25.8886L155.373 26.1041L154.602 29.3321L154.552 29.5476L153.782 32.7803L153.731 32.9958L152.961 36.2238L152.906 36.4393L152.136 39.672L152.085 39.8875L151.769 41.2172L151.425 42.6478Z" fill="#E5C9C2"/>
<path d="M148.692 40.5249C148.756 40.589 148.816 40.6532 148.876 40.7174L149.247 39.163L149.274 39.0484L149.302 38.9475L150.068 35.7149L150.123 35.4994L150.893 32.2713L150.944 32.0558L151.714 28.8232L151.769 28.6123L152.539 25.3796L152.59 25.1641L153.36 21.9361L153.415 21.7205L154.185 18.4879L154.236 18.2724L155.006 15.0444L155.057 14.8288L155.552 12.7746L155.974 10.991C155.891 11.0276 155.809 11.0643 155.721 11.1056L155.286 12.9214L154.846 14.7738L154.795 14.9893L154.02 18.222L153.97 18.4329L153.199 21.6655L153.149 21.881L152.379 25.1091L152.328 25.3246L151.553 28.5572L151.503 28.7682L150.728 32.0008L150.682 32.2163L149.907 35.4443L149.857 35.6599L149.1 38.8283L149.086 38.8925L149.036 39.108L148.692 40.5249Z" fill="#E5C9C2"/>
<path d="M146.344 36.8154V36.82C146.395 36.93 146.441 37.04 146.491 37.1501L147.018 34.94L147.073 34.7245V34.7153L147.844 31.4964L147.894 31.2763L148.665 28.0483L148.715 27.8328L149.49 24.6047L149.54 24.3892L150.311 21.1566L150.361 20.9457L151.131 17.713L151.186 17.4975L151.535 16.0302L151.957 14.2695L152.007 14.054L152.154 13.4349C152.058 13.5175 151.966 13.6 151.87 13.6871L151.796 13.9989L151.746 14.2144L151.223 16.3879V16.3925L150.971 17.4425L150.921 17.658L150.15 20.8906L150.1 21.1061L149.329 24.3342L149.274 24.5497L148.504 27.7777L148.454 27.9933L147.683 31.2259H147.679L147.633 31.4414L146.954 34.2797L146.858 34.6695L146.808 34.885L146.344 36.8154Z" fill="#E5C9C2"/>
<path d="M164.644 39.484L164.521 39.993C164.617 39.9013 164.718 39.8141 164.814 39.7179L164.855 39.539L164.906 39.3281L165.497 36.8429L165.676 36.0955L165.727 35.8845L166.497 32.6473L166.552 32.4364L167.322 29.2038L167.373 28.9928L168.143 25.7602L168.198 25.5493L168.968 22.3166L169.019 22.1057L169.486 20.1524L169.789 18.8685L169.844 18.6622L170.133 17.4471C170.083 17.3278 170.037 17.2086 169.991 17.094L169.629 18.6026L169.578 18.8135L169.372 19.6755L168.808 22.0461L168.757 22.257L167.987 25.4943L167.932 25.7052L167.162 28.9378L167.111 29.1487L166.336 32.3814L166.286 32.5923L165.516 35.8249L165.465 36.0359L165.176 37.2464L164.695 39.2685L164.644 39.484Z" fill="#E5C9C2"/>
<path d="M151.402 14.1273C151.517 14.1548 151.631 14.1824 151.746 14.2145C151.815 14.2328 151.883 14.2466 151.957 14.2695C152.315 14.3566 152.672 14.4483 153.039 14.54C153.617 14.6913 154.204 14.8381 154.795 14.9894C154.869 15.0077 154.937 15.0261 155.006 15.0444C155.946 15.2828 156.9 15.5259 157.844 15.7689C157.913 15.7872 157.987 15.8056 158.055 15.8239C159.014 16.0669 159.963 16.3145 160.894 16.553C160.962 16.5713 161.036 16.5896 161.105 16.608C162.077 16.8556 163.026 17.1032 163.938 17.337C164.012 17.3554 164.08 17.3737 164.149 17.3921C165.153 17.6534 166.102 17.901 166.983 18.1303C167.056 18.1486 167.13 18.167 167.198 18.1899C167.877 18.3642 168.51 18.5292 169.088 18.6851C169.257 18.731 169.418 18.7722 169.578 18.8135C169.652 18.8319 169.72 18.8502 169.789 18.8685C170.101 18.9557 170.394 19.0336 170.669 19.107C170.647 19.0244 170.624 18.9465 170.601 18.8639C170.362 18.7998 170.105 18.731 169.844 18.6622C169.771 18.6439 169.702 18.6255 169.629 18.6026C169.427 18.5476 169.221 18.4925 169.01 18.4375C168.459 18.2908 167.872 18.1349 167.249 17.9744C167.18 17.9561 167.111 17.9377 167.038 17.9194C166.148 17.6855 165.195 17.4379 164.204 17.1811C164.131 17.1628 164.062 17.1399 163.993 17.1215C163.072 16.8877 162.118 16.6401 161.155 16.3925C161.086 16.3741 161.013 16.3558 160.944 16.3374C159.999 16.0944 159.05 15.8514 158.106 15.6084C158.037 15.59 157.968 15.5717 157.895 15.5534C156.932 15.3058 155.978 15.0673 155.057 14.8289C154.988 14.8105 154.914 14.7922 154.846 14.7739C154.295 14.6363 153.759 14.4987 153.245 14.3658C152.819 14.2603 152.406 14.1548 152.007 14.054C151.939 14.0356 151.865 14.0173 151.796 13.9989C151.723 13.9806 151.659 13.9623 151.59 13.9439C151.526 14.0035 151.466 14.0631 151.402 14.1273Z" fill="#E5C9C2"/>
<path d="M148.889 17.1398C149.366 17.2636 149.852 17.3874 150.352 17.5158C150.54 17.5617 150.728 17.6121 150.921 17.658C150.994 17.6763 151.063 17.6947 151.132 17.713C152.058 17.9468 153.007 18.1899 153.97 18.4329C154.043 18.4512 154.112 18.4696 154.185 18.4879C155.125 18.7309 156.075 18.974 157.024 19.2124C157.092 19.2353 157.161 19.2491 157.235 19.2674C158.188 19.515 159.137 19.758 160.068 19.9965C160.137 20.0148 160.21 20.0332 160.284 20.0515C161.256 20.3037 162.205 20.5467 163.118 20.7806C163.191 20.8035 163.26 20.8218 163.328 20.8402C164.328 21.0969 165.277 21.3446 166.162 21.5784C166.236 21.5922 166.304 21.6105 166.378 21.6288C167.244 21.8581 168.047 22.069 168.757 22.257C168.826 22.28 168.9 22.2983 168.968 22.3166C169.276 22.3992 169.564 22.4771 169.83 22.5505C170.404 22.7018 170.885 22.8348 171.256 22.9402C171.256 22.8623 171.252 22.7889 171.247 22.7156C170.862 22.6055 170.376 22.4725 169.812 22.3166C169.564 22.2479 169.299 22.1791 169.019 22.1057C168.95 22.0874 168.881 22.069 168.808 22.0461C168.093 21.8581 167.29 21.6426 166.428 21.4179C166.355 21.3996 166.286 21.3812 166.217 21.3629C165.323 21.129 164.374 20.8814 163.383 20.6247C163.31 20.6063 163.241 20.588 163.168 20.5696C162.246 20.3312 161.297 20.0836 160.334 19.836C160.261 19.8176 160.192 19.7993 160.119 19.781C159.179 19.5379 158.225 19.2949 157.285 19.0519C157.216 19.0381 157.143 19.0152 157.07 19.0015C156.107 18.7539 155.153 18.5108 154.236 18.2724C154.162 18.2541 154.094 18.2357 154.02 18.222C153.025 17.9652 152.072 17.7222 151.187 17.4975C151.113 17.4791 151.044 17.4608 150.971 17.4425C150.811 17.4012 150.65 17.3599 150.49 17.3232C149.971 17.1903 149.481 17.0665 149.022 16.9473C148.976 17.0114 148.931 17.0756 148.889 17.1398Z" fill="#E5C9C2"/>
<path d="M147.092 20.3404C147.546 20.455 148.009 20.5742 148.486 20.6935C149.013 20.8264 149.549 20.964 150.1 21.1061C150.169 21.1199 150.237 21.1382 150.311 21.1566C151.237 21.3904 152.186 21.6334 153.149 21.8811C153.218 21.8994 153.287 21.9132 153.36 21.9361C154.3 22.1745 155.254 22.4175 156.198 22.6606C156.272 22.6789 156.34 22.6972 156.409 22.7156C157.363 22.9586 158.317 23.2016 159.243 23.4401C159.316 23.4584 159.39 23.4767 159.458 23.4951C160.43 23.7473 161.38 23.9903 162.292 24.2287C162.365 24.2471 162.434 24.2654 162.508 24.2838C163.503 24.5405 164.456 24.7881 165.341 25.022C165.41 25.0403 165.483 25.0587 165.552 25.077C166.423 25.3063 167.221 25.5126 167.932 25.7052C168.005 25.7235 168.074 25.7419 168.143 25.7602C168.757 25.9253 169.298 26.0674 169.757 26.1958C170.39 26.3701 170.862 26.503 171.128 26.5902C171.137 26.5168 171.146 26.4434 171.155 26.3701C170.862 26.2784 170.39 26.1454 169.78 25.9757C169.321 25.8519 168.789 25.7098 168.198 25.5493C168.129 25.531 168.056 25.5126 167.987 25.4943C167.267 25.3017 166.465 25.0908 165.603 24.8615C165.534 24.8432 165.46 24.8248 165.392 24.8065C164.502 24.5726 163.548 24.325 162.558 24.0682C162.489 24.0499 162.416 24.0316 162.347 24.0132C161.425 23.7748 160.472 23.5318 159.509 23.2842C159.44 23.2658 159.367 23.2475 159.298 23.2291C158.353 22.9861 157.404 22.7385 156.464 22.5001C156.391 22.4817 156.317 22.4634 156.249 22.445C155.286 22.1974 154.332 21.9544 153.415 21.7206C153.342 21.7022 153.268 21.6839 153.199 21.6655C152.204 21.4134 151.251 21.1703 150.361 20.9457C150.288 20.9273 150.219 20.909 150.15 20.8906C149.6 20.7485 149.073 20.6155 148.582 20.4917C148.078 20.3633 147.61 20.2441 147.188 20.1386C147.156 20.2028 147.124 20.2716 147.092 20.3404Z" fill="#E5C9C2"/>
<path d="M145.863 23.6831C146.308 23.7931 146.766 23.9077 147.234 24.0316C147.894 24.1966 148.578 24.3709 149.274 24.5497C149.348 24.568 149.417 24.5864 149.49 24.6047C150.412 24.8386 151.365 25.0816 152.328 25.3246C152.397 25.3429 152.466 25.3613 152.539 25.3796C153.479 25.6181 154.428 25.8611 155.373 26.1041C155.446 26.1224 155.515 26.1408 155.588 26.1591C156.542 26.4022 157.491 26.6452 158.422 26.8882C158.496 26.9065 158.564 26.9249 158.638 26.9432C159.61 27.1908 160.559 27.4338 161.471 27.6723C161.54 27.6906 161.614 27.709 161.682 27.7273C162.682 27.9841 163.631 28.2317 164.516 28.4655C164.589 28.4839 164.663 28.5022 164.732 28.5206C165.598 28.7452 166.396 28.9607 167.111 29.1487C167.18 29.1671 167.253 29.1854 167.322 29.2038C167.996 29.3872 168.583 29.5431 169.069 29.6761C169.72 29.8549 170.188 29.9924 170.426 30.0704C170.449 30.0016 170.468 29.9328 170.486 29.864C170.22 29.7769 169.752 29.644 169.129 29.4697C168.634 29.3322 168.042 29.1717 167.373 28.9928C167.304 28.9745 167.235 28.9562 167.162 28.9378C166.442 28.7452 165.644 28.5343 164.782 28.3096C164.709 28.2867 164.64 28.273 164.566 28.25C163.677 28.0162 162.723 27.7732 161.737 27.5164V27.5118C161.664 27.498 161.595 27.4797 161.522 27.4568C160.6 27.2229 159.646 26.9753 158.688 26.7277C158.619 26.7094 158.546 26.691 158.473 26.6727C157.528 26.4297 156.579 26.1866 155.639 25.9436C155.57 25.9253 155.497 25.9069 155.428 25.8886C154.46 25.641 153.511 25.398 152.59 25.1641C152.521 25.1458 152.448 25.1274 152.379 25.1091C151.379 24.8569 150.425 24.6139 149.54 24.3892C149.467 24.3709 149.398 24.3525 149.33 24.3342C148.596 24.1462 147.913 23.9765 147.294 23.816C146.789 23.6877 146.331 23.573 145.923 23.4676C145.904 23.5409 145.881 23.6097 145.863 23.6831Z" fill="#E5C9C2"/>
<path d="M145.157 27.1587C145.606 27.2687 146.065 27.388 146.532 27.5072C147.156 27.6631 147.798 27.8281 148.454 27.9932C148.522 28.0116 148.596 28.0299 148.665 28.0482C149.591 28.2821 150.54 28.5251 151.503 28.7681C151.572 28.7911 151.645 28.8048 151.714 28.8232C152.654 29.0662 153.607 29.3092 154.552 29.5476C154.621 29.566 154.694 29.5843 154.763 29.6027C155.721 29.8503 156.67 30.0933 157.601 30.3317C157.67 30.3501 157.743 30.3684 157.812 30.3867C158.784 30.6389 159.733 30.882 160.65 31.1204C160.719 31.1387 160.793 31.1525 160.861 31.1708C161.856 31.4322 162.81 31.6798 163.695 31.9091C163.768 31.9274 163.837 31.9503 163.911 31.9641C164.777 32.1934 165.575 32.4043 166.286 32.5923C166.359 32.6106 166.433 32.629 166.497 32.6473C166.987 32.7803 167.437 32.8995 167.831 33.0095C168.404 33.1608 168.872 33.2938 169.211 33.3947C169.239 33.3259 169.271 33.2617 169.298 33.1929C168.954 33.0921 168.491 32.9637 167.923 32.8078C167.515 32.6977 167.052 32.5739 166.552 32.4364C166.478 32.418 166.41 32.3997 166.336 32.3813C165.616 32.1888 164.819 31.9778 163.961 31.7532C163.888 31.7348 163.819 31.7165 163.746 31.6981C162.851 31.4597 161.902 31.2167 160.912 30.9599C160.843 30.9416 160.77 30.9232 160.701 30.9049C159.779 30.6664 158.826 30.4188 157.867 30.1712C157.794 30.1529 157.725 30.1346 157.652 30.1162C156.707 29.8732 155.758 29.6302 154.818 29.3917C154.745 29.3688 154.676 29.3551 154.602 29.3321C153.635 29.0891 152.686 28.8415 151.769 28.6122C151.695 28.5893 151.622 28.571 151.553 28.5572C150.554 28.3004 149.604 28.0574 148.715 27.8327C148.646 27.8144 148.573 27.796 148.504 27.7777C147.807 27.6035 147.156 27.4338 146.564 27.2825C146.055 27.1587 145.597 27.0441 145.184 26.9386C145.175 27.012 145.166 27.0853 145.157 27.1587Z" fill="#E5C9C2"/>
<path d="M145.01 30.5473C145.01 30.6206 145.015 30.6986 145.019 30.7765C145.482 30.8912 145.955 31.015 146.445 31.1388C146.835 31.2351 147.229 31.3359 147.633 31.4414C147.702 31.4552 147.77 31.4735 147.844 31.4964C148.765 31.7303 149.715 31.9687 150.682 32.2163C150.751 32.2301 150.82 32.253 150.893 32.2713C151.833 32.5098 152.782 32.7528 153.731 32.9958C153.8 33.0142 153.869 33.0325 153.942 33.0508C154.896 33.2939 155.845 33.5369 156.776 33.7753C156.849 33.7937 156.923 33.812 156.991 33.8349C157.959 34.0825 158.913 34.3256 159.825 34.564C159.898 34.5823 159.967 34.6007 160.041 34.619C161.036 34.8758 161.985 35.1234 162.87 35.3527C162.943 35.3756 163.012 35.3939 163.085 35.4123C163.947 35.637 164.75 35.8479 165.465 36.0359C165.538 36.0542 165.607 36.0771 165.676 36.0955C165.786 36.123 165.891 36.1505 165.992 36.178C166.538 36.3247 167.024 36.4577 167.441 36.5678C167.483 36.5082 167.524 36.444 167.565 36.3798C167.152 36.2651 166.666 36.1322 166.125 35.99C165.997 35.9533 165.864 35.9167 165.726 35.8846C165.658 35.8616 165.589 35.8433 165.515 35.8249C164.796 35.6324 163.993 35.4214 163.136 35.1968C163.067 35.1784 162.994 35.1601 162.925 35.1417C162.031 34.9079 161.077 34.6603 160.091 34.4035C160.018 34.3852 159.949 34.3668 159.88 34.3485C158.954 34.11 158.005 33.8624 157.042 33.6148C156.973 33.5965 156.9 33.5827 156.831 33.5644C155.886 33.3214 154.933 33.0738 153.993 32.8353C153.924 32.817 153.85 32.7987 153.782 32.7803C152.814 32.5327 151.86 32.2897 150.943 32.0558C150.87 32.0375 150.801 32.0192 150.728 32.0008C149.733 31.7486 148.779 31.501 147.894 31.2763C147.821 31.2626 147.752 31.2442 147.683 31.2259H147.679C147.243 31.1113 146.826 31.0058 146.427 30.9049C145.918 30.7765 145.441 30.6573 145.01 30.5473Z" fill="#E5C9C2"/>
<path d="M145.524 34.3302C145.547 34.4127 145.565 34.4906 145.588 34.5732C145.987 34.6741 146.395 34.7795 146.807 34.885C146.881 34.9033 146.95 34.9217 147.018 34.94C147.064 34.9492 147.106 34.9583 147.151 34.9721C148.036 35.1968 148.94 35.426 149.857 35.6599C149.93 35.6782 149.999 35.6966 150.068 35.7149C151.008 35.9533 151.961 36.1964 152.906 36.4394C152.979 36.4577 153.048 36.4761 153.121 36.4944C154.075 36.7374 155.024 36.9805 155.955 37.2235C156.024 37.2418 156.097 37.2602 156.166 37.2739C157.138 37.5261 158.087 37.7737 159.004 38.0076C159.073 38.0259 159.147 38.0442 159.215 38.0626C160.21 38.3239 161.164 38.567 162.049 38.8008C162.122 38.8192 162.191 38.8375 162.26 38.8558C162.641 38.9567 163.003 39.0484 163.356 39.1401C163.81 39.2594 164.241 39.374 164.644 39.484C164.713 39.5024 164.786 39.5207 164.855 39.5391C164.892 39.5482 164.929 39.5574 164.965 39.5666C165.025 39.5115 165.084 39.4519 165.144 39.3923C165.066 39.3694 164.988 39.3465 164.906 39.3281C164.832 39.3052 164.764 39.2869 164.695 39.2685C164.333 39.1722 163.947 39.0714 163.548 38.9659C163.149 38.8604 162.741 38.755 162.315 38.6449V38.6403C162.242 38.622 162.173 38.6037 162.099 38.5853C161.205 38.3515 160.256 38.1039 159.266 37.8471C159.197 37.8287 159.124 37.815 159.055 37.7921C158.133 37.5536 157.179 37.3106 156.217 37.063C156.148 37.0447 156.074 37.0263 156.006 37.008C155.061 36.7649 154.112 36.5219 153.172 36.2789C153.099 36.2606 153.03 36.2422 152.961 36.2239C151.993 35.9763 151.04 35.7333 150.123 35.4994C150.049 35.4811 149.981 35.4627 149.907 35.4444C148.912 35.1922 147.958 34.9492 147.073 34.7245C147 34.7061 146.927 34.6878 146.858 34.6695C146.39 34.5502 145.945 34.4402 145.524 34.3302Z" fill="#E5C9C2"/>
<path d="M147.133 38.3927C147.184 38.4844 147.239 38.5715 147.294 38.6586V38.6632C147.867 38.8099 148.449 38.9567 149.036 39.108C149.105 39.1263 149.174 39.1401 149.247 39.163C149.297 39.1722 149.343 39.1859 149.394 39.1997C150.288 39.4244 151.187 39.6536 152.085 39.8875C152.154 39.9012 152.227 39.9242 152.296 39.9379C153.25 40.181 154.199 40.4286 155.13 40.667C155.203 40.6853 155.277 40.7037 155.345 40.722C156.313 40.9696 157.267 41.2172 158.179 41.4557C158.252 41.4694 158.321 41.4878 158.395 41.5107C158.661 41.5795 158.927 41.6437 159.188 41.7124C159.894 41.8959 160.577 42.0747 161.228 42.2443C161.27 42.2581 161.311 42.2673 161.357 42.2764C161.384 42.2856 161.412 42.2948 161.439 42.2994L161.458 42.2214C161.517 42.1893 161.572 42.1572 161.632 42.1251C161.581 42.1114 161.536 42.0976 161.49 42.0884C161.421 42.0701 161.348 42.0472 161.279 42.0288C160.715 41.8867 160.137 41.7308 159.536 41.5749C159.179 41.4832 158.812 41.3915 158.445 41.2952C158.372 41.2768 158.303 41.2585 158.23 41.2402C157.308 40.9971 156.354 40.7541 155.396 40.5065C155.322 40.4882 155.254 40.4698 155.185 40.4515C154.24 40.2085 153.287 39.9654 152.351 39.727C152.278 39.7041 152.204 39.6903 152.136 39.672C151.168 39.4198 150.214 39.1814 149.302 38.9475C149.252 38.9337 149.21 38.9246 149.164 38.9108C149.137 38.9062 149.114 38.8971 149.086 38.8925C148.412 38.7182 147.757 38.5532 147.133 38.3927Z" fill="#E5C9C2"/>
<path d="M146.445 31.1387C146.519 32.23 146.693 33.2847 146.954 34.2797C146.991 34.4264 147.032 34.5731 147.073 34.7153C147.073 34.7199 147.073 34.7199 147.073 34.7244C147.101 34.807 147.124 34.8895 147.151 34.972C147.605 36.4302 148.266 37.737 149.1 38.8283C149.118 38.8558 149.141 38.8833 149.164 38.9108C149.201 38.9613 149.238 39.0025 149.274 39.0484C149.316 39.0988 149.352 39.1493 149.394 39.1997C150.081 40.0159 150.875 40.6991 151.769 41.2172C151.833 41.2585 151.897 41.2952 151.966 41.3273C152.429 41.584 152.911 41.7904 153.424 41.9509C153.86 42.0884 154.304 42.1893 154.754 42.2489C154.827 42.2627 154.901 42.2718 154.974 42.2764C155.973 42.3865 157.001 42.3177 158.032 42.0655C158.115 42.0472 158.193 42.0288 158.275 42.0059C158.578 41.9234 158.885 41.8271 159.188 41.7124C159.302 41.6712 159.417 41.6253 159.536 41.5749C160.252 41.286 160.958 40.91 161.655 40.4469C161.746 40.3919 161.833 40.3323 161.925 40.2681C162.054 40.1764 162.182 40.0847 162.315 39.9884C162.668 39.7224 163.017 39.4427 163.356 39.1401C163.42 39.0851 163.484 39.0255 163.548 38.9658C164.122 38.4385 164.667 37.8654 165.176 37.2464C165.286 37.1134 165.392 36.9804 165.497 36.8429C165.667 36.6273 165.832 36.4027 165.992 36.178C166.038 36.1138 166.084 36.0496 166.125 35.99C166.767 35.0683 167.336 34.0687 167.831 33.0095C167.863 32.9408 167.895 32.8766 167.923 32.8078C168.294 31.9962 168.615 31.1479 168.89 30.2721C168.954 30.075 169.014 29.8732 169.069 29.676C169.087 29.6073 169.106 29.5385 169.129 29.4697C169.427 28.3692 169.638 27.2733 169.757 26.1958C169.766 26.1224 169.771 26.0491 169.78 25.9757C169.899 24.8019 169.913 23.651 169.83 22.5505C169.826 22.4725 169.816 22.3946 169.812 22.3166C169.748 21.5738 169.638 20.8493 169.486 20.1524C169.45 19.9919 169.413 19.8314 169.372 19.6755C169.289 19.3362 169.193 19.006 169.087 18.6851C169.065 18.598 169.037 18.52 169.009 18.4375C168.679 17.4837 168.267 16.5988 167.767 15.8009C167.716 15.7138 167.657 15.6313 167.602 15.5441C166.937 14.5354 166.13 13.6733 165.199 13.0085C165.135 12.9626 165.071 12.9168 165.007 12.8709C164.346 12.4261 163.631 12.0731 162.856 11.8301C162.668 11.7704 162.475 11.72 162.283 11.6742C162.214 11.6558 162.141 11.6375 162.067 11.6237C161.517 11.5091 160.953 11.4541 160.385 11.4541C159.949 11.4541 159.513 11.4862 159.078 11.5504C159 11.5641 158.922 11.5733 158.844 11.587C157.743 11.7842 156.634 12.1785 155.552 12.7746C155.46 12.8251 155.373 12.8709 155.286 12.9214C154.841 13.1781 154.405 13.467 153.97 13.7926C153.722 13.976 153.479 14.164 153.245 14.3657C153.172 14.4253 153.108 14.4804 153.039 14.54C152.512 14.9985 152.012 15.4937 151.535 16.0302C151.429 16.1494 151.324 16.2686 151.223 16.3878V16.3924C150.966 16.6905 150.723 16.9977 150.489 17.3232C150.439 17.3828 150.393 17.447 150.352 17.5158C149.687 18.4329 149.096 19.4279 148.582 20.4917C148.55 20.5605 148.518 20.6247 148.486 20.6934C148.064 21.5922 147.692 22.5321 147.39 23.5088C147.358 23.6097 147.326 23.7151 147.294 23.816C147.275 23.8894 147.252 23.9582 147.234 24.0315C146.918 25.1228 146.697 26.2141 146.564 27.2825C146.551 27.3605 146.542 27.4338 146.532 27.5072C146.399 28.6673 146.367 29.8044 146.427 30.9049C146.431 30.9828 146.436 31.0608 146.445 31.1387ZM145.157 27.1587C145.166 27.0853 145.175 27.012 145.184 26.9386C145.326 25.8611 145.551 24.7743 145.863 23.683C145.881 23.6097 145.904 23.5409 145.923 23.4675C145.959 23.3437 146 23.2108 146.042 23.0824C146.335 22.1378 146.693 21.2162 147.092 20.3404C147.124 20.2716 147.156 20.2028 147.188 20.1386C147.683 19.0794 148.252 18.0752 148.889 17.1398C148.93 17.0756 148.976 17.0114 149.022 16.9472C149.737 15.9156 150.535 14.9664 151.402 14.1273C151.466 14.0631 151.526 14.0035 151.59 13.9439C151.682 13.8568 151.778 13.7742 151.87 13.6871C151.966 13.6 152.058 13.5174 152.154 13.4349C152.47 13.1598 152.796 12.8984 153.126 12.6554C153.974 12.0272 154.841 11.5091 155.721 11.1056C155.808 11.0643 155.891 11.0276 155.973 10.9909H155.978C157.042 10.5278 158.124 10.2298 159.197 10.106C159.243 10.1014 159.293 10.0922 159.339 10.0876C160.371 9.98218 161.398 10.0326 162.397 10.2481C162.471 10.2619 162.54 10.2802 162.613 10.2986C162.838 10.349 163.062 10.4132 163.282 10.482C164.016 10.7112 164.708 11.0276 165.355 11.4174C165.419 11.4586 165.483 11.4999 165.552 11.5412C166.478 12.1327 167.308 12.8847 168.028 13.7651C168.088 13.8384 168.143 13.9118 168.202 13.9851C168.913 14.9022 169.514 15.9477 169.991 17.094C170.037 17.2086 170.082 17.3278 170.133 17.447C170.307 17.9056 170.463 18.3779 170.601 18.8639C170.624 18.9464 170.646 19.0244 170.669 19.1069C170.972 20.2487 171.169 21.4546 171.247 22.7156C171.252 22.7889 171.256 22.8623 171.256 22.9402C171.316 24.0545 171.284 25.2008 171.155 26.37C171.146 26.4434 171.137 26.5168 171.128 26.5901C171 27.6677 170.784 28.7636 170.486 29.864C170.468 29.9328 170.449 30.0016 170.426 30.0704C170.367 30.2767 170.307 30.4876 170.238 30.6986C169.972 31.556 169.656 32.3905 169.298 33.193C169.271 33.2617 169.239 33.3259 169.211 33.3947C168.73 34.4447 168.18 35.4443 167.565 36.3797C167.524 36.4439 167.483 36.5081 167.441 36.5677C166.749 37.5994 165.979 38.544 165.144 39.3923C165.084 39.4519 165.025 39.5115 164.965 39.5665C164.915 39.617 164.864 39.672 164.814 39.7178C164.718 39.8141 164.617 39.9012 164.52 39.993C164.08 40.3965 163.626 40.777 163.154 41.1255C162.654 41.4969 162.145 41.8317 161.632 42.1251C161.572 42.1572 161.517 42.1893 161.458 42.2214C161.425 42.2443 161.389 42.2627 161.357 42.2764C161.302 42.3085 161.251 42.336 161.201 42.359C160.33 42.8175 159.449 43.1614 158.569 43.3952C158.349 43.4548 158.129 43.5007 157.908 43.5466C157.826 43.5649 157.748 43.5787 157.67 43.5878C157.23 43.6658 156.785 43.7162 156.345 43.7346C156.198 43.7437 156.051 43.7437 155.905 43.7437C155.478 43.7437 155.056 43.7208 154.644 43.6658C154.57 43.652 154.497 43.6428 154.424 43.6337C153.942 43.5603 153.465 43.4503 152.998 43.3035C152.525 43.1522 152.067 42.9688 151.627 42.7487C151.558 42.7166 151.494 42.6845 151.425 42.6478C151.063 42.4553 150.71 42.2397 150.375 42.0013C149.838 41.6253 149.339 41.1943 148.875 40.7174C148.816 40.6532 148.756 40.589 148.692 40.5248C148.655 40.479 148.614 40.4331 148.568 40.3873C148.101 39.8646 147.674 39.2868 147.294 38.6632V38.6586C147.238 38.5715 147.183 38.4844 147.133 38.3927C146.899 37.9938 146.688 37.5811 146.491 37.1501C146.441 37.04 146.395 36.93 146.344 36.8199V36.8153C146.042 36.1046 145.79 35.3572 145.588 34.5731C145.565 34.4906 145.547 34.4126 145.524 34.3301C145.248 33.2021 145.074 32.0099 145.019 30.7765C145.015 30.6986 145.01 30.6206 145.01 30.5472C145.001 30.295 144.996 30.0383 144.996 29.7861C144.996 28.924 145.047 28.0483 145.157 27.1587Z" fill="#B05B4F"/>
<path d="M7.763 144.327L12.4721 150.618C12.4721 150.618 19.3409 146.413 27.3055 141.534C36.5036 135.899 47.1736 129.365 50.4567 127.338C54.1846 125.041 55.5831 122.042 56.1058 120.048C56.4451 118.773 56.4222 117.902 56.4222 117.902L48.2879 109.029L45.821 106.338C45.7935 109.822 45.5275 115.77 42.1206 117.668C41.0477 118.264 39.8372 118.548 38.6679 118.92C35.8388 119.828 33.083 121.882 30.7353 123.665C28.0575 125.697 25.5356 127.971 23.3026 130.488C22.5827 131.295 21.7527 132.157 20.8586 133.038C15.4846 138.32 7.763 144.327 7.763 144.327Z" fill="#F79176"/>
<mask id="mask0_193_1009" style="mask-type:luminance" maskUnits="userSpaceOnUse" x="0" y="145" width="19" height="22">
<path d="M18.2449 145.469H1.90735e-05V166.18H18.2449V145.469Z" fill="white"/>
</mask>
<g mask="url(#mask0_193_1009)">
<path d="M3.19136 145.533C3.15926 145.524 1.52231 145.583 0.907881 146.583C0.293451 147.578 -0.476879 148.733 0.330133 150.017C1.14173 151.297 3.30599 154.08 5.44274 155.382C7.57949 156.689 7.25852 158.289 8.22143 160.334C9.17976 162.375 9.42278 164.126 11.6833 165.062C13.9439 165.997 16.6721 166.268 17.337 165.653C17.9973 165.034 18.2403 164.3 18.0065 164.089C17.7772 163.879 9.42278 152.723 9.32649 152.553C9.22561 152.379 3.19136 145.533 3.19136 145.533Z" fill="#372F2E"/>
</g>
<path d="M52.5245 113.28C50.1448 113.018 47.6458 113.445 45.4173 112.578C45.0872 112.45 44.3673 112.069 44.3856 111.716C44.3994 111.395 45.0688 111.331 45.3623 111.198C46.88 110.506 48.5766 110.212 50.2411 110.354C50.8647 110.409 51.5158 110.538 52.0064 110.932C52.6254 111.432 52.873 112.344 52.5933 113.087" fill="#C54434"/>
<path d="M7.76297 144.327L12.4721 150.618C12.4721 150.618 16.8785 147.922 22.7248 144.336C23.2063 144.043 23.7015 143.74 24.2013 143.437C25.2054 142.818 26.2463 142.181 27.3055 141.534C24.4901 140.755 21.0053 137.045 20.8586 133.038C19.8819 133.996 18.8273 134.977 17.7589 135.945C17.3187 136.344 16.8785 136.738 16.4338 137.128C12.0365 141.002 7.76297 144.327 7.76297 144.327Z" fill="#F7E9E4"/>
<path d="M69.4491 83.1452L65.9963 109.254L45.7477 107.837L47.1599 78.4269L69.4491 83.1452Z" fill="#E0584A"/>
<path d="M15.0489 151.494C15.0489 151.494 17.9652 148.949 16.099 147.894C14.2373 146.84 12.8388 147.069 12.3986 147.894C11.9538 148.724 8.23059 145.436 8.67536 144.552C9.11555 143.667 9.48696 143.222 8.63868 143.148C7.7904 143.075 4.50733 145.212 3.62236 145.212C2.74199 145.212 0.898695 147.284 4.70449 150.434C8.51488 153.585 8.73497 156.12 8.93214 157.01C9.1293 157.895 10.3352 162.054 13.0589 163.411C15.7872 164.764 19.2536 164.938 18.2219 162.535C17.1903 160.137 15.347 157.331 15.2369 155.185C15.1269 153.043 15.0489 151.494 15.0489 151.494Z" fill="#F7E9E4"/>
<path d="M97.2542 13.0223C97.621 13.3662 99.29 13.5313 99.7073 13.7926C100.125 14.054 100.542 14.352 100.826 14.783C101.11 15.2141 101.243 15.8056 101.051 16.2962C100.863 16.7914 100.29 17.094 99.8678 16.8418C100.129 17.2362 100.39 17.6351 100.542 18.0936C100.689 18.5522 100.707 19.0886 100.482 19.5059C100.258 19.9277 99.7577 20.1708 99.3588 19.9644C99.2396 20.6706 99.3634 21.4042 99.2717 22.1149C99.1754 22.8256 98.7306 23.5868 98.0887 23.5914C97.5843 23.596 97.1808 23.142 96.8415 22.7248C96.8506 23.1466 96.8598 23.5822 96.7268 23.9766C96.5939 24.3709 96.2867 24.724 95.9107 24.7515C95.4017 24.7927 95.0074 24.2563 94.8148 23.729C94.6268 23.2016 94.5305 22.6056 94.1866 22.1883C93.2741 21.0786 91.5776 21.23 90.2295 21.1841C88.3403 21.1153 86.4558 21.0466 84.5712 20.9824C83.8422 20.9548 83.0627 20.9457 82.4574 21.395C82.0585 21.6885 81.7879 22.147 81.4578 22.5368C81.1322 22.9265 80.6875 23.2658 80.2106 23.1971C79.7383 23.1283 79.3532 22.4542 79.6512 22.037C79.156 22.1883 78.6516 22.3442 78.1381 22.2983C77.6291 22.2479 77.1018 21.9499 76.9 21.4271C76.6937 20.8998 76.9413 20.1662 77.4457 20.0561C76.9275 20.4688 76.1297 20.1157 75.8592 19.4738C75.5886 18.8319 75.7583 18.0478 76.1205 17.4654C76.4828 16.8831 77.0101 16.4658 77.5282 16.0577C77.1935 16.3512 76.6478 16.1265 76.4644 15.6955C76.0105 14.6317 77.1751 13.8385 77.8996 13.4441C79.1055 12.7884 80.449 11.7017 81.5724 10.8718C84.5208 10.2528 86.8272 11.1148 89.7526 11.8714C92.678 12.6234 94.2645 13.3341 97.2542 13.0223Z" fill="#86413B"/>
<path d="M53.0061 45.6008C52.8502 45.3211 38.8834 48.7051 37.4161 49.2966C35.9442 49.8881 17.5021 57.5409 16.475 58.1278C15.4479 58.7193 13.0131 54.2487 13.0131 54.2487C13.0131 54.2487 26.393 43.996 30.2126 41.7858C34.0367 39.5757 52.9969 33.6836 52.9969 33.6836L55.4959 44.8763L53.0061 45.6008Z" fill="#F79176"/>
<path d="M16.7593 57.2796C16.7593 57.2796 15.3883 61.4109 15.0215 62.1492C14.6547 62.8874 13.4304 66.6978 13.3066 67.0646C13.1828 67.4314 11.7109 66.574 11.9585 64.3593C12.2015 62.1492 11.4679 62.516 11.0965 62.8874C10.7342 63.2542 9.26235 65.5881 8.40031 66.574C7.54286 67.5552 6.44239 69.1509 5.70416 69.0271C5.01178 68.9125 6.06639 65.8403 7.83632 63.3276C7.93719 63.1808 7.77213 63.002 7.62081 63.0846C7.42364 63.1992 7.20813 63.3688 7.05223 63.6256C6.68541 64.24 4.35608 67.679 3.74165 67.3076C3.37483 67.1838 3.008 67.0646 3.37483 65.4643C3.37483 65.4643 2.70079 65.3543 2.53572 64.694C2.52196 64.639 2.52196 64.5748 2.53572 64.5198C2.72371 63.754 3.37483 62.7636 3.37483 62.7636C3.37483 62.7636 2.7604 63.1304 2.7604 62.273C2.7604 61.4109 6.19478 58.0957 6.93302 57.7243C7.66666 57.3575 13.7972 53.7947 13.7972 53.7947L16.7593 57.2796Z" fill="#F79176"/>
<path d="M46.3757 109.254C46.3757 109.254 51.3324 114.587 56.1057 120.048C60.2004 124.734 64.1621 129.516 64.7398 131.117C65.9962 134.574 65.0516 143.066 67.4085 149.673C67.8257 150.847 68.5135 152.42 69.3618 154.208C73.2776 162.457 80.5912 175.31 80.5912 175.31L87.3408 174.049L86.0844 170.747C86.0844 170.747 84.2548 161.655 82.196 151.59C80.041 141.021 77.6291 129.383 76.8221 126.082C75.2539 119.635 67.4772 110.538 67.4772 110.538L62.383 107.365L48.2878 109.029L46.3757 109.254Z" fill="#F79176"/>
<path d="M112.739 47.1873C113.555 48.1318 114.403 49.0535 115.274 49.9522C116.059 50.7638 116.797 51.6488 117.746 52.2769C118.704 52.9097 119.58 52.8547 120.658 52.9968C122.157 53.194 123.656 53.3728 125.156 53.5746C128.994 54.0881 132.822 54.643 136.656 55.1794C138.508 55.4362 140.374 55.7755 142.241 55.9177V62.0436C142.241 62.0436 119.314 63.2679 116.407 62.6581C113.505 62.0436 104.329 55.3032 104.329 55.3032L112.739 47.1873Z" fill="#F79176"/>
<mask id="mask1_193_1009" style="mask-type:luminance" maskUnits="userSpaceOnUse" x="79" y="173" width="25" height="11">
<path d="M103.307 173.352H79.853V183.994H103.307V173.352Z" fill="white"/>
</mask>
<g mask="url(#mask1_193_1009)">
<path d="M80.66 179.735C80.66 179.735 80.284 180.519 80.1923 181.33C80.1006 182.142 79.4173 184.178 82.6041 183.98C85.7863 183.783 87.1115 182.853 88.9227 182.605C92.4809 182.123 96.3279 181.624 99.2809 179.4C99.9824 178.872 100.638 178.286 101.257 177.662C101.807 177.107 102.518 176.502 102.889 175.814C103.165 175.301 103.155 174.443 102.775 173.975C102.614 173.783 101.986 173.311 101.716 173.425L91.9031 177.405L80.66 179.735Z" fill="#372F2E"/>
</g>
<path d="M69.3618 154.208C69.7424 155.011 70.1551 155.854 70.5907 156.726C70.8199 157.184 71.0538 157.656 71.2968 158.129C75.2906 165.992 80.5912 175.31 80.5912 175.31L87.3408 174.053L86.0844 170.747C86.0844 170.747 84.7822 164.277 83.1406 156.207C83.0352 155.694 82.9251 155.167 82.8196 154.639C82.6133 153.64 82.407 152.617 82.196 151.59C80.0318 151.407 75.9096 151.636 69.3618 154.208Z" fill="#F7E9E4"/>
<path d="M39.6262 69.6186C39.6262 69.6186 32.4043 78.271 31.6203 81.2561C30.8362 84.2457 29.1121 90.2249 33.0325 95.5714C36.9575 100.918 41.3548 105.792 41.5107 106.892C41.6666 107.993 40.7267 109.726 42.4507 110.354C44.1794 110.983 44.1794 110.827 44.3353 111.771C44.4866 112.67 57.6281 106.356 67.4773 110.538C67.945 110.74 68.2384 109.708 68.0092 109.254L54.3817 81.7329L39.6262 69.6186Z" fill="#E0584A"/>
<path d="M39.6263 69.6186C49.1041 63.1854 54.955 46.5729 54.4918 46.4216C54.1434 46.3024 51.8232 47.2607 50.7548 47.7192C50.4293 47.8568 50.0533 47.7376 49.8607 47.4349C46.7519 42.5287 47.4763 33.3902 47.9211 33.0921C48.3796 32.7849 61.2185 29.2634 65.3498 28.1904C69.4766 27.1175 78.7114 27.255 78.7114 27.255L90.2709 29.9466C93.8429 31.5698 97.5203 33.0508 100.849 35.1555C101.798 35.7562 102.61 36.3844 103.426 37.1455C104.059 37.7278 104.682 38.3194 105.306 38.9154C108.021 41.497 110.698 44.1152 113.367 46.7471C113.55 46.9305 113.633 47.1965 113.583 47.4533C112.257 54.3954 104.238 56.3808 102.303 56.7614C102.069 56.8073 101.826 56.7156 101.684 56.523C100.276 54.5926 94.792 50.9748 92.504 49.5075C91.9996 49.1865 91.3255 49.4249 91.1329 49.9935C89.2805 55.5417 86.378 59.7419 80.7885 66.6381C79.2387 68.5502 77.7622 70.6274 76.4233 72.6541C76.3912 73.3235 76.2307 74.8596 75.465 75.3273C74.4746 75.928 74.9652 76.7946 74.6809 77.3953C74.4654 77.8492 73.2778 79.023 72.2186 79.5503C70.7926 82.0814 69.9351 83.7963 69.9351 83.7963C69.9351 83.7963 68.4036 84.5621 60.9158 84.5621C49.2967 84.7134 49.448 80.5775 43.9456 76.4415C38.4433 72.3056 39.6263 69.6186 39.6263 69.6186Z" fill="#F7E9E4"/>
<path d="M89.019 172.054C89.019 172.054 89.1153 169.748 86.9877 170.041C84.8555 170.335 84.0164 171.907 84.5116 173.035C85.0114 174.163 81.4395 175.236 80.4307 174.553C79.4174 173.87 78.537 175.342 79.2248 176.273C79.908 177.208 80.6921 179.464 80.6921 180.005C80.6921 180.546 79.908 182.018 82.5033 181.381C83.5395 181.124 84.64 181.138 85.6946 181.092C86.9877 181.037 88.2578 180.711 89.5463 180.587C90.2249 180.519 90.8944 180.509 91.573 180.404C92.4809 180.257 93.4438 180.115 94.315 179.803C95.5118 179.414 96.6581 178.872 97.7219 178.203C98.5747 177.667 99.3726 177.047 100.106 176.355C100.835 175.663 101.528 174.98 102.179 174.209C102.413 173.934 102.495 173.741 102.431 173.393C102.312 172.733 101.817 172.247 101.248 171.935C100.551 171.545 100.189 171.444 99.4047 171.371C95.1037 171.875 93.5263 172.641 92.4992 173.476C91.4675 174.315 89.1428 172.93 89.019 172.054Z" fill="#F7E9E4"/>
<path d="M87.24 28.7407C90.0324 29.0662 92.4947 27.6998 93.7282 25.6135C95.1863 23.7106 96.0208 20.5972 96.2914 18.1853L97.0158 12.7609C97.2405 10.7067 95.8145 8.85423 93.8245 8.62038L85.2041 7.60703C83.2141 7.37318 81.4167 8.84964 81.192 10.9039L80.4904 17.2774C80.2749 19.2399 80.4721 21.2345 81.1003 23.0962C82.187 26.3105 83.934 28.3509 87.24 28.7407Z" fill="#F79176"/>
<path d="M91.7289 25.0632C90.7752 27.4522 90.3029 32.3264 90.3029 32.3264C90.3029 32.3264 89.1153 37.6866 84.2182 36.6136C80.6967 35.8433 78.9405 31.9045 78.2344 29.7494C78.0051 29.0525 78.216 28.2684 78.7938 27.8328C81.4487 25.8107 80.9855 20.5055 80.9855 20.5055L91.7289 25.0632Z" fill="#F79176"/>
<path d="M81.2057 13.7238C81.2057 13.7238 80.1923 12.174 79.1973 13.6688C78.2069 15.1636 78.9084 19.6663 80.9076 19.3316L81.2057 13.7238Z" fill="#F79176"/>
<path d="M95.8098 15.7826C95.8098 15.7826 97.112 14.5033 97.7173 16.1861C98.3225 17.8735 96.869 22.1241 95.0578 21.34L95.8098 15.7826Z" fill="#F79176"/>
<mask id="mask2_193_1009" style="mask-type:luminance" maskUnits="userSpaceOnUse" x="76" y="0" width="27" height="12">
<path d="M102.422 0H76.5975V11.0001H102.422V0Z" fill="white"/>
</mask>
<g mask="url(#mask2_193_1009)">
<path d="M101.367 8.56534C101.752 8.12973 101.688 7.46945 101.331 7.01551C100.968 6.56615 100.372 6.30937 99.7625 6.20391C100.501 5.28685 100.349 3.8975 99.4415 3.12259C98.529 2.34309 96.9654 2.27889 95.975 2.97586C95.3743 1.41686 93.7191 0.192583 91.8803 0.100877C90.0416 0.00917114 88.1754 1.16467 87.7719 2.76952C87.0887 2.35226 86.3963 1.93041 85.6122 1.69656C84.8282 1.46271 83.9294 1.43979 83.2096 1.80202C82.4897 2.16426 82.0311 2.97586 82.3017 3.67282C81.4121 3.53527 80.4675 3.54902 79.6238 3.84707C78.7802 4.14511 78.0465 4.75495 77.7989 5.53445C77.5467 6.30937 77.8585 7.24019 78.6197 7.67579C77.8998 7.76291 77.4917 8.56992 77.7347 9.18435C77.9777 9.7942 78.6839 10.1839 79.4038 10.294C80.1191 10.4086 80.8527 10.294 81.568 10.1839C85.5481 9.5741 89.6932 9.13391 93.5769 10.1289C94.4206 10.3444 95.2551 10.6287 96.1309 10.6975C97.3827 10.7938 97.9513 10.3719 98.7812 9.68874C99.5057 9.09723 100.735 9.28523 101.367 8.56534Z" fill="#86413B"/>
</g>
<path d="M92.2013 16.6125C92.2013 17.1673 92.4672 17.6167 92.7928 17.6167C93.1184 17.6167 93.3843 17.1673 93.3843 16.6125C93.3843 16.0531 93.1184 15.6037 92.7928 15.6037C92.4672 15.6037 92.2013 16.0531 92.2013 16.6125Z" fill="#372F2E"/>
<path d="M85.6214 16.1724C85.6214 16.7318 85.8873 17.1811 86.2129 17.1811C86.543 17.1811 86.809 16.7318 86.809 16.1724C86.809 15.6175 86.543 15.1682 86.2129 15.1682C85.8873 15.1682 85.6214 15.6175 85.6214 16.1724Z" fill="#372F2E"/>
<path d="M94.6268 13.4671C94.3013 13.2103 93.6685 13.224 93.3384 13.2011C92.7744 13.169 91.784 13.1461 91.4951 13.7789C91.2658 14.2787 92.27 14.4758 92.5451 14.5263C93.1504 14.6317 93.9711 14.6913 94.5306 14.3658C94.7094 14.2603 94.8332 14.1228 94.8332 13.8981C94.8332 13.7055 94.7506 13.5634 94.6268 13.4671Z" fill="#86413B"/>
<path d="M87.5059 13.2974C87.3088 13.0773 86.9419 12.9718 86.676 12.903C86.0386 12.7425 84.851 12.3482 84.365 13.0498C84.0578 13.4991 85.0161 13.8751 85.2775 13.9714C85.8598 14.1823 86.6531 14.3887 87.2583 14.1686C87.4509 14.0998 87.6022 13.9806 87.6343 13.7651C87.6664 13.5679 87.6114 13.4166 87.5059 13.2974Z" fill="#86413B"/>
<path d="M88.909 20.698C88.909 20.698 88.9136 20.6935 88.9182 20.6935C88.9594 20.6935 89.9269 20.6063 90.335 20.2303C90.7431 19.8544 90.2662 17.5296 90.1654 17.0711C90.1516 17.0069 90.092 16.9702 90.0278 16.984C89.9682 16.9977 89.9269 17.0573 89.9407 17.1169C90.2204 18.4146 90.3855 19.8681 90.1791 20.0607C89.8306 20.3817 88.909 20.4688 88.8998 20.4688C88.8356 20.4734 88.7898 20.5284 88.7944 20.5926C88.799 20.6522 88.8494 20.698 88.909 20.698Z" fill="#CD664E"/>
<path d="M86.4284 22.578C86.5843 22.8669 86.942 23.0366 87.2171 23.1787C87.5977 23.3713 88.0149 23.518 88.4414 23.5639C88.8311 23.6097 89.23 23.5868 89.6106 23.4905C89.9224 23.4171 90.4314 23.2842 90.4772 22.8853L90.5047 22.6743C90.5093 22.656 90.5093 22.6331 90.5093 22.6055C90.5047 22.3946 90.3718 22.1516 90.1654 22.0966C90.0279 22.0599 89.8353 22.1195 89.6931 22.1241C89.5281 22.1287 89.363 22.1287 89.1933 22.1241C88.4276 22.1012 87.6756 21.9361 86.9603 21.6564C86.7631 21.583 86.5522 21.7573 86.4513 21.9132C86.4192 21.9774 86.3871 22.0461 86.3734 22.1195C86.3367 22.3029 86.3596 22.4542 86.4284 22.578Z" fill="#CD664E"/>
<path d="M80.4858 16.0073C80.55 16.0073 80.6004 15.9568 80.6004 15.8927C80.6004 15.8789 80.4995 14.54 80.0043 14.109C79.8759 13.9943 79.7292 13.9485 79.5733 13.9714C79.5091 13.976 79.4633 14.0356 79.477 14.0998C79.4816 14.164 79.5412 14.2099 79.6054 14.2007C79.6925 14.1869 79.7705 14.2144 79.8484 14.2786C80.2382 14.6179 80.3666 15.778 80.3666 15.8927C80.3666 15.9568 80.4216 16.0073 80.4858 16.0073Z" fill="#CD664E"/>
<path d="M80.3941 15.7184C80.4079 15.7184 80.4262 15.7184 80.44 15.7093C80.4996 15.6817 80.5271 15.613 80.4996 15.5534C80.4904 15.535 80.2703 15.0536 79.8622 14.8518C79.8072 14.8243 79.7338 14.8472 79.7063 14.9068C79.6788 14.9619 79.7017 15.0306 79.7567 15.0581C80.0915 15.2278 80.2841 15.6496 80.2886 15.6496C80.307 15.6955 80.3482 15.7184 80.3941 15.7184Z" fill="#CD664E"/>
<path d="M96.3738 18.4925C96.4335 18.4925 96.4885 18.4375 96.4885 18.3779C96.4885 18.2586 96.6169 17.0894 96.9974 16.7593C97.0708 16.6996 97.1442 16.6721 97.2221 16.6859C97.2863 16.6905 97.3459 16.6492 97.3505 16.585C97.3597 16.5254 97.3184 16.4658 97.2542 16.4566C97.1075 16.4383 96.9699 16.4795 96.8461 16.5896C96.3555 17.016 96.2592 18.3641 96.2592 18.3779C96.2592 18.4375 96.3096 18.4925 96.3738 18.4925Z" fill="#CD664E"/>
<path d="M96.4609 18.2036C96.5021 18.2036 96.5434 18.1807 96.5617 18.1348C96.5663 18.1348 96.7543 17.7084 97.0799 17.5433C97.1349 17.5158 97.1532 17.447 97.1257 17.392C97.0982 17.3324 97.0294 17.3095 96.9744 17.3416C96.5801 17.5433 96.3646 18.0248 96.3554 18.0431C96.3279 18.1027 96.3554 18.1669 96.415 18.1944C96.4288 18.2036 96.4425 18.2036 96.4609 18.2036Z" fill="#CD664E"/>
<path d="M86.3734 22.1195C86.8457 22.3671 87.694 22.7202 88.9091 22.8761C89.8857 22.9999 90.3213 22.8211 90.5093 22.6055C90.5047 22.3946 90.3718 22.1516 90.1654 22.0966C90.0279 22.0599 89.8353 22.1195 89.6931 22.1241C89.5281 22.1287 89.363 22.1287 89.1933 22.1241C88.4276 22.1012 87.6756 21.9361 86.9603 21.6564C86.7631 21.583 86.5522 21.7573 86.4513 21.9132C86.4192 21.9774 86.3871 22.0461 86.3734 22.1195Z" fill="#FFF7F3"/>
<path d="M141.787 56.2249C141.787 56.2249 144.996 54.2303 145.914 53.6205C146.831 53.006 149.43 53.3132 150.192 53.006C150.957 52.6988 152.791 52.8547 151.416 54.5375C150.04 56.2249 147.748 55.3033 147.44 55.6105C147.133 55.9177 142.241 61.8923 142.241 61.8923L141.787 56.2249Z" fill="#F79176"/>
<path d="M149.031 61.6448C149.031 61.6448 146.679 60.9661 146.922 60.0858C147.165 59.21 148.798 59.6135 148.798 59.6135C148.798 59.6135 145.501 58.5726 146.808 57.8023C148.114 57.0319 150.159 58.0361 150.159 58.0361C150.159 58.0361 144.561 57.1603 147.94 55.6976C148.655 55.3858 149.261 55.2024 149.774 55.1015C150.563 54.9456 151.127 54.9961 151.512 55.1061C151.961 55.2299 152.273 55.6288 152.305 56.0828C152.425 57.8206 152.434 62.2454 149.031 61.6448Z" fill="#F79176"/>
<path d="M65.8816 105.178C63.534 101.688 61.1863 98.2033 58.834 94.7139C56.6056 91.3988 54.4596 88.0652 51.0665 85.823C50.9015 85.7176 51.0574 85.4516 51.2224 85.5571C52.7998 86.6025 54.1937 87.8681 55.3996 89.3262C56.6652 90.8669 57.7473 92.5451 58.8569 94.1958C61.2872 97.8044 63.7174 101.413 66.143 105.022C66.2576 105.187 65.9917 105.343 65.8816 105.178Z" fill="#C54434"/>
<path d="M56.711 91.0044C57.2246 90.1378 57.7886 89.3032 58.4168 88.5146C58.9165 87.8818 59.476 87.0152 60.2738 86.7538C60.4618 86.6896 60.5443 86.9877 60.3563 87.0473C59.5814 87.3041 58.9441 88.3266 58.4672 88.9456C57.9215 89.6517 57.4309 90.3945 56.977 91.1603C56.8761 91.3299 56.6101 91.174 56.711 91.0044Z" fill="#C54434"/>
<path d="M45.5504 107.754C44.9359 108.199 44.2252 108.438 43.4641 108.451C43.3219 108.456 43.2715 108.286 43.354 108.19C43.9684 107.456 44.6608 106.805 45.4266 106.237C45.5871 106.118 45.743 106.388 45.5825 106.503C44.8351 107.058 44.1656 107.695 43.5695 108.406C43.5374 108.318 43.5007 108.231 43.4641 108.144C44.1748 108.126 44.8213 107.901 45.3945 107.489C45.555 107.369 45.7109 107.635 45.5504 107.754Z" fill="#C54434"/>
<path d="M116.416 56.3258C116.462 56.3258 116.508 56.2937 116.522 56.2479C117.127 54.3541 118.608 53.6067 118.622 53.6021C118.677 53.57 118.7 53.5059 118.672 53.4508C118.649 53.3958 118.58 53.3729 118.525 53.4004C118.461 53.4325 116.948 54.1891 116.311 56.1791C116.292 56.2387 116.324 56.2983 116.384 56.3166C116.393 56.3212 116.407 56.3258 116.416 56.3258Z" fill="#CD664E"/>
<path d="M36.1736 49.2415C36.2103 49.2415 36.2469 49.2232 36.2699 49.1865C37.4162 47.2882 37.2328 45.1973 37.2236 45.1102C37.219 45.0506 37.164 45.0047 37.1044 45.0093C37.0448 45.0185 36.9989 45.0689 37.0035 45.1285C37.0081 45.1514 37.1915 47.2377 36.0819 49.0719C36.0452 49.1269 36.0635 49.1957 36.114 49.2232C36.1323 49.2369 36.1552 49.2415 36.1736 49.2415Z" fill="#CD664E"/>
<path d="M149.155 59.5951C149.155 59.5951 145.762 58.7056 146.986 57.8068C148.206 56.9081 150.37 57.8298 150.37 57.8298" fill="#F79176"/>
<path d="M149.916 57.8664C150.109 57.8664 150.274 57.8527 150.393 57.816C151.003 57.6509 151.87 57.252 151.906 57.2337C151.961 57.2107 151.989 57.142 151.961 57.0869C151.938 57.0319 151.87 57.009 151.815 57.0319C151.805 57.0365 150.925 57.4446 150.334 57.6051C149.751 57.7656 147.922 57.4171 147.339 57.1924C147.156 57.119 147.037 57.0273 146.991 56.9219C146.918 56.7568 147 56.555 147.069 56.3762L147.078 56.3533C147.151 56.1653 147.605 55.9406 147.876 55.8443C147.931 55.826 147.963 55.7618 147.94 55.7022C147.922 55.6471 147.858 55.6151 147.803 55.638C147.72 55.6655 147.009 55.9269 146.872 56.2753L146.867 56.2983C146.785 56.5046 146.684 56.7614 146.789 57.009C146.863 57.1741 147.014 57.3024 147.257 57.3941C147.775 57.5959 149.096 57.8664 149.916 57.8664Z" fill="#CD664E"/>
<path d="M149.183 59.7556C149.889 59.7556 151.567 59.1916 151.64 59.1687C151.695 59.1503 151.728 59.0861 151.709 59.0265C151.691 58.9715 151.627 58.9394 151.572 58.9578C151.553 58.9623 149.82 59.5493 149.164 59.5355C148.688 59.5263 148.192 59.2696 147.752 59.0403C147.592 58.9532 147.44 58.8752 147.298 58.8156C147.014 58.6918 146.817 58.513 146.743 58.3204C146.698 58.1828 146.707 58.0407 146.78 57.894C146.968 57.5134 147.569 57.5226 147.578 57.5226C147.638 57.5226 147.688 57.4767 147.688 57.4171C147.688 57.3575 147.642 57.3025 147.582 57.3025C147.55 57.3025 146.83 57.2887 146.583 57.7931C146.482 57.9948 146.468 58.2058 146.537 58.3984C146.629 58.6505 146.872 58.8706 147.211 59.0174C147.344 59.077 147.491 59.1549 147.651 59.2375C148.11 59.4759 148.633 59.7464 149.164 59.7556C149.169 59.7556 149.174 59.7556 149.183 59.7556Z" fill="#CD664E"/>
<path d="M147.39 60.9937C147.436 60.9937 147.472 60.9707 147.491 60.9295C147.514 60.8745 147.491 60.8103 147.436 60.7828C147.234 60.6956 146.986 60.5443 146.963 60.3426C146.941 60.1821 147.06 59.9895 147.298 59.7969C147.679 59.4943 148.55 59.6318 148.669 59.6639C148.71 59.6823 148.761 59.6685 148.788 59.6318C148.83 59.586 148.825 59.5172 148.775 59.4759C148.724 59.4347 147.656 59.2237 147.165 59.6227C146.858 59.8703 146.711 60.1316 146.743 60.3747C146.775 60.6131 146.977 60.824 147.349 60.9845C147.362 60.9937 147.376 60.9937 147.39 60.9937Z" fill="#CD664E"/>
<path d="M11.5824 62.5755C11.6283 62.5755 11.6741 62.548 11.6879 62.4976C11.6971 62.4747 11.9034 61.8969 12.6279 61.8419C12.6875 61.8373 12.7333 61.7823 12.7242 61.7227C12.7196 61.6585 12.6691 61.6172 12.6095 61.6218C11.7337 61.6906 11.4907 62.4013 11.477 62.4288C11.4586 62.4884 11.4907 62.5526 11.5503 62.571C11.5595 62.571 11.5733 62.5755 11.5824 62.5755Z" fill="#CD664E"/>
<path d="M3.43448 65.5239C3.47116 65.5239 3.50326 65.5055 3.52619 65.4735C3.53994 65.4551 4.77339 63.621 5.01641 63.2312C5.21358 62.9194 6.60751 61.7043 7.13023 61.2641C7.17608 61.2229 7.18067 61.1541 7.14399 61.1082C7.10272 61.0624 7.03394 61.0578 6.98809 61.0945C6.91014 61.1633 5.08977 62.7131 4.833 63.112C4.58998 63.5018 3.35653 65.3359 3.34277 65.3542C3.31068 65.4047 3.32443 65.4689 3.37487 65.5055C3.39321 65.5193 3.41614 65.5239 3.43448 65.5239Z" fill="#CD664E"/>
<path d="M3.37478 62.8736C3.40687 62.8736 3.43439 62.8598 3.45731 62.8369C3.47565 62.8186 5.30519 60.7873 5.74538 60.4984C5.79581 60.4663 5.80957 60.3975 5.77747 60.3471C5.74538 60.2967 5.6766 60.2829 5.62157 60.315C5.15846 60.6222 3.37019 62.6031 3.29224 62.6902C3.25097 62.736 3.25556 62.8048 3.30141 62.8461C3.32434 62.8644 3.34726 62.8736 3.37478 62.8736Z" fill="#CD664E"/>
<path d="M82.1228 11.4495C82.1228 11.4495 81.7697 14.8289 81.4625 14.9848C81.1553 15.1407 80.7655 12.6463 80.7655 12.6463L81.2286 10.6608L82.1228 11.4495Z" fill="#86413B"/>
<path d="M96.892 15.3699C96.892 15.3699 96.6536 16.2457 96.5435 15.8926C96.4381 15.5396 96.4564 12.3023 96.4564 12.3023L97.323 12.5087L96.892 15.3699Z" fill="#86413B"/>
<path d="M98.1437 11.1377C98.1804 10.4132 98.5609 9.56496 98.0382 9.10643C97.6393 8.74878 97.0891 8.56078 96.5526 8.39571C92.5588 7.15768 88.2257 6.77252 84.0301 7.28148C83.1131 7.39153 82.1456 7.57036 81.4761 8.13435C80.9396 8.59288 81.068 9.04682 80.9947 9.70711C80.958 10.0051 80.5591 10.5187 80.582 10.8213C80.6278 11.4174 81.1781 11.8897 81.8567 11.9035C84.3007 11.9585 86.74 12.0823 89.1748 12.2749C90.5688 12.3849 91.9627 12.5225 93.352 12.6784C94.6176 12.8251 96.0803 13.2332 97.3504 13.1873C98.2996 13.1507 98.107 11.9493 98.1437 11.1377Z" fill="#E0584A"/>
<path d="M95.7091 10.3765C94.0354 9.84923 92.3159 9.56036 90.5644 9.51909C90.358 9.51451 90.358 9.19354 90.5644 9.19812C92.3435 9.24398 94.095 9.53285 95.7962 10.0693C95.9888 10.1289 95.9062 10.4407 95.7091 10.3765Z" fill="#C54434"/>
<path d="M93.2926 10.748C90.7019 10.2711 88.0883 10.0235 85.4563 10.0006C85.2545 9.99597 85.25 9.675 85.4563 9.67958C88.1158 9.70251 90.7615 9.95929 93.3751 10.4362C93.5769 10.4774 93.4943 10.7846 93.2926 10.748Z" fill="#C54434"/>
<path d="M92.5865 44.3398C92.4902 46.2702 92.0042 48.141 91.1421 49.8743C91.055 50.0531 90.7891 49.8926 90.8762 49.7184C91.7107 48.031 92.1876 46.2152 92.2793 44.3398C92.2885 44.1426 92.5957 44.1426 92.5865 44.3398Z" fill="#E5C9C2"/>
<path d="M54.5742 46.2565C56.2204 46.0823 57.7427 45.4311 59.2512 44.7754C60.7277 44.1289 62.2042 43.4824 63.6852 42.8359C63.864 42.7579 64.0199 43.0239 63.8411 43.1018C62.2363 43.8034 60.6406 44.5049 59.0403 45.2019C57.6005 45.8255 56.1424 46.3986 54.5742 46.5683C54.3771 46.5866 54.3771 46.2794 54.5742 46.2565Z" fill="#E5C9C2"/>
<path d="M87.758 4.5257C87.4279 4.29185 87.0702 4.10843 86.6805 3.99839C86.3503 3.90668 85.8781 3.79663 85.6167 4.1497C85.4425 4.38814 85.5112 4.8375 85.5479 5.09886C85.5571 5.18598 85.4746 5.28227 85.3874 5.22266C84.9702 4.94754 84.4933 4.84208 84.0027 4.9613C83.4249 5.09886 82.7967 5.58948 82.9205 6.25894C82.9435 6.3965 82.7325 6.45611 82.7096 6.31855C82.4299 4.81457 84.5116 4.37438 85.4975 5.03466C85.4425 5.07593 85.3874 5.1172 85.3324 5.15847C85.2682 4.66325 85.2132 3.92502 85.8047 3.70951C86.4466 3.48025 87.3683 3.98922 87.8681 4.33311C87.9873 4.41565 87.8727 4.60365 87.758 4.5257Z" fill="#7C3431"/>
<path d="M97.0846 7.40066C97.2129 7.62076 97.3367 7.85461 97.378 8.1068C97.4193 8.36357 97.3597 8.64786 97.1808 8.8221C97.0662 8.93215 96.9103 8.99176 96.7544 9.01927C96.1858 9.12015 95.5714 8.78542 95.3284 8.24436C95.2458 8.6983 94.7323 8.93674 94.2829 8.93674C93.5447 8.93674 92.8386 8.46904 92.5038 7.79041C92.4901 7.75831 92.2012 6.9192 92.2012 6.9192L93.9941 7.06135L97.0846 7.40066Z" fill="#86413B"/>
<path d="M95.6219 4.6724C96.3922 3.9571 97.5569 5.52986 96.4014 5.75912C96.4014 5.69034 96.4014 5.62156 96.4014 5.5482C96.8095 5.65824 97.4147 6.02048 97.5523 6.44233C97.6394 6.70828 97.5248 6.97881 97.2542 7.06134C97.1167 7.10261 97.0617 6.8871 97.1946 6.85042C97.7311 6.68535 97.0112 6.13512 96.9103 6.05716C96.7315 5.92419 96.5573 5.81873 96.3418 5.75912C96.2409 5.73619 96.2317 5.57112 96.3418 5.5482C96.8691 5.44273 96.406 4.24597 95.7778 4.8283C95.6723 4.9246 95.5164 4.7687 95.6219 4.6724Z" fill="#7C3431"/>
<path d="M77.5924 18.2999C77.3265 18.4833 76.8817 18.7768 76.9276 19.1482C76.9734 19.5426 77.4044 19.6939 77.7346 19.7856C77.7988 19.8039 77.8492 19.8956 77.8034 19.9598C77.7437 20.0378 77.7208 20.0607 77.6245 20.0882C77.4824 20.1341 77.4228 19.9094 77.5603 19.8635C77.5741 19.8589 77.5878 19.8498 77.6016 19.8406C77.6245 19.8956 77.6475 19.9552 77.6704 20.0148C77.2485 19.891 76.7625 19.6755 76.6891 19.1803C76.6203 18.6897 77.1247 18.3412 77.4732 18.0982C77.597 18.0156 77.7162 18.2174 77.5924 18.2999Z" fill="#7C3431"/>
<path d="M56.5826 119.75C56.6056 119.75 56.6331 119.74 56.6514 119.722C56.7019 119.685 56.7064 119.612 56.6652 119.566C54.8907 117.521 50.0853 113.128 50.0394 113.083C49.9936 113.046 49.9248 113.046 49.8835 113.092C49.8423 113.138 49.8468 113.206 49.8881 113.248C49.9385 113.294 54.7348 117.677 56.5001 119.713C56.5184 119.736 56.5505 119.75 56.5826 119.75Z" fill="#CD664E"/>
<path d="M151.402 54.134C151.402 54.134 152.319 53.5746 152.461 54.2945C152.608 55.0098 152.269 55.8168 151.925 55.8902C151.585 55.9636 150.921 55.7847 150.921 55.7847L151.402 54.134Z" fill="#F79176"/>
<path d="M144.157 59.2741C144.171 59.2741 144.18 59.2696 144.189 59.2696C144.258 59.2466 145.799 58.7652 146.243 57.4217C146.615 56.3075 147.541 55.6288 147.747 55.4867C149.994 56.1516 151.388 54.7347 151.402 54.7209C151.42 54.7026 152.035 54.1432 152.021 53.5517C152.021 53.4921 151.971 53.4417 151.911 53.4417C151.851 53.4462 151.801 53.4921 151.801 53.5563C151.81 54.0515 151.255 54.5559 151.251 54.5605C151.232 54.5834 149.903 55.9223 147.761 55.262C147.734 55.2528 147.697 55.2574 147.674 55.2758C147.624 55.3033 146.477 56.0232 146.037 57.3529C145.629 58.5864 144.143 59.0495 144.125 59.0541C144.07 59.077 144.038 59.1366 144.052 59.1962C144.07 59.2421 144.111 59.2741 144.157 59.2741Z" fill="#CD664E"/>
<path d="M149.967 56.3212C150.224 56.3166 151.902 55.8535 152.09 55.7985C152.149 55.7848 152.186 55.7206 152.168 55.6609C152.154 55.6059 152.09 55.5692 152.035 55.583C151.297 55.7893 150.136 56.0966 149.967 56.0966C149.641 56.1057 148.243 56.0048 147.977 55.7343C147.899 55.6564 147.881 55.6013 147.89 55.5784C147.899 55.5463 147.977 55.5142 148.014 55.505C148.073 55.4913 148.11 55.4317 148.096 55.3721C148.082 55.3125 148.023 55.2758 147.963 55.2895C147.94 55.2941 147.729 55.3446 147.679 55.5188C147.647 55.6334 147.693 55.7572 147.816 55.8856C148.206 56.2845 149.935 56.3212 149.967 56.3212Z" fill="#CD664E"/>
<path d="M77.5788 65.0745C75.0752 66.4135 72.5716 67.7569 70.0635 69.0959C67.6883 70.366 65.226 71.5673 63.158 73.3189C63.0067 73.4473 62.7866 73.2272 62.9379 73.0988C64.9784 71.3793 67.3811 70.1826 69.7196 68.9308C72.2873 67.5552 74.8551 66.1842 77.4274 64.8086C77.5971 64.7169 77.753 64.9828 77.5788 65.0745Z" fill="#E5C9C2"/>
<path d="M65.1022 106.342C63.3506 106.049 61.5348 106.044 59.7695 105.994C58.0133 105.948 56.2525 105.962 54.5101 106.173C51.195 106.572 48.0357 107.768 45.1653 109.46C44.9956 109.561 44.8397 109.295 45.0094 109.194C47.866 107.511 51.0024 106.315 54.2992 105.888C56.1104 105.659 57.9399 105.636 59.7695 105.687C61.5669 105.737 63.4056 105.746 65.1801 106.044C65.3773 106.076 65.2948 106.374 65.1022 106.342Z" fill="#C54434"/>
<path d="M14.9024 151.727C14.2146 151.205 12.9444 151.196 12.2612 151.682C12.1558 151.76 12.0503 151.581 12.1558 151.503C12.5684 151.209 13.0407 151.099 13.5451 151.136C14.0128 151.168 14.6272 151.26 15.0078 151.549C15.1087 151.627 15.0078 151.805 14.9024 151.727Z" fill="#E5C9C2"/>
<path d="M15.0308 154.057C14.5035 153.933 14.0633 153.837 13.536 153.993C13.16 154.107 12.7748 154.249 12.4447 154.46C12.3301 154.534 12.2246 154.355 12.3392 154.282C12.7198 154.043 13.1738 153.873 13.6048 153.759C14.1229 153.621 14.5723 153.74 15.0858 153.86C15.2142 153.887 15.1592 154.089 15.0308 154.057Z" fill="#E5C9C2"/>
<path d="M15.1774 155.799C14.4529 155.763 13.4258 155.607 12.8068 156.106C12.7059 156.189 12.5592 156.042 12.66 155.96C13.3433 155.409 14.3749 155.556 15.1774 155.593C15.3103 155.597 15.3103 155.804 15.1774 155.799Z" fill="#E5C9C2"/>
<path d="M15.7551 157.73C15.0306 157.711 14.2602 157.702 13.6687 158.188C13.5679 158.271 13.4211 158.124 13.522 158.041C14.164 157.519 14.9664 157.5 15.7551 157.519C15.888 157.523 15.888 157.73 15.7551 157.73Z" fill="#E5C9C2"/>
<path d="M16.2641 158.679C15.6405 159.197 14.5355 159.206 13.8798 158.72C13.0269 158.083 12.7014 156.652 12.4721 155.68C11.876 153.158 11.8301 150.618 12.2612 148.068C12.2841 147.94 12.4858 147.995 12.4629 148.123C12.1007 150.265 12.0915 152.328 12.4446 154.47C12.6142 155.487 12.8481 156.501 13.2608 157.45C13.5038 158 13.8018 158.56 14.4117 158.757C14.9619 158.936 15.6635 158.908 16.122 158.532C16.2229 158.45 16.3696 158.592 16.2641 158.679Z" fill="#E5C9C2"/>
<path d="M95.3102 172.251C95.113 172.742 95.0304 173.246 94.7507 173.709C94.5077 174.108 94.1776 174.461 93.8062 174.741C92.9396 175.383 91.8345 175.631 90.7707 175.53C89.496 175.406 88.2121 174.952 87.0154 174.503C86.0708 174.15 85.1125 173.778 84.4934 172.944C84.4155 172.838 84.5943 172.737 84.6723 172.843C85.2913 173.682 86.323 174.035 87.2675 174.379C88.2763 174.746 89.3263 175.094 90.3855 175.268C91.4539 175.447 92.5727 175.305 93.4898 174.709C93.9254 174.425 94.3014 174.049 94.5719 173.604C94.8425 173.159 94.9204 172.669 95.113 172.192C95.1634 172.073 95.3606 172.128 95.3102 172.251Z" fill="#E5C9C2"/>
<path d="M89.7435 173.127C89.3354 173.563 88.6797 174.191 88.6659 174.824C88.6659 174.957 88.4596 174.957 88.4596 174.824C88.4779 174.113 89.1428 173.471 89.5967 172.98C89.6884 172.884 89.8352 173.031 89.7435 173.127Z" fill="#E5C9C2"/>
<path d="M91.0458 173.792C90.6789 174.228 90.6468 174.925 90.6514 175.47C90.6514 175.603 90.4451 175.603 90.4451 175.47C90.4405 174.86 90.4955 174.131 90.899 173.645C90.9862 173.544 91.1329 173.691 91.0458 173.792Z" fill="#E5C9C2"/>
<path d="M92.6598 173.54C92.4902 174.081 92.4397 174.636 92.5085 175.2C92.5223 175.328 92.3159 175.328 92.3022 175.2C92.2334 174.622 92.2884 174.04 92.4627 173.485C92.4993 173.361 92.7011 173.411 92.6598 173.54Z" fill="#E5C9C2"/>
<path d="M94.1729 172.641C93.9574 173.26 93.8886 173.856 93.9528 174.512C93.9665 174.64 93.7602 174.64 93.7464 174.512C93.6822 173.838 93.7556 173.223 93.9757 172.586C94.017 172.462 94.2141 172.513 94.1729 172.641Z" fill="#E5C9C2"/>
<path d="M6.5662 146.757C5.99763 146.986 5.92426 148.119 6.40113 149.288C6.878 150.453 7.7217 151.209 8.28569 150.98C8.84968 150.746 8.92305 149.614 8.45076 148.449C7.97389 147.284 7.13019 146.528 6.5662 146.757Z" fill="#E5C9C2"/>
<path d="M81.9762 177.712C81.8432 178.308 82.7281 179.015 83.9478 179.285C85.1721 179.56 86.268 179.303 86.401 178.707C86.5385 178.116 85.6536 177.405 84.4339 177.13C83.2096 176.855 82.1137 177.116 81.9762 177.712Z" fill="#E5C9C2"/>
<path d="M73.4565 128.251C74.8229 128.251 75.905 127.879 75.928 127.87C75.983 127.847 76.0151 127.788 75.9922 127.728C75.9738 127.673 75.9096 127.641 75.8546 127.664C75.8133 127.678 72.0717 128.971 69.7974 126.641C69.7516 126.596 69.6828 126.596 69.6415 126.637C69.5957 126.683 69.5957 126.751 69.6369 126.793C70.7649 127.948 72.2276 128.251 73.4565 128.251Z" fill="#CD664E"/>
<path d="M49.966 126.444C50.021 126.444 50.0715 126.398 50.0715 126.339C50.076 126.279 50.0302 126.229 49.9706 126.224C49.9064 126.224 48.4345 126.128 48.2924 124.514C48.2832 124.454 48.2282 124.408 48.1686 124.417C48.109 124.422 48.0631 124.473 48.0723 124.537C48.2328 126.339 49.9431 126.444 49.9568 126.444C49.9614 126.444 49.9614 126.444 49.966 126.444Z" fill="#CD664E"/>
<path d="M88.5971 28.8415C89.8718 28.8415 90.931 28.328 90.986 28.3004C91.0411 28.2729 91.064 28.2041 91.0411 28.1445C91.0135 28.0895 90.9448 28.0666 90.8852 28.0941C90.8668 28.1033 89.2253 28.8965 87.6433 28.4976C85.768 28.0299 83.6679 27.1358 82.3015 24.0361C82.2786 23.9765 82.2098 23.9536 82.1547 23.9765C82.0951 24.004 82.0676 24.0682 82.0951 24.1278C83.4982 27.3146 85.6579 28.2362 87.5883 28.7223C87.9276 28.8048 88.2715 28.8415 88.5971 28.8415Z" fill="#CD664E"/>
<path d="M85.8048 170.564C85.2913 170.679 85.0253 171.082 84.7869 171.518C84.6448 171.774 84.5072 172.031 84.4934 172.334C84.4843 172.614 84.5897 172.847 84.6172 173.113C84.6631 173.595 84.2229 174.003 83.8515 174.255C83.3058 174.617 82.5034 174.741 81.8706 174.851C81.325 174.943 80.7931 174.961 80.3116 174.663C80.197 174.594 80.3025 174.416 80.4125 174.489C81.0957 174.906 81.9578 174.645 82.6777 174.457C83.6268 174.209 84.4889 173.838 84.3192 172.669C84.1908 171.793 84.8465 170.569 85.7498 170.362C85.8782 170.335 85.9332 170.532 85.8048 170.564Z" fill="#E5C9C2"/>
<path d="M16.044 148.027C15.0535 147.537 13.8155 146.963 12.7563 147.601C12.472 147.77 12.284 148.036 11.931 148.023C11.5595 148.004 11.1515 147.725 10.858 147.527C10.1656 147.055 9.41363 146.441 8.96427 145.721C8.77169 145.414 8.6433 145.07 8.62496 144.703C8.61579 144.529 8.62954 144.359 8.67998 144.185C8.73501 143.978 9.00095 143.667 8.96886 143.469C8.94593 143.341 9.1431 143.281 9.16602 143.414C9.21646 143.726 9.00095 143.891 8.90466 144.18C8.67998 144.822 8.9872 145.478 9.39987 145.964C9.96387 146.629 10.7204 147.303 11.5137 147.67C12.1235 147.954 12.4491 147.477 12.9535 147.275C13.2332 147.161 13.5404 147.115 13.8384 147.115C14.6638 147.115 15.425 147.491 16.1494 147.848C16.2641 147.908 16.1632 148.087 16.044 148.027Z" fill="#E5C9C2"/>
<path d="M70.5907 156.725C70.82 157.184 71.0538 157.656 71.2969 158.129C75.121 156.895 79.1148 156.249 83.1407 156.207C83.0352 155.694 82.9252 155.166 82.8197 154.639C78.6563 154.713 74.5341 155.419 70.5907 156.725Z" fill="#E0584A"/>
<path d="M16.4337 137.128C16.8235 138.215 17.415 139.182 18.1853 140.072C19.5059 141.608 21.0053 143.176 22.7248 144.336C23.2062 144.043 23.7014 143.74 24.2012 143.437C22.3029 142.337 20.6751 140.562 19.2949 138.962C18.5017 138.04 18.0615 137.018 17.7589 135.945C17.3187 136.344 16.8785 136.738 16.4337 137.128Z" fill="#E0584A"/>
<mask id="mask3_193_1009" style="mask-type:luminance" maskUnits="userSpaceOnUse" x="176" y="30" width="8" height="11">
<path d="M183.999 30.9553H176.374V40.346H183.999V30.9553Z" fill="white"/>
</mask>
<g mask="url(#mask3_193_1009)">
<path d="M176.479 35.5957C176.479 37.1639 177.433 38.5074 178.795 39.0714C178.891 39.1172 178.992 39.1539 179.093 39.1814C179.455 39.3006 179.84 39.3602 180.239 39.3602C182.312 39.3602 183.999 37.6728 183.999 35.5957C183.999 33.8487 182.811 32.3768 181.202 31.9504C181.11 31.9275 181.019 31.9091 180.922 31.8908C180.702 31.8495 180.473 31.8266 180.239 31.8266C178.162 31.8266 176.479 33.514 176.479 35.5957Z" fill="#9AB770"/>
</g>
<path d="M178.795 39.0713C178.891 39.1172 178.992 39.1538 179.093 39.1814C178.804 38.7137 178.643 38.1634 178.657 37.5857C178.694 36.4027 179.386 35.6186 180.299 34.9629C180.899 34.5319 181.339 34.0321 181.417 33.2663C181.459 32.8078 181.372 32.3676 181.202 31.9503C181.11 31.9274 181.019 31.9091 180.922 31.8907C181.294 32.7298 181.372 33.6836 180.643 34.4081C179.964 35.0821 179.18 35.3893 178.753 36.2972C178.318 37.2188 178.368 38.2322 178.795 39.0713Z" fill="#F7E9E4"/>
</svg>
