<svg width="1090" height="479" viewBox="0 0 1090 479" fill="none" xmlns="http://www.w3.org/2000/svg">
<mask id="mask0_636_113" style="mask-type:luminance" maskUnits="userSpaceOnUse" x="65" y="0" width="320" height="417">
<path d="M65 0H384.2V417H65V0Z" fill="white"/>
</mask>
<g mask="url(#mask0_636_113)">
<path d="M65 0H384.2V416.938H65V0Z" fill="#197BBB"/>
</g>
<path d="M280.309 305.033C280.309 335.69 255.369 360.537 224.6 360.537C193.829 360.537 168.888 335.69 168.888 305.033C168.888 274.379 193.829 249.488 224.6 249.488C255.369 249.488 280.309 274.335 280.309 305.033Z" fill="#F7F9F8"/>
<mask id="mask1_636_113" style="mask-type:luminance" maskUnits="userSpaceOnUse" x="65" y="286" width="320" height="131">
<path d="M65 286.786H384.2V417H65V286.786Z" fill="white"/>
</mask>
<g mask="url(#mask1_636_113)">
<path d="M384.2 331.549V416.775H65V331.887H73.7666V305.641H87.259V320.525H88.2801V319.083H97.4726V320.525H98.4937V335.45H106.922V308.356L117.135 294.786V325.274H129.817V309.67H130.882V304.328H131.351L135.138 295.507L135.392 287.409L135.649 295.507L139.435 304.328H139.905V309.67H140.97V330.913H146.927V317.895H156.163V335.45H160.545V317.895H169.781V329.555H174.72V308.78L181.955 301.697H186.039V336.551H188.679V312.893H190.465V311.704H192.679L193.146 301.613L193.615 311.704H195.83V312.893H197.615V324.213H204.17V344.143H208.383V334.092H209.661V321.754H211.023V315.224H216.852V321.754H218.214V334.092H219.492V338.757H222.045V327.097H223.322V311.027H222.94V309.457H232.302V311.027H231.92V327.097H233.197V337.952H235.963V318.956H243.326V331.337H246.602V310.222H253.583V329.343H258.689V313.105H262.435L265.839 317.133V329.343H270.096V338.757H274.521V303.522L276.522 300.427H282.097L284.055 303.735V330.276H287.034V323.533H286.31V322.603H297.717V323.533H296.993V335.406H301.76V320.016L308.995 314.587H313.082V325.908H316.145V318.404H317.166V316.962H326.359V318.404H327.383V332.398H330.318V302.418H331.68V301.444H334.148L334.83 294.109L335.426 301.529H337.809V302.503H339.597V317.854H343.979V302.503H345.555V301.529H348.023L348.618 294.109L349.216 301.529H351.599V302.503H353.131V338.798H358.365V326.46H360.196V314.546H362.154V308.228H370.41V314.546H372.368V326.46H374.197V331.549H384.2Z" fill="#6E74A1"/>
</g>
<mask id="mask2_636_113" style="mask-type:luminance" maskUnits="userSpaceOnUse" x="65" y="341" width="320" height="76">
<path d="M65 341.75H384.2V417H65V341.75Z" fill="white"/>
</mask>
<g mask="url(#mask2_636_113)">
<path d="M384.2 373.412V416.619H65V373.962H75.17V369.552H77.0429V359.249H79.044V353.738H87.513V359.208H89.5142V369.512H91.3871V380.196H96.7491V354.163C99.8971 354.163 103.048 354.119 106.198 354.119V362.048H110.665V354.076C113.815 354.076 116.966 354.076 120.114 354.076V374.726H123.136V362.641H124.201V361.371H133.606V362.6H134.669V369.087H137.819V359.293H141.991L149.395 363.998V377.313H154.29V367.009H153.523V366.204H165.227V367.009H164.463V372.86H167.526V349.922L169.527 347.039H187.743L189.785 349.71V358.063H193.487V372.139H198.723L198.68 354.756H207.021V350.431H207.531L208.893 347.716H214.343L215.705 350.431H216.216V355.009H217.321V368.535H230.303V342.078L240.771 353.823V377.313H249.412V364.379H250.477V363.15H259.882V364.379H260.944V351.448H274.778V374.174H280.224V363.024H287.162V379.475H290.015V370.061H291.333V356.154H290.908V354.797H300.482V356.154H300.059V370.061H301.378V380.152H303.974V376.083H305.293V365.399H306.696V359.717H312.656V365.399H314.059V376.083H315.378V384.776H319.678V367.518H326.446V357.68H328.275V356.662H330.531L331 347.929L331.467 356.662H333.722V357.68H335.554V378.33H338.235V348.141H342.404L349.811 354.247V372.267H354.832V362.132H364.281V377.356H368.75V362.132H378.199V373.412H384.2Z" fill="#293378"/>
</g>
<mask id="mask3_636_113" style="mask-type:luminance" maskUnits="userSpaceOnUse" x="65" y="355" width="320" height="62">
<path d="M65 355.106H384.2V417H65V355.106Z" fill="white"/>
</mask>
<g mask="url(#mask3_636_113)">
<path d="M383.689 403.982V394.824L381.262 391.9H375.515V375.066H369.515V373.964H372.283V369.936H353.087V373.964H355.853V375.066H349.003V391.9H339.256V378.373H334.361V377.228H335.043C335.977 377.228 336.788 376.464 336.788 375.49C336.788 374.557 336.021 373.752 335.043 373.752H330.446C329.509 373.752 328.701 374.514 328.701 375.49C328.701 376.423 329.466 377.228 330.446 377.228H331.213V378.373H309.167V377.228H309.847C310.783 377.228 311.591 376.464 311.591 375.49C311.591 374.557 310.827 373.752 309.847 373.752H305.249C304.313 373.752 303.505 374.514 303.505 375.49C303.505 376.423 304.272 377.228 305.249 377.228H306.016V378.373H299.336V390.839H281.459V392.365H275.288V374.81H270.224V368.366H267.543V355.264H265.924V368.366H251.965V374.81H246.9V384.776H237.238V374.81H219.066V364.338H215.023V374.81H210.895V392.365H204.765V383.462H200.17V382.401H200.85C201.787 382.401 202.595 381.637 202.595 380.663C202.595 379.73 201.83 378.925 200.85 378.925H196.253C195.319 378.925 194.508 379.687 194.508 380.663C194.508 381.596 195.275 382.401 196.253 382.401H197.02V383.462H176.762V398.131H167.952V394.062H169.23V392.408H167.57L165.099 388.72H143.776L141.308 392.408H139.82V394.062H141.095V404.025H136.926V399.149H136.287V397.794H136.926V388.04H128.37V386.174H131.138V382.146H111.943V386.174H114.708V388.04H107.473V397.794H108.112V399.149H107.473V399.997H104.451V386.046H105.813V383.631H95.4715V381.044H91.6V383.631H82.2792V375.022H81.0452V383.587H75.0007V386.005H76.363V395.419H65V417H384.2V403.982H383.689ZM115.262 386.09H127.859V387.956H115.262V386.09ZM356.407 373.964H369.004V375.066H356.407V373.964Z" fill="#1A1A4E"/>
</g>
<ellipse cx="131.993" cy="242.127" rx="1.47778" ry="1.47227" fill="#FDFF95"/>
<ellipse cx="215.733" cy="208.755" rx="1.47778" ry="1.47227" fill="#FDFF95"/>
<ellipse cx="164.504" cy="170.476" rx="1.47778" ry="1.47227" fill="#FDFF95"/>
<ellipse cx="344.3" cy="146.92" rx="1.47778" ry="1.47227" fill="#FDFF95"/>
<ellipse cx="278.785" cy="180.292" rx="1.47778" ry="1.47227" fill="#FDFF95"/>
<ellipse cx="341.344" cy="231.821" rx="1.47778" ry="1.47227" fill="#FDFF95"/>
<ellipse cx="298.489" cy="208.755" rx="1.47778" ry="1.47227" fill="#FDFF95"/>
<ellipse cx="299.967" cy="243.599" rx="1.47778" ry="1.47227" fill="#FDFF95"/>
<ellipse cx="367.944" cy="178.819" rx="1.47778" ry="1.47227" fill="#FDFF95"/>
<ellipse cx="93.0778" cy="156.735" rx="1.47778" ry="1.47227" fill="#FDFF95"/>
<ellipse cx="115.244" cy="275.007" rx="1.47778" ry="1.47227" fill="#FDFF95"/>
<rect x="65" width="319" height="417" fill="white" fill-opacity="0.7"/>
<mask id="mask4_636_113" style="mask-type:luminance" maskUnits="userSpaceOnUse" x="703" y="0" width="320" height="417">
<path d="M703.4 0H1022.6V417H703.4V0Z" fill="white"/>
</mask>
<g mask="url(#mask4_636_113)">
<path d="M703.4 0H1022.6V416.938H703.4V0Z" fill="#FF891F"/>
</g>
<mask id="mask5_636_113" style="mask-type:alpha" maskUnits="userSpaceOnUse" x="703" y="137" width="320" height="280">
<mask id="mask6_636_113" style="mask-type:luminance" maskUnits="userSpaceOnUse" x="703" y="137" width="320" height="280">
<path d="M703.4 137H1022.6V417H703.4V137Z" fill="white"/>
</mask>
<g mask="url(#mask6_636_113)">
<path d="M703.4 137H1022.6V416.959H703.4V137Z" fill="#FF891F"/>
</g>
</mask>
<g mask="url(#mask5_636_113)">
<mask id="mask7_636_113" style="mask-type:luminance" maskUnits="userSpaceOnUse" x="937" y="282" width="161" height="39">
<path d="M937.382 282.755H1097.57V320.366H937.382V282.755Z" fill="white"/>
</mask>
<g mask="url(#mask7_636_113)">
<path d="M1090.03 307.248C1088.79 307.248 1087.63 307.509 1086.6 307.963C1085.44 304.377 1081.65 301.748 1077.16 301.748C1076.36 301.748 1075.58 301.835 1074.83 301.992C1073.65 296.876 1068.45 293.025 1062.22 293.025C1056.79 293.025 1052.15 295.951 1050.26 300.09C1047.71 297.618 1044 296.061 1039.88 296.061C1039.19 296.061 1038.51 296.106 1037.84 296.19C1037.04 288.67 1029.76 282.786 1020.91 282.786C1015.41 282.786 1010.52 285.062 1007.41 288.588C1006.16 288.267 1004.84 288.093 1003.47 288.093C997.279 288.093 992.036 291.596 990.207 296.45C989.081 296.193 987.897 296.056 986.68 296.056C985.121 296.056 983.625 296.28 982.225 296.693C979.871 294.44 976.479 293.025 972.704 293.025C966.475 293.025 961.277 296.876 960.093 301.992C959.345 301.835 958.571 301.748 957.765 301.748C953.268 301.748 949.482 304.377 948.324 307.963C947.297 307.505 946.133 307.248 944.901 307.248C940.746 307.248 937.376 310.179 937.376 313.791C937.376 317.405 940.746 320.335 944.901 320.335H1090.03C1094.18 320.335 1097.55 317.405 1097.55 313.791C1097.55 310.179 1094.18 307.248 1090.03 307.248Z" fill="white"/>
</g>
<mask id="mask8_636_113" style="mask-type:luminance" maskUnits="userSpaceOnUse" x="647" y="204" width="161" height="38">
<path d="M647.244 204.234H807.43V241.845H647.244V204.234Z" fill="white"/>
</mask>
<g mask="url(#mask8_636_113)">
<path d="M799.889 228.727C798.656 228.727 797.493 228.987 796.466 229.442C795.303 225.856 791.516 223.227 787.025 223.227C786.225 223.227 785.445 223.314 784.697 223.47C783.512 218.354 778.315 214.504 772.086 214.504C766.657 214.504 762.018 217.43 760.127 221.569C757.573 219.096 753.866 217.539 749.742 217.539C749.048 217.539 748.368 217.585 747.705 217.668C746.9 210.148 739.628 204.264 730.775 204.264C725.273 204.264 720.381 206.54 717.269 210.066C716.021 209.745 714.699 209.571 713.33 209.571C707.142 209.571 701.899 213.075 700.07 217.928C698.944 217.672 697.76 217.535 696.543 217.535C694.984 217.535 693.488 217.759 692.088 218.172C689.734 215.918 686.342 214.504 682.567 214.504C676.338 214.504 671.14 218.354 669.956 223.47C669.208 223.314 668.434 223.227 667.628 223.227C663.131 223.227 659.345 225.856 658.187 229.442C657.16 228.983 655.996 228.727 654.764 228.727C650.609 228.727 647.239 231.658 647.239 235.27C647.239 238.883 650.609 241.814 654.764 241.814H799.889C804.044 241.814 807.413 238.883 807.413 235.27C807.413 231.658 804.044 228.727 799.889 228.727Z" fill="white"/>
</g>
</g>
<path d="M918.709 305.033C918.709 335.69 893.769 360.537 863 360.537C832.229 360.537 807.288 335.69 807.288 305.033C807.288 274.379 832.229 249.488 863 249.488C893.769 249.488 918.709 274.335 918.709 305.033Z" fill="#FFB600"/>
<mask id="mask9_636_113" style="mask-type:luminance" maskUnits="userSpaceOnUse" x="703" y="286" width="320" height="131">
<path d="M703.4 286.786H1022.6V417H703.4V286.786Z" fill="white"/>
</mask>
<g mask="url(#mask9_636_113)">
<path d="M1022.6 331.549V416.775H703.4V331.886H712.167V305.641H725.659V320.525H726.68V319.083H735.873V320.525H736.894V335.449H745.322V308.356L755.535 294.786V325.274H768.217V309.669H769.282V304.327H769.751L773.538 295.506L773.792 287.409L774.048 295.506L777.835 304.327H778.305V309.669H779.37V330.912H785.327V317.895H794.563V335.449H798.945V317.895H808.181V329.555H813.12V308.78L820.355 301.697H824.439V336.551H827.079V312.893H828.865V311.704H831.079L831.546 301.613L832.015 311.704H834.229V312.893H836.015V324.213H842.57V344.142H846.783V334.092H848.061V321.754H849.423V315.224H855.252V321.754H856.614V334.092H857.892V338.757H860.445V327.096H861.722V311.027H861.34V309.457H870.702V311.027H870.32V327.096H871.597V337.952H874.363V318.955H881.726V331.337H885.002V310.221H891.983V329.343H897.089V313.105H900.835L904.239 317.133V329.343H908.495V338.757H912.921V303.522L914.922 300.427H920.497L922.455 303.734V330.276H925.433V323.533H924.71V322.603H936.117V323.533H935.393V335.406H940.16V320.016L947.395 314.587H951.482V325.908H954.545V318.403H955.566V316.962H964.759V318.403H965.782V332.398H968.717V302.418H970.08V301.444H972.548L973.23 294.108L973.826 301.528H976.209V302.502H977.997V317.854H982.379V302.502H983.954V301.528H986.423L987.018 294.108L987.616 301.528H989.999V302.502H991.531V338.798H996.764V326.46H998.596V314.546H1000.55V308.228H1008.81V314.546H1010.77V326.46H1012.6V331.549H1022.6Z" fill="#931616"/>
</g>
<mask id="mask10_636_113" style="mask-type:luminance" maskUnits="userSpaceOnUse" x="703" y="341" width="320" height="76">
<path d="M703.4 341.75H1022.6V417H703.4V341.75Z" fill="white"/>
</mask>
<g mask="url(#mask10_636_113)">
<path d="M1022.6 373.412V416.619H703.4V373.962H713.57V369.553H715.443V359.249H717.444V353.738H725.913V359.208H727.914V369.512H729.787V380.196H735.149V354.163C738.297 354.163 741.448 354.119 744.598 354.119V362.048H749.065V354.076C752.215 354.076 755.366 354.076 758.514 354.076V374.726H761.536V362.641H762.601V361.371H772.006V362.6H773.068V369.087H776.219V359.293H780.391L787.795 363.998V377.313H792.69V367.009H791.923V366.204H803.627V367.009H802.863V372.86H805.926V349.922L807.927 347.039H826.143L828.185 349.71V358.063H831.887V372.139H837.123L837.08 354.756H845.421V350.431H845.931L847.293 347.716H852.743L854.105 350.431H854.616V355.009H855.721V368.535H868.703V342.078L879.171 353.823V377.313H887.812V364.379H888.876V363.15H898.282V364.379H899.344V351.448H913.178V374.174H918.624V363.025H925.562V379.475H928.415V370.061H929.733V356.154H929.307V354.797H938.882V356.154H938.459V370.061H939.778V380.152H942.374V376.083H943.693V365.399H945.096V359.717H951.056V365.399H952.459V376.083H953.778V384.776H958.078V367.518H964.846V357.68H966.675V356.663H968.93L969.4 347.929L969.867 356.663H972.122V357.68H973.954V378.33H976.635V348.141H980.804L988.211 354.247V372.267H993.232V362.132H1002.68V377.356H1007.15V362.132H1016.6V373.412H1022.6Z" fill="#631212"/>
</g>
<mask id="mask11_636_113" style="mask-type:luminance" maskUnits="userSpaceOnUse" x="703" y="355" width="320" height="62">
<path d="M703.4 355.106H1022.6V417H703.4V355.106Z" fill="white"/>
</mask>
<g mask="url(#mask11_636_113)">
<path d="M1022.09 403.982V394.824L1019.66 391.899H1013.92V375.065H1007.91V373.964H1010.68V369.936H991.487V373.964H994.253V375.065H987.403V391.899H977.656V378.373H972.761V377.228H973.443C974.377 377.228 975.188 376.464 975.188 375.49C975.188 374.557 974.421 373.752 973.443 373.752H968.846C967.909 373.752 967.101 374.513 967.101 375.49C967.101 376.423 967.866 377.228 968.846 377.228H969.613V378.373H947.567V377.228H948.247C949.183 377.228 949.991 376.464 949.991 375.49C949.991 374.557 949.227 373.752 948.247 373.752H943.649C942.713 373.752 941.905 374.513 941.905 375.49C941.905 376.423 942.672 377.228 943.649 377.228H944.416V378.373H937.735V390.839H919.858V392.365H913.688V374.81H908.624V368.366H905.943V355.264H904.324V368.366H890.364V374.81H885.3V384.776H875.638V374.81H857.466V364.338H853.423V374.81H849.295V392.365H843.165V383.462H838.57V382.401H839.25C840.187 382.401 840.995 381.637 840.995 380.663C840.995 379.73 840.23 378.925 839.25 378.925H834.653C833.719 378.925 832.908 379.687 832.908 380.663C832.908 381.596 833.675 382.401 834.653 382.401H835.42V383.462H815.162V398.131H806.352V394.062H807.629V392.408H805.97L803.499 388.72H782.176L779.708 392.408H778.22V394.062H779.495V404.025H775.326V399.148H774.687V397.794H775.326V388.04H766.77V386.174H769.538V382.146H750.342V386.174H753.108V388.04H745.873V397.794H746.512V399.148H745.873V399.997H742.851V386.046H744.213V383.631H733.871V381.044H730V383.631H720.679V375.022H719.445V383.587H713.401V386.005H714.763V395.419H703.4V417H1022.6V403.982H1022.09ZM753.662 386.09H766.259V387.955H753.662V386.09ZM994.807 373.964H1007.4V375.065H994.807V373.964Z" fill="#470F09"/>
</g>
<rect x="703" width="320" height="417" fill="white" fill-opacity="0.7"/>
<mask id="mask12_636_113" style="mask-type:luminance" maskUnits="userSpaceOnUse" x="384" y="0" width="320" height="417">
<path d="M384.2 0H703.4V417H384.2V0Z" fill="white"/>
</mask>
<g mask="url(#mask12_636_113)">
<path d="M384.2 0H703.4V416.938H384.2V0Z" fill="#D9F9F6"/>
</g>
<mask id="mask13_636_113" style="mask-type:alpha" maskUnits="userSpaceOnUse" x="384" y="137" width="320" height="280">
<mask id="mask14_636_113" style="mask-type:luminance" maskUnits="userSpaceOnUse" x="384" y="137" width="320" height="280">
<path d="M384.2 137H703.4V417H384.2V137Z" fill="white"/>
</mask>
<g mask="url(#mask14_636_113)">
<path d="M384.2 137H703.4V416.959H384.2V137Z" fill="#D9F9F6"/>
</g>
</mask>
<g mask="url(#mask13_636_113)">
<path fill-rule="evenodd" clip-rule="evenodd" d="M490.099 182.291C490.089 181.905 490.128 181.525 490.218 181.149C490.93 177.052 494.091 174.137 497.569 172.168C503.222 169.016 511.403 166.968 517.609 169.647C522.589 171.853 524.17 176.619 523.498 181.386C524.036 181.054 524.589 180.752 525.159 180.479C529.15 178.471 534.368 177.801 538.321 180.283C541.719 182.41 541.206 185.443 539.269 187.728C542.194 187.373 545.514 187.609 547.846 189.028C549.309 189.934 552.155 192.651 550.02 194.306C548.755 195.252 546.937 195.567 545.435 195.803C541.798 196.354 538.083 196.315 534.408 196.354C519.388 196.473 504.408 195.764 489.388 195.764C487.135 195.764 480.969 195.764 476.937 195.527C475.641 195.561 474.35 195.495 473.064 195.33C471.91 195.193 470.777 194.956 469.665 194.621C466.898 193.715 465.831 190.958 468.479 189.067C470.534 187.609 473.143 187.294 475.593 187.767C476.515 187.926 477.411 188.175 478.281 188.516C478.281 188.397 478.321 188.24 478.321 188.121C478.437 187.631 478.598 187.155 478.801 186.694C479.005 186.232 479.248 185.793 479.531 185.376C479.815 184.959 480.134 184.57 480.489 184.211C480.843 183.852 481.227 183.527 481.641 183.237C483.953 181.622 487.293 181.346 490.099 182.291Z" fill="white"/>
<path fill-rule="evenodd" clip-rule="evenodd" d="M468.514 194.31C468.554 193.664 468.989 193.014 469.938 192.439C470.446 192.14 470.975 191.886 471.526 191.677C472.078 191.468 472.643 191.307 473.222 191.194C473.801 191.081 474.386 191.017 474.976 191.004C475.565 190.99 476.152 191.025 476.736 191.111C477.573 191.251 478.398 191.444 479.21 191.69C479.21 191.588 479.25 191.486 479.25 191.384C479.566 189.918 480.791 188.661 482.214 187.838C484.309 186.617 487.432 186.262 490.04 187.023C490.04 186.714 490.067 186.409 490.119 186.105C490.791 182.906 493.795 180.728 497.076 179.196C502.372 176.713 510.04 175.114 515.85 177.225C520.514 178.927 522.016 182.536 521.424 186.286C521.977 186.014 522.53 185.778 523.004 185.573C526.759 183.997 531.581 183.631 535.297 185.573C538.459 187.239 537.985 189.622 536.206 191.458C538.933 191.186 542.056 191.356 544.23 192.478C545.297 193.022 547.194 194.488 546.957 195.712C546.443 195.815 545.969 195.846 545.494 195.917C541.858 196.394 538.143 196.359 534.467 196.394C519.447 196.496 504.467 195.882 489.447 195.882C487.194 195.882 481.028 195.882 476.997 195.677C475.702 195.708 474.411 195.652 473.123 195.508C471.975 195.385 470.842 195.179 469.724 194.889C469.31 194.718 468.907 194.525 468.514 194.31Z" fill="#CFF0E3" fill-opacity="0.2392"/>
<path d="M467.366 295.304C459.397 298.42 440.37 294.261 435.172 293.314C428.6 292.115 422.028 290.897 415.471 289.591C399.013 286.315 382.679 282.313 366.519 277.723C355.856 274.693 345.272 271.393 334.793 267.816C327.845 265.443 321.025 262.937 314.063 260.6C307.455 258.379 297.512 252.513 305.167 246.874C306.543 245.859 308.258 245.212 310.087 244.844C306.637 242.168 305.829 237.427 308.352 234.534C309.919 232.731 312.643 231.809 315.415 231.895C313.121 223.604 317.54 214.818 325.796 210.794C334.676 206.462 347.119 207.605 356.292 213.075C364.244 217.813 369.605 225.461 371.181 233.305C376.107 233.214 381.145 233.898 385.756 235.772C391.619 238.148 396.679 242.646 398.157 247.893C398.903 250.558 398.566 253.361 397.309 255.71C402.129 255.91 406.961 256.393 411.702 257.492C418.284 259.02 424.741 261.818 429.526 266.131C433.108 269.358 435.651 273.503 436.338 277.681C445.46 277.574 454.838 279.386 463.375 282.95C466.455 284.237 469.736 286.079 470.583 288.838C471.612 292.202 470.178 294.205 467.366 295.304Z" fill="white"/>
<path d="M628.122 251.508C635.663 254.665 653.329 250.667 658.161 249.762C664.269 248.617 670.377 247.453 676.469 246.202C691.758 243.061 706.91 239.199 721.882 234.75C731.761 231.814 741.559 228.608 751.25 225.125C757.675 222.815 763.977 220.372 770.417 218.097C776.529 215.936 785.652 210.173 778.329 204.508C777.013 203.488 775.39 202.833 773.669 202.453C776.816 199.816 777.431 195.106 774.987 192.209C773.469 190.404 770.895 189.468 768.306 189.532C770.206 181.302 765.816 172.53 757.978 168.467C749.55 164.093 737.951 165.14 729.536 170.515C722.242 175.17 717.456 182.74 716.213 190.531C711.606 190.405 706.916 191.049 702.661 192.879C697.249 195.201 692.652 199.639 691.425 204.847C690.806 207.492 691.203 210.283 692.448 212.629C687.948 212.793 683.445 213.238 679.045 214.297C672.937 215.769 666.983 218.506 662.637 222.762C659.383 225.947 657.128 230.051 656.609 234.202C648.079 234.029 639.364 235.764 631.488 239.248C628.647 240.505 625.634 242.314 624.924 245.052C624.061 248.391 625.461 250.394 628.122 251.508Z" fill="white"/>
</g>
<path d="M599.509 305.151C599.509 335.808 574.569 360.655 543.8 360.655C513.029 360.655 488.089 335.808 488.089 305.151C488.089 274.497 513.029 249.606 543.8 249.606C574.569 249.606 599.509 274.453 599.509 305.151Z" fill="#F2EDB6"/>
<mask id="mask15_636_113" style="mask-type:luminance" maskUnits="userSpaceOnUse" x="384" y="286" width="320" height="131">
<path d="M384.2 286.786H703.4V417H384.2V286.786Z" fill="white"/>
</mask>
<g mask="url(#mask15_636_113)">
<path d="M703.4 331.549V416.774H384.2V331.886H392.967V305.641H406.459V320.525H407.48V319.083H416.673V320.525H417.694V335.449H426.122V308.355L436.335 294.785V325.274H449.017V309.669H450.082V304.327H450.551L454.338 295.506L454.592 287.409L454.849 295.506L458.635 304.327H459.105V309.669H460.17V330.912H466.127V317.894H475.363V335.449H479.745V317.894H488.981V329.555H493.92V308.78L501.155 301.697H505.239V336.551H507.879V312.892H509.665V311.704H511.879L512.346 301.613L512.815 311.704H515.03V312.892H516.815V324.213H523.37V344.142H527.583V334.092H528.861V321.754H530.223V315.223H536.052V321.754H537.414V334.092H538.692V338.757H541.245V327.096H542.522V311.026H542.14V309.457H551.502V311.026H551.12V327.096H552.397V337.952H555.163V318.955H562.526V331.337H565.803V310.221H572.784V329.343H577.889V313.104H581.635L585.039 317.133V329.343H589.296V338.757H593.721V303.522L595.722 300.427H601.297L603.255 303.734V330.276H606.234V323.533H605.51V322.603H616.917V323.533H616.193V335.406H620.96V320.016L628.195 314.587H632.282V325.908H635.345V318.403H636.366V316.961H645.559V318.403H646.583V332.397H649.518V302.418H650.88V301.444H653.348L654.03 294.108L654.626 301.528H657.009V302.502H658.797V317.854H663.179V302.502H664.755V301.528H667.223L667.818 294.108L668.416 301.528H670.799V302.502H672.331V338.798H677.565V326.46H679.396V314.546H681.354V308.228H689.61V314.546H691.568V326.46H693.397V331.549H703.4Z" fill="#B7EFE4"/>
</g>
<mask id="mask16_636_113" style="mask-type:luminance" maskUnits="userSpaceOnUse" x="384" y="341" width="320" height="76">
<path d="M384.2 341.75H703.4V417H384.2V341.75Z" fill="white"/>
</mask>
<g mask="url(#mask16_636_113)">
<path d="M703.4 373.412V416.619H384.2V373.962H394.37V369.552H396.243V359.249H398.244V353.738H406.713V359.208H408.714V369.512H410.587V380.196H415.949V354.163C419.097 354.163 422.248 354.119 425.398 354.119V362.048H429.865V354.076C433.015 354.076 436.166 354.076 439.314 354.076V374.726H442.336V362.641H443.401V361.371H452.806V362.6H453.869V369.087H457.019V359.293H461.191L468.595 363.998V377.313H473.49V367.009H472.723V366.204H484.427V367.009H483.663V372.86H486.726V349.922L488.727 347.039H506.943L508.985 349.71V358.063H512.687V372.139H517.924L517.88 354.756H526.221V350.431H526.731L528.094 347.716H533.543L534.905 350.431H535.416V355.009H536.522V368.535H549.503V342.078L559.971 353.823V377.313H568.612V364.379H569.677V363.15H579.082V364.379H580.144V351.448H593.978V374.174H599.425V363.024H606.362V379.475H609.215V370.061H610.534V356.154H610.108V354.797H619.682V356.154H619.259V370.061H620.578V380.152H623.174V376.083H624.493V365.399H625.896V359.717H631.856V365.399H633.26V376.083H634.578V384.776H638.878V367.518H645.646V357.68H647.475V356.662H649.731L650.2 347.928L650.667 356.662H652.922V357.68H654.754V378.33H657.435V348.141H661.604L669.011 354.247V372.267H674.032V362.132H683.481V377.356H687.95V362.132H697.399V373.412H703.4Z" fill="#76D6C8"/>
</g>
<mask id="mask17_636_113" style="mask-type:luminance" maskUnits="userSpaceOnUse" x="384" y="355" width="320" height="63">
<path d="M384.2 355.106H703.4V417H384.2V355.106Z" fill="white"/>
</mask>
<g mask="url(#mask17_636_113)">
<path d="M702.89 403.982V394.824L700.462 391.9H694.716V375.066H688.715V373.964H691.483V369.936H672.287V373.964H675.053V375.066H668.203V391.9H658.456V378.373H653.561V377.228H654.243C655.177 377.228 655.988 376.464 655.988 375.49C655.988 374.557 655.221 373.752 654.243 373.752H649.646C648.709 373.752 647.901 374.514 647.901 375.49C647.901 376.423 648.666 377.228 649.646 377.228H650.413V378.373H628.367V377.228H629.047C629.983 377.228 630.791 376.464 630.791 375.49C630.791 374.557 630.027 373.752 629.047 373.752H624.449C623.513 373.752 622.705 374.514 622.705 375.49C622.705 376.423 623.472 377.228 624.449 377.228H625.216V378.373H618.536V390.839H600.659V392.365H594.488V374.81H589.424V368.366H586.743V355.264H585.124V368.366H571.165V374.81H566.1V384.776H556.438V374.81H538.266V364.338H534.223V374.81H530.095V392.365H523.966V383.462H519.371V382.402H520.05C520.987 382.402 521.795 381.637 521.795 380.664C521.795 379.731 521.03 378.925 520.05 378.925H515.453C514.519 378.925 513.708 379.687 513.708 380.664C513.708 381.596 514.475 382.402 515.453 382.402H516.22V383.462H495.962V398.131H487.152V394.062H488.43V392.408H486.77L484.299 388.72H462.976L460.508 392.408H459.02V394.062H460.295V404.026H456.126V399.149H455.487V397.794H456.126V388.04H447.57V386.174H450.338V382.146H431.143V386.174H433.908V388.04H426.673V397.794H427.312V399.149H426.673V399.997H423.651V386.046H425.013V383.631H414.672V381.044H410.8V383.631H401.479V375.022H400.245V383.588H394.201V386.006H395.563V395.419H384.2V417H703.4V403.982H702.89ZM434.462 386.09H447.06V387.956H434.462V386.09ZM675.607 373.964H688.204V375.066H675.607V373.964Z" fill="#51B7AA"/>
</g>
<rect x="384" width="319" height="417" fill="white" fill-opacity="0.4"/>
<g filter="url(#filter0_d_636_113)">
<path d="M687.966 275.601C687.966 275.601 683.588 312.347 679.314 319.735C666.181 334.727 647.787 353.148 646.743 354.295C645.703 355.438 645.337 358.198 645.337 358.198L643.254 353.514C643.254 353.514 645.13 351.638 645.859 350.495C646.588 349.348 664.098 307.331 672.435 308.435C670.874 298.71 667.954 275.083 667.954 273.103C667.954 271.128 687.966 275.601 687.966 275.601Z" fill="#F9AA80"/>
<path d="M668.709 274.893C668.709 274.893 670.951 280.393 677.115 282.264C683.278 284.136 686.978 283.2 686.978 283.2L688.333 273.677L668.709 274.893Z" fill="#D27771"/>
<path d="M677.753 277.615C677.753 277.615 676.433 279.081 689.217 276.964C702 274.837 726.528 268.872 726.528 268.872C726.528 268.872 719.929 272.383 715.207 278.641C710.48 284.899 704.118 302.945 702.121 304.329C701.03 304.467 702.768 308.634 702.768 308.427C702.768 308.215 704.364 305.304 704.364 305.304C704.364 305.304 734.589 274.98 737.785 270.399C740.985 265.819 742.512 261.157 741.537 259.807C740.567 258.461 709.289 252.876 695.363 253.794C681.436 254.717 677.753 277.615 677.753 277.615Z" fill="#F9AA80"/>
<mask id="mask18_636_113" style="mask-type:luminance" maskUnits="userSpaceOnUse" x="718" y="212" width="48" height="43">
<path d="M718.385 212.386H765.353V254.342H718.385V212.386Z" fill="white"/>
</mask>
<g mask="url(#mask18_636_113)">
<path d="M723.259 212.494C723.259 212.494 723.613 212.576 725.799 216.845C727.99 221.111 737.893 240.368 738.359 240.524C738.829 240.679 755.089 225.484 755.296 224.807C755.503 224.13 755.503 214.814 756.758 214.085C758.008 213.356 765.353 219.084 765.146 222.258C764.939 225.433 758.474 227.93 758.474 227.93C758.474 227.93 742.322 253.743 739.609 253.794C736.901 253.846 719.546 235.684 719.442 235.374C719.339 235.059 723.259 212.494 723.259 212.494Z" fill="#F9AA80"/>
</g>
<path d="M722.832 211.278C722.832 211.278 724.342 212.106 723.923 216.22C723.509 220.33 723.414 228.711 723.414 228.711C723.414 228.711 719.546 224.445 722.832 211.278Z" fill="#82AD4F"/>
<path d="M698.753 219.239L699.171 217.988C699.171 217.988 679.974 212.179 679.004 212.455C678.029 212.735 666.91 234.244 666.427 235.219C665.94 236.189 668.213 241.253 668.269 242.188C668.321 243.129 665.716 246.562 664.879 246.303C664.046 246.04 658.729 244.116 658.366 243.129C658 242.137 662.326 234.227 662.326 234.227C662.326 234.227 670.714 203.303 671.706 202.294C672.698 201.284 711.209 202.949 713.71 204.51C716.212 206.072 720.175 209.401 719.938 219.136C719.701 228.87 711.519 232.2 705.11 230.168C698.701 228.141 698.753 219.239 698.753 219.239Z" fill="#F9AA80"/>
<path d="M670.456 260.13C670.456 260.13 686.349 245.315 686.664 245.315C686.978 245.315 688.225 242.658 688.225 242.658C688.225 242.658 699.188 249.581 698.856 250.413C698.529 251.246 696.92 252.233 696.92 252.233L696.618 253.018C696.618 253.018 678.508 263.529 677.115 276.903C674.26 277.322 671.905 275.342 671.905 275.342C671.905 275.342 667.329 264.745 670.456 260.13Z" fill="#5A7A8B"/>
<path d="M696.92 252.233C696.92 252.233 688.833 246.182 686.664 245.315C686.815 245.207 688.315 242.848 688.225 242.658C688.139 242.469 698.874 249.93 698.598 250.969C698.529 251.245 696.92 252.233 696.92 252.233Z" fill="#4C6777"/>
<path d="M666.983 271.197C666.983 271.197 666.91 263.598 670.455 260.13C669.274 270.331 676.084 277.615 676.084 277.615C676.084 277.615 667.191 273.936 666.983 271.197Z" fill="#4C6777"/>
<path d="M715.483 204.51H713.71C713.71 204.51 720.641 208.724 718.713 220.175C716.785 231.626 708.526 229.698 703.846 226.89C699.171 224.078 698.753 219.239 698.753 219.239C698.753 219.239 688.941 240.144 687.966 240.769C686.991 241.39 687.272 243.059 687.272 243.059C687.272 243.059 697.416 249.024 698.529 251.245C701.517 252.216 703.877 248.886 703.877 248.886C703.877 248.886 715.69 240.144 719.373 238.755C723.056 237.366 723.664 227.93 723.664 227.93C723.664 227.93 721.038 212.942 721.038 210.096C721.038 207.253 715.483 204.51 715.483 204.51Z" fill="#82AD4F"/>
<path d="M719.235 200.215C719.235 200.215 716.811 204.355 715.483 204.51C718.635 208.021 721.318 212.213 720.951 217.466C720.589 222.724 719.99 226.342 723.065 227.748C722.595 222.702 722.465 214.607 723.664 210.445C724.863 206.279 727.887 204.303 727.887 204.303C727.887 204.303 734.192 205.446 735.805 204.148C737.423 202.845 738.462 194.258 738.462 194.258C738.462 194.258 740.498 192.801 740.498 192.382C740.498 191.968 736.323 188.376 736.297 187.181C736.275 185.982 734.296 181.401 732.497 180.129C730.699 178.853 721.055 177.705 716.315 180.724C711.575 183.743 719.235 200.215 719.235 200.215Z" fill="#F9AA80"/>
<mask id="mask19_636_113" style="mask-type:luminance" maskUnits="userSpaceOnUse" x="674" y="173" width="59" height="30">
<path d="M674.221 173H732.739V202.449H674.221V173Z" fill="white"/>
</mask>
<g mask="url(#mask19_636_113)">
<path d="M732.497 180.129C732.497 180.129 727.727 179.866 726.921 179.711C726.114 179.555 729.5 181.871 728.667 182.518C727.835 183.17 725.644 183.118 725.359 183.666C725.07 184.213 726.946 186.111 726.218 186.633C725.489 187.15 724.083 186.504 723.897 187.258C723.716 188.013 724.6 188.531 724.419 189.234C724.238 189.937 723.406 190.873 723.406 190.873C723.406 190.873 722.724 186.085 719.86 187.776C716.992 189.471 718.269 193.762 722.414 194.905C722.021 197.458 720.016 197.251 719.623 197.743C719.235 198.239 719.757 199.33 719.235 200.214C717.669 199.434 715.013 199.723 710.95 201.077C706.883 202.427 705.477 203.156 702.298 200.503C699.119 197.851 694.168 196.548 689.476 196.182C684.787 195.819 679.474 193.271 678.482 192.123C679.526 190.98 689.424 191.446 688.695 190.666C687.966 189.885 677.179 186.762 677.231 186.344C677.283 185.93 679.366 185.097 679.366 184.89C679.366 184.679 675.2 183.226 675.2 183.226C675.2 183.226 682.131 177.809 691.196 177.757C700.267 177.709 707.56 178.175 709.802 175.73C712.041 173.284 714.594 173.021 718.765 174.479C722.935 175.937 722.15 173.44 726.739 174.634C731.324 175.833 732.497 180.129 732.497 180.129Z" fill="#353638"/>
</g>
<path d="M730.979 197.92C730.979 197.92 735.702 197.277 736.206 197.778C736.707 198.317 735.111 200.607 733.166 200.417C731.221 200.228 730.979 197.92 730.979 197.92Z" fill="white"/>
<path d="M735.258 186.694C733.804 185.831 731.592 187.479 730.587 188.44C730.319 188.699 730.505 189.312 730.923 189.079C731.613 188.691 732.307 188.264 733.045 187.966C733.735 187.69 734.516 187.703 735.171 187.379C735.387 187.272 735.503 186.84 735.258 186.694Z" fill="#353638"/>
<path d="M733.783 191.99C733.735 191.636 733.748 191.278 733.662 190.929C733.533 190.424 732.881 190.653 732.752 191.024C732.549 191.597 732.601 192.542 733.037 192.99C733.175 193.137 733.33 193.12 733.464 193.034C733.472 193.038 733.502 193.021 733.558 192.978C733.597 192.952 733.632 192.921 733.653 192.883C733.74 192.788 733.774 192.68 733.8 192.559C733.834 192.365 733.809 192.184 733.783 191.99Z" fill="#353638"/>
<path d="M722.893 192.775C722.737 192.111 722.211 191.576 721.78 191.063C721.37 190.575 720.947 189.924 720.348 189.661C720.072 189.536 719.886 189.924 719.955 190.14C720.137 190.731 720.62 191.222 721.012 191.705C720.805 191.774 720.589 191.826 720.413 191.955C720.188 192.115 720.072 192.555 720.404 192.68C720.628 192.762 720.861 192.723 721.094 192.693C721.284 192.667 721.469 192.62 721.646 192.546C721.87 192.827 722.12 193.081 722.427 193.224C722.673 193.34 722.944 193.004 722.893 192.775Z" fill="#D27771"/>
<path d="M696.859 253.536C696.652 253.605 680.393 263.874 678.723 278.935C677.059 279.28 675.39 277.27 675.251 276.921C675.113 276.576 679.974 254.51 696.859 252.496C696.997 252.703 696.859 253.536 696.859 253.536Z" fill="#ABC9D5"/>
<path d="M675.808 276.99C675.808 276.99 667.329 271.611 666.984 271.197C666.634 270.779 666.703 273.242 666.703 273.242C666.703 273.242 671.892 278.176 677.115 278.641C676.882 278.033 675.808 276.99 675.808 276.99Z" fill="#ABC9D5"/>
<path d="M699.171 217.988C699.081 217.738 710.342 221.408 710.342 221.408C710.342 221.408 702.557 227.688 699.171 217.988Z" fill="#D27771"/>
<mask id="mask20_636_113" style="mask-type:luminance" maskUnits="userSpaceOnUse" x="754" y="214" width="12" height="12">
<path d="M754.821 214.594H765.353V225.635H754.821V214.594Z" fill="white"/>
</mask>
<g mask="url(#mask20_636_113)">
<path d="M764.801 223.427C764.517 223.578 764.228 223.707 763.935 223.781C762.934 224.031 762.326 223.608 761.782 222.901C762.904 222.323 763.87 221.508 764.732 220.593C764.625 220.373 764.5 220.149 764.357 219.925C763.512 220.848 762.585 221.646 761.537 222.336C761.429 221.581 761.135 220.813 760.717 220.084C761.343 219.455 761.964 218.834 762.559 218.178C762.632 218.1 762.705 218.023 762.783 217.945C762.632 217.786 762.477 217.626 762.322 217.475C762.209 217.613 762.106 217.747 761.998 217.867C761.481 218.476 760.993 219.105 760.497 219.731C760.079 219.079 759.561 218.463 758.97 217.928C759.371 217.38 759.777 216.841 760.161 216.28C760.256 216.138 760.359 215.996 760.463 215.853C760.29 215.72 760.122 215.595 759.954 215.469C759.885 215.577 759.816 215.685 759.747 215.789C759.35 216.384 758.97 216.996 758.595 217.609C757.802 216.962 756.909 216.466 755.999 216.19C755.96 216.414 755.925 216.651 755.895 216.901C756.732 217.238 757.5 217.717 758.19 218.359C759.272 219.36 760.484 220.839 760.808 222.34C759.544 222.06 758.026 220.498 757.094 219.877C756.797 219.679 756.542 220.153 756.771 220.373C757.517 221.102 758.384 221.715 759.251 222.297C759.863 222.707 760.428 223.207 761.183 223.168C761.222 223.164 761.256 223.159 761.286 223.147C761.722 223.953 762.274 224.695 763.292 224.686C763.503 224.686 763.706 224.652 763.909 224.604C764.271 224.229 764.582 223.837 764.801 223.427Z" fill="#D27771"/>
</g>
<path d="M738.359 240.524C738.359 240.524 740.951 245.867 741.192 245.867C741.434 245.867 744.699 242.814 738.359 240.524Z" fill="#D27771"/>
<path d="M702.833 308.237C702.833 308.237 702.246 323.069 701.897 322.754C701.552 322.444 696.756 306.585 696.721 306.206C696.687 305.822 701.962 304.26 702.121 304.329C702.281 304.398 702.833 308.237 702.833 308.237Z" fill="#4989A6"/>
<mask id="mask21_636_113" style="mask-type:luminance" maskUnits="userSpaceOnUse" x="637" y="352" width="10" height="26">
<path d="M637 352.609H646.618V377.537H637V352.609Z" fill="white"/>
</mask>
<g mask="url(#mask21_636_113)">
<path d="M645.6 356.87C645.6 356.87 645.755 377.507 645.285 377.404C644.815 377.296 637 355.024 637.259 354.502C637.522 353.98 643.711 353.04 643.711 353.04L645.6 356.87Z" fill="#4989A6"/>
</g>
</g>
<g filter="url(#filter1_d_636_113)">
<path d="M196.203 401.383C196.203 401.552 205.735 409.681 205.735 409.518C205.735 409.349 208.555 401.383 208.555 401.383L202.905 398.287L196.203 401.383Z" fill="#F9AA80"/>
<path d="M36.6971 377.446L48.5879 378.072L46.8541 388.143L35.9208 385.486L36.6971 377.446Z" fill="#F9AA80"/>
<path d="M122.417 362.213C122.417 362.213 92.7224 400.167 90.7298 401.716C88.7329 403.264 80.0897 401.276 78.4292 400.499C76.7687 399.723 46.742 397.51 45.0815 396.846C43.421 396.182 40.872 377.705 40.6478 376.929C40.4278 376.157 69.8982 378.702 74.4398 381.466C74.1077 380.47 74.3319 379.586 74.7719 379.474C75.2161 379.366 78.9856 379.698 78.9856 379.698C78.9856 379.698 91.381 342.188 102.91 331.897C112.553 330.457 122.417 362.213 122.417 362.213Z" fill="#DF6CBD"/>
<path d="M122.421 362.23C122.421 362.23 112.558 330.474 102.914 331.91C101.081 333.549 99.2263 335.874 97.4019 338.63C97.169 347.316 96.5048 362.006 94.6114 368.204C91.8382 377.278 107.572 374.846 107.02 375.95C106.468 377.054 92.1746 384.692 90.0699 386.685C88.9787 387.716 97.1431 385.896 105.342 383.899C113.662 373.422 122.421 362.23 122.421 362.23Z" fill="#BC61A5"/>
<path d="M122.969 361.734C122.823 361.954 118.29 367.497 118.29 367.497C118.29 367.497 104.872 354.653 101.698 352.44C98.5191 350.227 122.969 361.734 122.969 361.734Z" fill="#A15790"/>
<path d="M121.473 260.936C121.473 260.936 127.735 258.978 133.605 259.142C139.479 259.31 145.957 258.038 146.069 256.541C146.181 255.049 141.472 230.763 141.252 229.961C141.027 229.158 134.713 227.774 134.157 226.834C133.605 225.894 133.605 219.64 134.157 218.976C134.713 218.316 134.269 216.819 135.934 216.875C137.594 216.931 146.733 214.878 148.23 216.875C149.727 218.868 148.506 228.162 148.506 228.162C148.506 228.162 163.075 258.832 159.677 266.427C157.02 269.01 135.304 281.401 131.168 280.737C127.032 280.073 121.473 260.936 121.473 260.936Z" fill="#F9AA80"/>
<path d="M79.4643 285.313C76.9542 285.533 61.0006 289.221 57.9686 288.336C59.8921 297.484 61.3672 314.525 62.7732 316.22C64.4682 315.853 70.3769 314.3 71.1188 315.702C71.8563 317.104 73.9265 325.514 73.1113 326.989C72.3005 328.464 59.9655 332.816 57.9686 331.121C55.976 329.426 54.7209 318.803 54.7209 318.803C54.7209 318.803 38.0255 286.197 42.0883 279.486C46.3754 275.057 66.3918 267.608 70.4546 267.902C74.5174 268.199 79.4643 285.313 79.4643 285.313Z" fill="#F9AA80"/>
<path d="M102.914 325.976C102.914 325.976 96.9707 347.053 97.5616 350.003C98.1524 352.958 112.998 357.974 118.833 362.472C124.668 366.97 142.692 369.11 145.202 371.766C147.713 374.423 147.493 383.493 160.272 387.405C173.047 391.313 192.032 407.102 192.917 407.84C193.805 408.577 204.143 399.21 204.441 398.912C204.734 398.619 203.406 396.406 202.668 396.48C201.931 396.553 176.89 373.759 176.445 370.218C176.001 366.677 134.196 333.705 133.605 332.23C133.014 330.75 129.283 326.86 129.283 326.86C129.283 326.86 122.007 324.742 102.914 325.976Z" fill="#DF6CBD"/>
<path d="M104.246 322.435C104.246 322.435 103.358 325.48 102.914 325.976C102.474 326.476 128.563 326.032 129.283 326.86C129.507 327.084 128.787 323.875 128.787 323.875L104.246 322.435Z" fill="#353638"/>
<path d="M91.9202 260.859C91.9202 260.859 90.9498 260.906 90.691 260.936C90.4322 260.971 90.3977 261.782 90.2468 261.967C90.1001 262.148 81.5691 258.396 78.7269 260.936C75.8803 263.477 76.7688 265.836 76.3246 265.987C75.8803 266.134 69.0874 267.389 68.199 267.13C71.783 273.069 76.8809 289.333 77.433 291.619C79.1323 288.781 88.7329 288.41 89.1384 288.595C89.5481 288.781 94.8271 312.312 93.1667 314.857C91.5019 317.402 103.915 320.054 102.362 323.375C102.694 324.039 128.507 324.923 128.843 324.923C129.176 324.923 131.28 322.047 131.28 321.055C131.28 320.054 131.5 290.07 125.962 284.205C128.399 283.541 134.157 283.873 134.157 282.989C134.157 282.104 122.749 261.898 122.193 260.052C121.641 259.643 116.763 262.756 113.662 260.936C110.561 259.121 101.18 260.936 101.18 260.936L91.9202 260.859Z" fill="#56A4C1"/>
<path d="M93.2399 255.955L91.9202 260.859C91.9202 260.859 107.235 264.952 107.486 264.758C107.736 264.564 107.486 258.922 107.486 258.922C107.486 258.922 113.468 260.22 114.494 256.572C115.521 252.919 113.718 243.348 113.718 243.348C113.718 243.348 115.296 242.408 115.766 241.299C116.237 240.195 111.363 236.072 111.363 236.072C111.363 236.072 110.229 227.304 106.351 227.304C102.474 227.304 88.0126 234.524 88.0126 239.061C88.0126 243.598 93.2399 255.955 93.2399 255.955Z" fill="#F9AA80"/>
<path d="M93.24 255.951C93.24 255.951 97.3373 249.205 97.5227 246.988C96.0089 247.247 93.6842 244.004 93.4254 241.382C93.1667 238.764 94.6072 236.81 95.8623 237.401C97.1173 237.992 98.0791 240.536 98.1136 241.313C98.1524 242.085 100.55 243.447 100.55 242.934C100.55 242.417 98.7045 235.188 98.7045 235.188C98.7045 235.188 100.145 236.517 100.257 235.999C100.369 235.481 99.3687 230.871 99.3687 230.871C99.3687 230.871 108.344 227.075 108.309 226.558C108.271 226.04 105.096 226.89 105.39 226.817C105.687 226.739 106.571 224.527 106.571 224.121C106.571 223.716 98.2603 227.183 98.2991 227.075C98.3379 226.963 99.1487 225.635 99.1099 225.523C99.0754 225.415 86.887 227.11 83.9326 237.44C80.6462 240.536 86.7749 250.495 93.24 255.951Z" fill="#914839"/>
<path d="M108.137 230.233C107.425 229.547 106.282 230.306 105.661 230.78C104.799 231.436 104.031 232.229 103.436 233.135C102.871 233.998 103.893 234.856 104.579 234.028C105.066 233.437 105.575 232.868 106.166 232.372C106.429 232.152 106.709 231.932 107.028 231.794C107.36 231.656 107.671 231.664 107.977 231.457C108.396 231.168 108.516 230.603 108.137 230.233Z" fill="#914839"/>
<path d="M109.228 238.591C109.194 238.043 109.224 237.414 108.948 236.931C108.732 236.555 108.15 236.702 107.973 237.026C107.602 237.703 107.645 238.781 107.969 239.467C108.064 239.669 108.227 239.851 108.469 239.851C109.103 239.842 109.258 239.096 109.228 238.591Z" fill="#38393B"/>
<path d="M109.785 248.239C109.439 249.649 108.918 251.387 109.125 252.845C109.232 253.617 110.207 253.591 110.436 252.897C110.893 251.525 110.923 249.943 111.216 248.515C111.41 247.579 110.009 247.333 109.785 248.239Z" fill="#B02E3B"/>
<path d="M98.3032 243.754C98.0919 242.982 97.4148 242.3 96.9446 241.657C96.4141 240.929 95.8793 240.204 95.3532 239.475C95.0599 239.065 94.5596 239.648 94.7882 240.01C95.2712 240.782 95.7672 241.541 96.2891 242.283C96.315 242.322 96.3408 242.365 96.371 242.408C96.3495 242.408 96.3279 242.412 96.3063 242.412C95.8923 242.421 95.4869 242.425 95.103 242.585C94.9003 242.671 94.827 243.055 95.0254 243.18C95.3704 243.396 95.7801 243.434 96.1769 243.495C96.5177 243.542 96.8368 243.624 97.156 243.568C97.3587 243.823 97.5786 244.047 97.8331 244.202C98.1307 244.383 98.3809 244.034 98.3032 243.754Z" fill="#D27771"/>
<path d="M107.486 258.922C107.486 258.922 100.097 258.482 98.9632 251.344C96.8585 254.954 100.192 261.743 107.555 260.859C107.559 261.005 107.486 258.922 107.486 258.922Z" fill="#D27771"/>
<path d="M102.357 323.371C102.69 324.035 128.503 324.919 128.835 324.919C129.171 324.919 131.276 322.042 131.276 321.046C131.276 320.947 131.276 320.55 131.276 319.916C122.853 322.004 109.116 324.031 109.116 320.938C109.116 316.621 98.7 302.901 97.7038 303.566C96.7075 304.23 100.141 314.741 96.9274 313.744C96.8757 312.278 94.7019 307.771 92.3514 303.216C93.2873 308.638 93.8868 313.74 93.1622 314.848C91.4974 317.397 103.91 320.05 102.357 323.371Z" fill="#4989A6"/>
<path d="M112.92 268.928C120.455 272.987 125.958 284.2 125.958 284.2C127.769 283.709 131.409 283.765 133.165 283.463C131.931 281.457 130.349 279.465 128.8 279.184C125.553 278.594 121.563 268.117 112.92 268.928Z" fill="#4989A6"/>
<mask id="mask22_636_113" style="mask-type:luminance" maskUnits="userSpaceOnUse" x="10" y="369" width="29" height="28">
<path d="M10 369.355H38.5992V396.958H10V369.355Z" fill="white"/>
</mask>
<g mask="url(#mask22_636_113)">
<path d="M37.5469 377.227C37.5469 377.227 36.956 384.748 36.956 385.046C36.956 385.339 37.0293 392.533 36.1797 391.83C35.33 391.132 32.7465 385.598 32.7465 385.598C32.7465 385.598 9.99572 398.067 10.5133 396.074C11.0308 394.082 30.383 369.7 32.2678 370.291C34.1483 370.882 37.5469 377.227 37.5469 377.227Z" fill="#353638"/>
</g>
<mask id="mask23_636_113" style="mask-type:luminance" maskUnits="userSpaceOnUse" x="204" y="388" width="26" height="32">
<path d="M204.216 388.125H229.443V419.04H204.216V388.125Z" fill="white"/>
</mask>
<g mask="url(#mask23_636_113)">
<path d="M204.79 409.405C204.514 409.185 207.779 400.167 207.779 400.167C207.779 400.167 207.171 395.962 207.779 395.85C208.391 395.742 210.328 399.671 210.496 399.503C210.664 399.334 228.999 387.388 229.219 388.716C229.443 390.04 212.381 419.364 211.38 418.644C210.384 417.928 204.79 409.405 204.79 409.405Z" fill="#353638"/>
</g>
<path d="M133.773 224.199C135.921 223.405 138.172 222.974 140.48 223.026C141.36 223.043 143.348 222.969 144.046 223.487C145 224.194 144.103 224.181 143.352 224.324C142.446 224.501 141.545 224.591 140.622 224.604C139.928 224.617 139.608 225.704 140.29 225.997C141.239 226.213 141.735 226.83 141.782 227.852C141.536 228.766 142.748 229.219 142.994 228.292C143.27 227.265 143.093 226.463 142.593 225.842C143.896 225.695 145.302 225.376 145.767 224.479C145.785 224.44 145.793 224.406 145.81 224.367C146.876 224.388 148.066 224.143 148.916 223.565C148.955 222.78 148.981 221.96 148.976 221.171C148.972 221.171 148.972 221.167 148.968 221.162C148.808 220.947 148.605 220.757 148.381 220.615C147.842 220.27 147.294 221.175 147.782 221.525C148.101 221.749 148.226 222.077 148.472 222.357C148.476 222.361 148.48 222.366 148.485 222.37C148.454 222.4 148.428 222.435 148.394 222.461C147.669 223.06 146.699 223.155 145.798 223.392C145.625 223.034 145.289 222.741 144.9 222.542C144.771 222.473 144.633 222.413 144.486 222.357C144.655 220.955 144.78 219.575 145.189 218.204C145.414 217.462 145.754 216.763 146.082 216.06C145.647 216.017 145.176 216 144.676 216.004C143.827 217.885 143.503 220.261 143.684 222.128C142.847 221.943 141.903 221.9 140.993 221.917C141.265 220.774 141.071 219.567 141.247 218.393C141.368 217.621 141.636 216.901 141.886 216.177C141.398 216.224 140.915 216.28 140.441 216.34C139.794 218.212 139.617 220.597 140.355 221.943C139.772 221.973 139.22 222.025 138.737 222.072C138.22 222.128 137.706 222.21 137.202 222.314C136.809 220.395 137.392 218.527 137.922 216.681C137.327 216.759 136.822 216.824 136.443 216.854C135.917 218.769 135.779 220.955 136.361 222.508C135.468 222.737 134.601 223.047 133.751 223.418C133.756 223.685 133.764 223.944 133.773 224.199Z" fill="#D27771"/>
</g>
<g filter="url(#filter2_d_636_113)">
<path d="M403.374 329.732C403.374 329.732 406.285 325.665 409.343 325.798C415.032 317.85 428.975 301.887 428.975 301.887C428.975 301.887 427.069 298.933 428.975 291.247C430.882 283.566 438.447 268.195 438.447 268.195C438.447 268.195 434.992 260.427 435.635 260.375C436.277 260.328 438.546 263.088 438.645 262.937C438.744 262.791 444.364 254.859 444.662 256.14C444.955 257.421 442.048 261.216 442.195 261.165C442.341 261.117 448.509 257.227 448.31 258.409C448.112 259.59 444.265 263.036 444.265 263.036C444.265 263.036 449.544 261.561 449.246 262.053C448.953 262.545 445.748 264.861 445.748 264.861C445.748 264.861 449.764 264.861 449.259 265.65C448.755 266.435 446.042 266.978 446.042 266.978L440.814 270.92C440.814 270.92 438.839 301.068 434.992 306.882C432.822 323.435 421.479 345.504 421.479 345.504L403.374 329.732Z" fill="#F9AA80"/>
<path d="M394.722 315.943C394.722 315.943 390.875 322.693 389.861 323.038C389.244 324 394.153 331.905 400.764 334.023C407.372 336.141 409.64 333.087 409.64 333.087C409.64 333.087 402.317 329.197 401.157 328.507C399.997 327.817 401.674 322.4 401.674 322.4C401.674 322.4 408.976 322.348 410.43 321.192C411.887 320.032 411.982 310.798 411.935 310.647C411.961 310.772 414.674 309.392 414.574 308.779C414.475 308.163 411.046 305.795 411.094 305.722C411.146 305.648 410.503 302.892 409.075 300.749C407.643 298.605 402.761 296.509 402.761 296.509C402.761 296.509 395.14 299.934 393.018 302.991C390.896 306.045 394.722 315.943 394.722 315.943Z" fill="#F9AA80"/>
<mask id="mask24_636_113" style="mask-type:luminance" maskUnits="userSpaceOnUse" x="505" y="412" width="18" height="22">
<path d="M505.944 412.713H522.385V433.691H505.944V412.713Z" fill="white"/>
</mask>
<g mask="url(#mask24_636_113)">
<path d="M507.424 424.492C507.424 424.492 522.364 411.876 522.364 412.765C522.364 413.649 512.5 432.928 511.745 432.829C510.986 432.734 506.449 425.902 506.449 425.902L507.424 424.492Z" fill="#56A4C1"/>
</g>
<path d="M334.798 434.11C334.798 434.11 330.476 428.857 329.885 428.857C329.29 428.857 324.36 449.253 324.015 451.224C323.67 453.195 329.324 459.401 329.406 458.81C329.488 458.219 328.798 453.44 328.798 453.289C328.798 453.143 335.13 436.59 335.587 436.145C336.048 435.706 334.798 434.11 334.798 434.11Z" fill="#56A4C1"/>
<path d="M407.268 422.159C407.268 422.159 396.093 435.688 381.296 441.994C380.64 442.123 379.389 443.896 378.337 444.094C377.285 444.293 349.928 435.36 335.587 436.145C334.867 435.624 334.604 434.174 334.798 434.11C334.996 434.045 350.385 426.622 360.253 426.95C370.117 427.278 379.588 432.337 379.588 432.337C379.588 432.337 391.228 413.882 394.053 411.777C396.883 409.677 407.268 422.159 407.268 422.159Z" fill="#F9AA80"/>
<path d="M418.193 409.742C418.193 409.742 452.39 399.365 455.543 398.511C456.401 398.838 459.097 400.417 459.097 400.417C459.097 400.417 458.769 409.806 467.977 414.995C477.181 420.188 506.121 425.311 506.449 425.898C506.777 426.493 507.566 424.587 507.566 424.587C507.566 424.587 467.977 399.037 465.277 395.621C463.768 391.877 459.36 390.825 459.36 390.825C459.36 390.825 449.958 381.63 425.098 384.519C420.035 387.608 418.193 409.742 418.193 409.742Z" fill="#F9AA80"/>
<path d="M413.259 416.772C413.259 416.772 409.149 422.025 408.459 422.288C408.424 422.322 407.898 423.797 407.669 423.897C407.436 423.996 402.964 423.767 397.771 419.398C392.574 415.029 389.581 409.151 389.581 408.56C389.581 407.969 393.661 410.039 393.924 409.116C394.187 408.197 393.825 406.917 394.778 406.986C395.731 407.05 395.766 407.214 395.766 406.459C395.766 405.705 396.257 403.6 398.327 401.991C400.402 400.382 413.259 416.772 413.259 416.772Z" fill="#D54180"/>
<path d="M387.856 322.624L389.861 323.038C389.861 323.038 402.045 335.059 409.64 333.087C418.715 337.422 422.07 342.628 423.649 347.023C425.227 351.413 426.409 369.644 425.818 372.598C425.227 375.553 421.678 384.912 421.678 384.912C421.678 384.912 403.723 389.445 403.227 388.854C402.735 388.263 404.512 384.619 404.512 384.619C404.512 384.619 401.989 363.477 389.292 352.716C390.702 339.001 387.856 322.624 387.856 322.624Z" fill="#DF6CBD"/>
<path d="M381.425 321.99C381.494 321.792 387.675 319.1 394.053 328.818C400.432 338.539 401.683 353.781 396.684 355.946C393.07 357.063 387.675 351.15 387.675 351.15L360.645 335.718C360.645 335.718 355.974 365.146 355.448 366.064C354.922 366.983 361.827 367.112 362.288 369.019C362.75 370.925 361.4 370.873 361.452 371.464C361.499 372.055 363.177 377.032 362.241 377.869C361.305 378.705 352.028 377.821 350.648 375.803C349.268 373.78 351.092 367.181 351.092 367.181C351.092 367.181 339.076 319.066 352.489 312.251C364.984 310.035 381.425 321.99 381.425 321.99Z" fill="#F9AA80"/>
<path d="M360.645 335.714C360.645 335.714 362.616 326.39 361.698 323.763C366.761 328.033 362.841 336.969 362.841 336.969L360.645 335.714Z" fill="#D27771"/>
<path d="M399.186 401.137C398.987 401.137 395.83 404.618 396.421 405.407C397.012 406.196 404.184 410.069 404.905 410.66C405.629 411.251 399.315 411.583 398.854 411.648C398.396 411.713 407.868 416.901 413.259 416.772C415.109 415.046 418.193 410.859 418.193 410.859L399.186 401.137Z" fill="#B3396C"/>
<path d="M402.735 388C402.934 388 425.21 383.601 425.973 383.928C424.9 386.883 423.584 411.583 424.11 413.028C424.309 414.473 420.492 411.911 419.966 412.437C419.439 412.959 418.521 415.064 417.136 414.21C415.756 413.356 414.441 412.174 413.453 412.174C412.47 412.174 400.367 408.624 397.801 402.125C395.239 395.621 402.735 388 402.735 388Z" fill="#D54180"/>
<path d="M384.099 349.11C384.099 349.11 394.579 355.553 396.753 353.449C398.923 351.348 393.135 338.409 390.042 335.584C394.515 346.294 384.099 349.11 384.099 349.11Z" fill="#D27771"/>
<path d="M398.026 305.847C398.026 305.847 400.342 309.664 400.665 309.245C400.984 308.827 399.759 302.866 399.759 302.866C399.759 302.866 400.665 304.221 400.984 303.802C401.308 303.384 401.109 300.231 401.282 299.688C401.454 299.149 405.151 298.804 405.103 298.48C405.056 298.161 403.08 297.863 403.65 297.497C404.215 297.126 407.963 295.5 407.941 295.28C407.915 295.056 404.24 294.517 404.24 294.517C404.24 294.517 405.767 292.52 405.621 292.373C405.474 292.226 400.32 292.766 398.371 295.181C393.488 295.353 388.382 299.615 387.273 304.001C386.165 308.383 389.197 308.879 389.197 308.879C389.197 308.879 394.424 316.461 394.743 316.116C395.067 315.771 395.287 313.726 395.287 313.726C395.287 313.726 396.102 314.589 396.274 314.369C396.447 314.149 398.224 309.888 398.224 309.888C398.224 309.888 395.339 310.009 394.795 307.201C394.252 304.393 396.719 304.022 398.026 305.847Z" fill="#353638"/>
<path d="M408.027 300.749C406.501 300.706 405.017 302.383 404.4 303.608C404.159 304.091 404.581 304.898 405.116 304.359C405.534 303.94 405.936 303.496 406.38 303.104C406.725 302.798 407.355 302.276 407.842 302.293C408.696 302.327 408.942 300.775 408.027 300.749Z" fill="#353638"/>
<path d="M407.191 306.446C406.897 306.395 406.565 306.606 406.492 306.903C406.337 307.516 406.229 308.215 406.57 308.784C406.69 308.982 406.962 309.025 407.156 308.943C407.393 308.844 407.527 308.629 407.57 308.378C407.648 307.969 407.566 307.537 407.618 307.119C407.652 306.826 407.497 306.502 407.191 306.446Z" fill="#353638"/>
<path d="M409.343 313.606C409.343 313.606 404.486 312.45 403.796 312.523C403.499 312.596 404.185 316.884 406.47 317.129C408.752 317.375 409.222 314.787 409.343 313.606Z" fill="white"/>
<path d="M398.694 307.943C397.939 307.218 396.96 306.584 395.968 306.243C395.662 306.14 395.416 306.64 395.679 306.821C396.137 307.141 396.594 307.46 397.047 307.779C396.883 307.818 396.723 307.869 396.568 307.934C396.318 308.042 396.4 308.469 396.684 308.43C397.038 308.383 397.392 308.34 397.745 308.331C397.763 308.327 397.775 308.322 397.788 308.318C397.935 308.426 398.086 308.529 398.233 308.641C398.638 308.948 399.013 308.249 398.694 307.943Z" fill="#D27771"/>
<path d="M424.464 350.551C420.669 352.388 416.912 354.307 413.233 356.351C408.536 358.965 403.943 361.786 399.591 364.943C399.324 365.137 399.052 365.331 398.776 365.525C398.931 365.84 399.074 366.15 399.22 366.465C400.23 365.758 401.252 365.064 402.278 364.382C406.462 361.609 410.792 359.069 415.208 356.692C418.322 355.019 421.484 353.436 424.671 351.9C424.602 351.43 424.533 350.982 424.464 350.551Z" fill="#FCF2AF"/>
<path d="M412.521 349.856C415.653 347.695 418.926 345.733 422.32 344.012C422.113 343.632 421.889 343.253 421.643 342.869C418.327 344.577 415.126 346.513 412.077 348.661C406.574 352.539 401.48 357.007 396.844 361.906C397.034 362.226 397.219 362.545 397.396 362.864C402.028 358.085 407.005 353.66 412.521 349.856Z" fill="#FCF2AF"/>
<path d="M404.21 398.282C404.857 394.517 405.858 390.812 407.083 387.18C406.755 387.245 406.436 387.305 406.134 387.362C404.87 391.161 403.84 395.03 402.912 398.959C402.839 399.27 403.093 399.649 403.421 399.653C410.141 399.71 416.86 399.593 423.58 399.783C423.86 399.791 424.141 399.804 424.421 399.813C424.451 399.3 424.481 398.782 424.511 398.269C424.261 398.26 424.011 398.256 423.765 398.247C417.257 398.075 410.714 397.963 404.21 398.282Z" fill="#FCF2AF"/>
<path d="M409.761 386.672C409.472 386.728 409.183 386.779 408.903 386.836C408.351 389.557 407.816 392.278 406.915 394.896C406.746 395.388 407.04 395.863 407.57 395.798C412.534 395.224 417.43 394.413 422.428 394.133C423.218 394.086 424.007 394.055 424.8 394.025C424.839 393.469 424.882 392.921 424.925 392.386C419.28 392.524 413.621 393.055 408.221 394.241C408.523 391.994 409.123 389.751 409.584 387.539C409.645 387.25 409.701 386.961 409.761 386.672Z" fill="#FCF2AF"/>
<path d="M399.38 314.499C399.397 314.455 399.112 320.084 405.694 320.61C398.064 323.137 398.198 318.393 399.38 314.499Z" fill="#D27771"/>
</g>
<g filter="url(#filter3_d_636_113)">
<mask id="mask25_636_113" style="mask-type:luminance" maskUnits="userSpaceOnUse" x="786" y="276" width="78" height="87">
<path d="M786.38 276.312H863.586V362.433H786.38V276.312Z" fill="white"/>
</mask>
<g mask="url(#mask25_636_113)">
<path d="M808.928 277.291C808.928 277.291 811.589 282.208 811.822 284.947C812.365 285.874 814.332 288.298 814.755 289.186C815.177 290.07 812.555 291.765 812.555 291.765C812.555 291.765 812.671 298.308 809.972 301.042C809.2 301.659 802.834 300.348 802.834 300.348C802.834 300.348 801.518 304.7 801.635 307.624C801.751 310.548 804.684 315.4 805.96 316.962C807.233 318.519 808.854 321.175 809.721 325.277C810.588 329.374 817.881 348.778 819.387 350.107C820.892 351.435 846.532 349.011 848.728 348.2C850.927 347.394 856.659 339.423 857.643 339.367C858.626 339.307 863.547 346.872 862.503 348.662C861.464 350.452 850.988 352.936 850.811 352.819C850.638 352.707 825.408 363.675 813.599 361.018C811.283 360.445 799.94 344.853 799.362 342.309C798.784 339.768 786.975 301.426 786.975 301.426C786.975 301.426 789.347 281.276 789.666 280.785C789.985 280.293 808.928 277.291 808.928 277.291Z" fill="#F9AA80"/>
</g>
<path d="M789.666 358.189C789.666 358.189 787.38 361.398 786.483 362.234C785.586 363.071 769.956 349.589 769.956 349.589C769.956 349.589 771.923 344.823 771.78 344.219C771.638 343.611 789.666 358.189 789.666 358.189Z" fill="#F9AA80"/>
<path d="M803.959 277.925C803.7 278.442 800.979 280.09 802.139 281.996C803.295 283.902 799.909 286.732 799.879 286.848C798.723 283.73 795.829 281.246 794.497 285.028C793.168 288.811 798.145 291.234 799.068 291.321C799.996 291.407 796.929 301.197 794.613 300.563C792.301 299.925 791.892 303.971 789.287 305.239C786.686 306.511 780.165 305.239 779.867 302.237C779.682 300.852 772.85 301.137 772.794 298.597C772.733 296.056 766.367 296.923 766.311 296.518C766.255 296.117 769.844 292.188 773.255 293.921C776.671 295.651 775.921 289.414 779.332 289.186C782.748 288.953 784.081 286.702 784.081 285.718C784.081 284.739 783.499 281.44 783.499 281.44C783.499 281.44 781.532 271.015 786.819 269.398C792.107 267.781 792.953 269.398 794.38 267.013C795.812 264.624 801.596 267.242 803.14 267.013C804.684 266.78 806.573 268.091 806.689 271.477C806.806 274.863 803.959 277.925 803.959 277.925Z" fill="#82414A"/>
<path d="M796.468 438.686C796.468 438.686 812.132 455.532 822.164 460.841C822.009 460.997 822.164 462.843 822.164 462.843C822.164 462.843 833.274 463.075 833.046 462.843C832.813 462.614 824.014 459.918 823.398 459.302C822.781 458.685 810.994 435.511 810.994 435.511C810.994 435.511 799.862 436.322 796.468 438.686Z" fill="#F9AA80"/>
<path d="M731.528 422.115C731.528 422.115 710.925 428.352 705.02 433.204C705.426 433.144 704.442 438.686 704.442 438.686L708.781 434.933C708.781 434.933 734.767 435.576 735.116 435.628C735.465 435.68 738.01 423.905 731.528 422.115Z" fill="#F9AA80"/>
<path d="M776.671 322.387L776.814 320.977C776.814 320.977 756.297 316.728 754.447 316.845C752.592 316.961 732.338 344.275 731.584 345.254C730.833 346.238 730.458 350.076 729.906 352.936C729.358 355.795 725.045 363.127 724.204 365.15C724.002 365.236 724.467 361.799 724.467 361.799C724.467 361.799 719.982 367.807 719.602 367.285C719.227 366.767 722.384 361.022 722.384 361.022C722.384 361.022 716.333 364.572 716.363 363.964C716.393 363.36 719.865 358.944 719.865 358.944C719.865 358.944 715.031 361.078 715.031 360.358C715.031 359.634 719.055 356.459 718.968 356.459C718.882 356.459 713.413 357.469 713.642 357.007C713.875 356.546 719.374 354.467 719.374 354.467C719.374 354.467 725.912 345.949 727.275 345.315C727.62 340.001 740.21 309.513 744.665 307.318C749.12 305.122 781.187 301.426 787.669 303.794C794.402 305.355 805.262 327.584 799.301 335.554C793.341 343.525 776.671 322.387 776.671 322.387Z" fill="#F9AA80"/>
<path d="M776.671 322.387C776.671 322.387 794.786 335.322 797.158 332.898C799.534 330.474 795.946 306.451 787.669 303.794C787.842 303.505 793.341 306.567 793.341 306.567C793.341 306.567 797.158 314.132 801.039 318.117C804.917 322.102 803.123 327.817 804.511 328.05C805.9 328.279 807.694 327.584 807.694 327.584C807.694 327.584 809.083 335.96 807.694 340.519C806.306 345.082 802.023 345.949 802.023 345.949C802.023 345.949 789.463 357.904 789.463 359.056C784.715 354.148 768.106 345.198 766.661 341.502C768.162 341.097 768.628 341.558 768.856 340.984C769.089 340.407 775.515 327.584 775.632 326.834C775.744 326.083 776.671 322.387 776.671 322.387Z" fill="#D54180"/>
<path d="M769.956 349.584C769.956 349.584 785.414 357.124 787.031 361.682C787.091 362.782 783.792 364.714 783.792 364.714C783.792 364.714 780.493 370.433 779.738 370.489C782.865 375.397 800.173 394.629 800.285 413.567C802.601 416.802 803.412 421.192 803.412 421.192C803.412 421.192 810.243 434.416 810.994 435.511C803.468 437.996 796.468 438.686 796.468 438.686C796.468 438.686 785.586 429.853 790.736 418.247C781.303 411.549 768.511 402.133 768.511 402.133C768.511 402.133 761.968 434.705 757.919 436.551C753.869 438.397 735.116 435.628 735.116 435.628C735.116 435.628 729.906 427.313 731.528 422.115C736.561 420.153 745.765 423.427 745.765 423.427C745.765 423.427 739.977 390.126 744.837 374.992C746.459 363.908 763.823 353.859 767.178 353.63C767.644 352.474 769.956 349.584 769.956 349.584Z" fill="#353638"/>
<path d="M768.511 402.133C768.511 402.133 752.786 392.856 748.236 384.851C746.153 400.943 767.239 408.107 767.239 408.107L768.511 402.133Z" fill="#242526"/>
<mask id="mask26_636_113" style="mask-type:luminance" maskUnits="userSpaceOnUse" x="693" y="428" width="14" height="25">
<path d="M693 428.68H706.883V452.97H693V428.68Z" fill="white"/>
</mask>
<g mask="url(#mask26_636_113)">
<path d="M704.442 438.686C704.442 438.686 693.617 452.949 693.328 452.259C693.039 451.564 698.477 429.62 698.883 429.331C699.288 429.046 705.973 432.492 705.973 432.492L704.442 438.686Z" fill="#353638"/>
</g>
<mask id="mask27_636_113" style="mask-type:luminance" maskUnits="userSpaceOnUse" x="821" y="461" width="26" height="9">
<path d="M821.711 461.803H846.002V469.157H821.711V461.803Z" fill="white"/>
</mask>
<g mask="url(#mask27_636_113)">
<path d="M822.164 462.843C822.164 462.843 821.742 468.618 822.164 468.889C822.587 469.157 845.622 468.078 845.7 467.155C845.778 466.233 832.817 462.739 832.817 462.739L822.164 462.843Z" fill="#353638"/>
</g>
<path d="M798.935 425.669C797.982 422.478 797.072 419.239 795.42 416.323C794.359 414.443 792.961 412.808 792.077 410.828C791.331 409.159 790.874 407.382 790.3 405.653C788.053 398.873 783.883 393.063 779.764 387.314C777.418 384.036 775.08 380.754 772.721 377.485C771.121 375.264 769.49 373.181 767.092 371.857C771.435 366.375 775.628 360.746 779.328 354.816C779.104 354.674 778.88 354.531 778.651 354.393C774.644 360.332 770.504 366.159 765.859 371.637C765.579 371.973 765.522 372.491 765.971 372.706C769.387 374.38 771.405 377.852 773.545 380.832C775.787 383.963 778.039 387.086 780.273 390.221C782.313 393.085 784.336 395.975 786.056 399.037C787.894 402.302 789.05 405.679 790.266 409.198C791.452 412.618 793.712 415.236 795.217 418.475C796.74 421.749 797.598 425.329 798.586 428.788C799.556 432.169 800.945 434.705 802.226 437.784C802.653 437.698 803.093 437.608 803.55 437.513C802.26 433.791 799.987 429.171 798.935 425.669Z" fill="#FCF2AF"/>
<path d="M804.787 432.238C803.114 429.046 801.134 425.824 800.203 422.318C799.456 419.515 799.849 416.651 797.645 414.46C794.76 411.596 794.281 408.206 792.953 404.514C790.529 397.782 786.863 391.575 783.007 385.576C779.828 380.633 776.723 374.647 771.526 371.516C774.976 366.521 778.599 361.639 782.075 356.658C781.825 356.481 781.571 356.3 781.312 356.123C777.607 361.195 774.053 366.375 770.314 371.417C770.15 371.636 770.137 372.085 770.396 372.249C776.115 375.798 779.518 382.246 783.02 387.793C786.923 393.973 790.529 400.417 792.664 407.443C793.509 410.216 794.108 412.799 796.131 414.973C797.542 416.487 798.124 417.781 798.395 419.855C798.615 421.494 798.891 423.025 799.452 424.591C800.686 428.041 802.635 431.276 804.317 434.524C804.74 435.339 805.15 436.193 805.559 437.055C806.103 436.922 806.663 436.779 807.233 436.628C806.396 435.145 805.542 433.678 804.787 432.238Z" fill="#FCF2AF"/>
<path d="M776.818 320.972C776.818 320.972 782.42 322.02 782.882 323.237C783.348 324.449 778.483 324.966 776.818 320.972Z" fill="#D27771"/>
<path d="M809.2 277.368C809.2 277.368 786.358 287.413 783.348 287.107C783.037 286.257 783.576 282.91 783.037 281.949C782.498 280.983 806.073 270.744 807 271.283C807.927 271.822 810.144 276.954 809.2 277.368Z" fill="#D54180"/>
<path d="M807.336 279.9C806.642 280.456 805.702 281.366 805.978 282.324C806.064 282.626 806.374 282.729 806.651 282.69C807.241 282.604 807.582 281.832 808 281.453C808.458 281.043 808.997 280.754 809.579 280.577C809.924 280.469 810.269 280.103 810.273 279.723C810.286 277.942 807.927 279.43 807.336 279.9Z" fill="#82414A"/>
<path d="M809.174 285.61C809.131 285.192 808.751 284.86 808.324 284.968C807.845 285.089 807.66 285.563 807.66 286.003C807.66 286.568 807.643 287.198 807.94 287.698C808.264 288.241 808.949 287.832 809.122 287.405C809.338 286.861 809.238 286.18 809.174 285.61Z" fill="#353638"/>
<path d="M810.153 295.185C809.549 295.703 809.217 296.751 809.208 297.527C809.204 297.946 809.385 298.416 809.872 298.433C810.355 298.45 810.674 298.01 810.748 297.583C810.799 297.303 810.825 297.018 810.916 296.747C811.028 296.423 811.157 296.113 811.231 295.772C811.364 295.116 810.618 294.784 810.153 295.185Z" fill="#B02E3B"/>
<path d="M806.922 328.334C806.922 328.334 805.132 315.753 803.442 312.959C803.528 312.553 804.675 314.477 805.184 315.132C805.689 315.788 808.928 325.143 806.922 328.334Z" fill="#D54180"/>
<path d="M798.271 287.098C797.576 286.671 796.847 286.288 796.136 285.899C795.778 285.71 795.42 286.361 795.666 286.615C796.054 287.029 796.502 287.344 796.968 287.65C796.813 287.719 796.662 287.788 796.511 287.857C796.149 288.021 796.248 288.681 796.684 288.599C797.132 288.522 797.568 288.448 798.003 288.328C798.189 288.448 798.37 288.573 798.547 288.699C798.831 288.901 798.939 289.061 799.31 288.987C799.444 288.957 799.539 288.811 799.56 288.677C799.651 287.978 798.797 287.426 798.271 287.098Z" fill="#D27771"/>
</g>
<g filter="url(#filter4_d_636_113)">
<path d="M1039.83 374.301C1039.83 374.301 1034.92 394.442 1032.18 399.242C1030.38 400.838 1022.65 407.618 1022.65 407.618L1014.21 398.112C1014.21 398.112 1021.3 393.877 1022.15 391.522C1023 389.172 1022.65 375.996 1022.65 375.996L1039.83 374.301Z" fill="#F9AA80"/>
<mask id="mask28_636_113" style="mask-type:luminance" maskUnits="userSpaceOnUse" x="1038" y="323" width="42" height="27">
<path d="M1038.03 323.317H1079.83V349.816H1038.03V323.317Z" fill="white"/>
</mask>
<g mask="url(#mask28_636_113)">
<path d="M1038.41 349.454L1060.07 339.383V340.323L1071.22 347.659C1071.22 347.659 1079.64 330.067 1079.73 328.747C1079.83 327.432 1074.06 324.046 1071.6 323.856C1069.14 323.666 1046.74 327.932 1045.13 328.342C1043.52 328.747 1038.41 349.454 1038.41 349.454Z" fill="#F9AA80"/>
</g>
<path d="M1016 335.557C1016 335.557 1016 352.119 1019.6 354.379C1023.19 356.639 1019.48 376.716 1019.6 377.531C1019.73 378.346 1042.1 376.341 1042.1 376.341C1043.37 372.89 1042.73 355.949 1042.73 355.949C1042.73 355.949 1047.84 355.259 1048.28 355.759C1048.72 356.264 1049.86 327.078 1049.86 326.707C1049.86 326.332 1039.26 329.222 1039.26 329.222C1039.26 329.222 1040.59 326.897 1037.88 326.332C1035.17 325.771 1021.87 326.647 1016 335.557Z" fill="#D54180"/>
<path d="M1015.85 334.617L1016.04 337.347C1016.04 337.347 1022.56 332.862 1027.42 332.042C1032.27 331.227 1039.26 329.222 1039.26 329.222C1039.26 329.222 1040.75 326.992 1038.89 324.702C1037.03 322.412 1015.85 334.617 1015.85 334.617Z" fill="#B3396C"/>
<path d="M1000.22 296.18C999.899 296.18 980.125 292.773 979.491 292.579C978.852 292.385 979.275 317.02 979.491 317.749C979.702 318.482 986.452 320.281 986.503 321.256C986.559 322.23 983.795 327.975 982.466 328.169C981.138 328.363 973.75 328.557 973.056 327.777C972.366 327 973.056 319.358 973.056 319.358C973.056 319.358 963.899 282.918 966.448 280.283C969.001 277.652 996.496 281.87 996.496 281.87L1000.22 296.18Z" fill="#F9AA80"/>
<path d="M1035.11 281.598C1035.25 281.598 1052.31 280.252 1052.31 280.252C1052.31 280.252 1048.95 260.801 1048.58 260.094C1048.2 259.391 1043.19 259.214 1042.77 258.524C1042.34 257.834 1041.06 250.333 1042.29 250.131C1043.52 249.928 1052.36 250.493 1052.79 251.343C1053.21 252.188 1053.73 258.524 1053.73 258.524C1053.73 258.524 1064.8 286.774 1063.94 288.421C1063.09 290.069 1039.13 294.589 1039.13 294.589L1035.11 281.598Z" fill="#F9AA80"/>
<path d="M1011.33 282.448C1011.33 282.448 1008.4 281.598 1008.02 282.327C1003.34 282.141 993.408 280.162 992.981 280.257C992.606 280.352 992.244 296.784 991.36 298.164C994.008 298.979 1003.65 299.229 1004.35 299.669C1005.04 300.109 1012.98 330.097 1012.35 331.477C1011.72 332.862 1014.74 336.437 1014.74 336.437C1014.74 336.437 1020.36 335.432 1024.77 331.352C1029.18 327.277 1037.44 326.332 1037.88 326.332C1038.32 326.332 1043.55 320.501 1043.74 319.936C1043.93 319.371 1038.38 317.611 1038.82 314.286C1039.26 310.961 1034.35 300.295 1033.97 298.729C1033.59 297.159 1041.91 297.284 1041.91 297.284C1041.91 297.284 1037.94 281.473 1037.75 281.223C1037.56 280.973 1027.1 282.163 1026.28 282.038C1025.46 281.913 1016.7 282.163 1016.7 282.163L1011.33 282.448Z" fill="#56A4C1"/>
<path d="M1011.41 278.933C1011.41 278.933 1011.03 282.948 1010.81 283.008C1010.59 283.073 1013.39 285.428 1018.18 286.398C1022.97 287.373 1022.4 284.768 1020.2 283.543C1020.45 282.258 1021.02 279.372 1021.02 279.372C1021.02 279.372 1027.86 278.493 1029.18 275.512C1030.5 272.532 1030.42 261.797 1028.49 257.532C1026.55 253.271 1024.48 252.55 1024.48 252.55C1024.48 252.55 1015.39 251.856 1008.54 257.881C1001.68 263.906 1007.97 272.424 1007.97 272.424L1011.41 278.933Z" fill="#F9AA80"/>
<path d="M1009.53 266.447C1009.53 266.447 1012.1 267.357 1012.32 267.197C1012.54 267.042 1011.5 265.286 1011.5 265.286C1011.5 265.286 1012.73 265.411 1012.86 264.877C1012.98 264.346 1011.2 261.676 1011.2 261.676C1011.2 261.676 1013.08 262.306 1014.15 261.521C1015.22 260.736 1014.49 256.846 1014.49 256.846C1014.49 256.846 1017.96 255.906 1019.76 254.556C1021.55 253.206 1024.48 252.55 1024.48 252.55C1024.48 252.55 1022.25 248.315 1014.43 250.76C1006.61 253.206 1003.02 258.226 1003.56 263.091C1004.1 267.952 1011 278.773 1011.41 278.933C1012.26 278.868 1012.92 272.907 1012.48 270.807C1011.82 271.307 1007.34 271.907 1006.8 269.082C1006.27 266.257 1009.53 266.447 1009.53 266.447Z" fill="#353638"/>
<path d="M1023.98 257.381C1022.34 256.863 1019.96 257.721 1018.5 258.476C1017.91 258.774 1018.06 260.081 1018.81 259.783C1019.61 259.459 1020.41 259.162 1021.26 258.972C1022.11 258.787 1023.01 258.856 1023.83 258.601C1024.31 258.455 1024.58 257.566 1023.98 257.381Z" fill="#353638"/>
<path d="M1028.55 256.428C1028.35 256.32 1028.19 256.272 1027.97 256.29C1027.83 256.303 1027.7 256.328 1027.57 256.38C1027.23 256.505 1026.98 256.695 1026.79 257.001C1026.51 257.458 1026.83 258.062 1027.39 257.829C1027.32 257.855 1027.52 257.799 1027.54 257.791C1027.61 257.765 1027.68 257.739 1027.75 257.717C1027.78 257.713 1027.8 257.709 1027.82 257.704C1027.82 257.709 1027.83 257.709 1027.89 257.704C1028.01 257.709 1028.13 257.7 1028.24 257.665C1028.5 257.583 1028.68 257.376 1028.74 257.113C1028.8 256.902 1028.77 256.548 1028.55 256.428Z" fill="#353638"/>
<path d="M1028.74 265.334C1028.42 264.484 1027.67 263.669 1027.17 262.91C1026.48 261.853 1025.79 260.805 1025.04 259.783C1024.8 259.443 1024.38 259.93 1024.57 260.232C1025.23 261.314 1025.93 262.375 1026.61 263.445C1026.89 263.885 1027.25 264.359 1027.48 264.825C1027.99 265.89 1027.72 266.313 1026.76 266.852C1026.11 267.21 1026.43 268.431 1027.19 268.021C1028.17 267.499 1029.19 266.542 1028.74 265.334Z" fill="#D27771"/>
<path d="M1021.43 264.26C1021.33 263.708 1021.06 263.173 1020.83 262.664C1020.52 262.009 1019.64 262.461 1019.75 263.1C1019.86 263.686 1020.01 264.372 1020.37 264.859C1020.77 265.39 1021.53 264.816 1021.43 264.26Z" fill="#353638"/>
<path d="M1027.56 269.897C1027.39 269.811 1023.24 270.79 1021.81 272.015C1021.65 272.312 1023.71 274.43 1025.9 273.675C1028.09 272.925 1027.99 270.117 1027.56 269.897Z" fill="white"/>
<path d="M1029.68 262.647C1029.58 262.095 1029.32 261.556 1029.09 261.051C1028.78 260.391 1027.89 260.853 1028.01 261.487C1028.11 262.073 1028.27 262.759 1028.63 263.246C1029.03 263.777 1029.79 263.199 1029.68 262.647Z" fill="#353638"/>
<path d="M1011.72 268.892C1010.91 268.129 1009.31 267.831 1008.23 267.995C1007.9 268.047 1007.93 268.603 1008.23 268.612C1008.23 268.612 1008.23 268.612 1008.23 268.616C1008.74 268.62 1009.22 268.668 1009.7 268.784C1009.52 269.013 1009.37 269.263 1009.25 269.53C1009.11 269.828 1009.53 270.087 1009.71 269.781C1009.84 269.552 1009.99 269.336 1010.16 269.138C1010.22 269.082 1010.27 269.026 1010.33 268.974C1010.73 269.121 1011.13 269.298 1011.57 269.31C1011.78 269.319 1011.86 269.022 1011.72 268.892Z" fill="#D27771"/>
<path d="M1042.74 355.949C1042.74 355.949 1023.1 355.431 1022.67 355.522C1022.25 355.621 1028.35 357.359 1031.37 357.782C1034.4 358.205 1026.6 360.184 1026.22 360.417C1025.84 360.654 1042.86 360.982 1042.86 360.982L1042.74 355.949Z" fill="#B3396C"/>
<path d="M1060.07 340.323C1060.07 340.323 1063.71 334.82 1067.11 332.982C1061.58 331.244 1059.45 338.205 1060.07 340.323Z" fill="#D27771"/>
<path d="M1042.21 256.203C1043.71 255.876 1045.18 255.375 1046.75 255.319C1047.05 255.311 1047.77 255.198 1048 255.388C1048.94 256.173 1047.44 256.915 1047.02 257.165C1046.29 257.601 1045.54 257.967 1044.89 258.519C1044.75 258.636 1044.81 258.955 1045.03 258.895C1045.77 258.692 1048.43 257.519 1048.98 256.277C1050.19 256.54 1051.74 256.932 1052.28 255.686C1052.69 254.733 1052.82 253.516 1053.04 252.511C1053.05 252.49 1053.05 252.464 1053.06 252.442C1052.97 251.916 1052.88 251.515 1052.79 251.347C1052.77 251.304 1052.72 251.261 1052.67 251.222C1052.56 251.752 1052.46 252.279 1052.35 252.796C1052.14 253.801 1052.13 254.771 1051.31 255.436C1050.75 255.893 1050.18 255.897 1049.55 255.858C1049.75 254.629 1049.9 253.409 1050.27 252.205C1050.43 251.692 1050.64 251.205 1050.86 250.722C1050.62 250.678 1050.38 250.64 1050.12 250.605C1049.38 252.235 1049.03 254.181 1049.13 255.837C1049.11 255.837 1049.09 255.832 1049.08 255.832C1049.08 255.561 1048.95 255.293 1048.66 255.035C1048.3 254.72 1047.79 254.646 1047.26 254.659C1047.23 253.327 1047.32 252.089 1047.7 250.799C1047.75 250.644 1047.8 250.497 1047.85 250.346C1047.62 250.325 1047.39 250.308 1047.16 250.286C1046.7 251.735 1046.5 253.288 1046.77 254.689C1046.49 254.715 1046.22 254.754 1045.99 254.784C1045.48 254.845 1044.96 254.914 1044.44 255.009C1044.53 253.327 1044.82 251.77 1045.19 250.157C1044.93 250.139 1044.69 250.131 1044.46 250.122C1043.87 251.696 1043.7 253.486 1043.91 255.112C1043.3 255.246 1042.69 255.423 1042.11 255.656C1042.14 255.841 1042.18 256.022 1042.21 256.203Z" fill="#D27771"/>
<path d="M1014.21 398.112C1014.21 398.112 1006.93 403.758 1003.91 407.618C1000.88 411.474 991.17 426.22 990.73 426.66C990.29 427.1 992.309 431.805 992.494 431.805C992.684 431.805 1022.65 407.618 1022.65 407.618C1022.65 407.618 1017.52 399.553 1014.21 398.112Z" fill="#56A4C1"/>
<path d="M1060.07 340.323C1060.07 340.323 1055.47 349.988 1053.7 366.99C1053.7 367.43 1056.89 371.005 1056.89 371.005C1056.89 371.005 1071.16 348.41 1071.22 347.659C1071.29 346.913 1060.07 340.323 1060.07 340.323Z" fill="#56A4C1"/>
<path d="M1056.89 371.005C1056.89 371.005 1060.63 371.415 1060.38 372.166C1060.13 372.92 1058.11 372.951 1058.11 372.951C1058.11 372.951 1058.11 393.027 1057.55 392.592C1056.98 392.152 1047.65 370.001 1047.4 369.5C1047.14 369 1053.7 366.99 1053.7 366.99L1056.89 371.005Z" fill="#B3396C"/>
<path d="M992.559 431.378C992.559 431.378 997.286 434.816 996.626 435.238C995.962 435.661 992.559 434.531 992.559 434.531C992.559 434.531 989.578 452.84 989.156 452.365C988.729 451.895 982.16 428.98 982.393 428.7C982.63 428.415 990.73 426.66 990.73 426.66L992.559 431.378Z" fill="#B3396C"/>
</g>
<defs>
<filter id="filter0_d_636_113" x="627.253" y="163.585" width="147.898" height="223.819" filterUnits="userSpaceOnUse" color-interpolation-filters="sRGB">
<feFlood flood-opacity="0" result="BackgroundImageFix"/>
<feColorMatrix in="SourceAlpha" type="matrix" values="0 0 0 0 0 0 0 0 0 0 0 0 0 0 0 0 0 0 127 0" result="hardAlpha"/>
<feOffset/>
<feGaussianBlur stdDeviation="5"/>
<feComposite in2="hardAlpha" operator="out"/>
<feColorMatrix type="matrix" values="0 0 0 0 0 0 0 0 0 0 0 0 0 0 0 0 0 0 0.3 0"/>
<feBlend mode="normal" in2="BackgroundImageFix" result="effect1_dropShadow_636_113"/>
<feBlend mode="normal" in="SourceGraphic" in2="effect1_dropShadow_636_113" result="shape"/>
</filter>
<filter id="filter1_d_636_113" x="0.504578" y="206" width="238.716" height="222.657" filterUnits="userSpaceOnUse" color-interpolation-filters="sRGB">
<feFlood flood-opacity="0" result="BackgroundImageFix"/>
<feColorMatrix in="SourceAlpha" type="matrix" values="0 0 0 0 0 0 0 0 0 0 0 0 0 0 0 0 0 0 127 0" result="hardAlpha"/>
<feOffset/>
<feGaussianBlur stdDeviation="5"/>
<feComposite in2="hardAlpha" operator="out"/>
<feColorMatrix type="matrix" values="0 0 0 0 0 0 0 0 0 0 0 0 0 0 0 0 0 0 0.3 0"/>
<feBlend mode="normal" in2="BackgroundImageFix" result="effect1_dropShadow_636_113"/>
<feBlend mode="normal" in="SourceGraphic" in2="effect1_dropShadow_636_113" result="shape"/>
</filter>
<filter id="filter2_d_636_113" x="314" y="246" width="218.364" height="222.849" filterUnits="userSpaceOnUse" color-interpolation-filters="sRGB">
<feFlood flood-opacity="0" result="BackgroundImageFix"/>
<feColorMatrix in="SourceAlpha" type="matrix" values="0 0 0 0 0 0 0 0 0 0 0 0 0 0 0 0 0 0 127 0" result="hardAlpha"/>
<feOffset/>
<feGaussianBlur stdDeviation="5"/>
<feComposite in2="hardAlpha" operator="out"/>
<feColorMatrix type="matrix" values="0 0 0 0 0 0 0 0 0 0 0 0 0 0 0 0 0 0 0.3 0"/>
<feBlend mode="normal" in2="BackgroundImageFix" result="effect1_dropShadow_636_113"/>
<feBlend mode="normal" in="SourceGraphic" in2="effect1_dropShadow_636_113" result="shape"/>
</filter>
<filter id="filter3_d_636_113" x="683.317" y="256" width="189.331" height="222.931" filterUnits="userSpaceOnUse" color-interpolation-filters="sRGB">
<feFlood flood-opacity="0" result="BackgroundImageFix"/>
<feColorMatrix in="SourceAlpha" type="matrix" values="0 0 0 0 0 0 0 0 0 0 0 0 0 0 0 0 0 0 127 0" result="hardAlpha"/>
<feOffset/>
<feGaussianBlur stdDeviation="5"/>
<feComposite in2="hardAlpha" operator="out"/>
<feColorMatrix type="matrix" values="0 0 0 0 0 0 0 0 0 0 0 0 0 0 0 0 0 0 0.3 0"/>
<feBlend mode="normal" in2="BackgroundImageFix" result="effect1_dropShadow_636_113"/>
<feBlend mode="normal" in="SourceGraphic" in2="effect1_dropShadow_636_113" result="shape"/>
</filter>
<filter id="filter4_d_636_113" x="956" y="240" width="133.733" height="222.374" filterUnits="userSpaceOnUse" color-interpolation-filters="sRGB">
<feFlood flood-opacity="0" result="BackgroundImageFix"/>
<feColorMatrix in="SourceAlpha" type="matrix" values="0 0 0 0 0 0 0 0 0 0 0 0 0 0 0 0 0 0 127 0" result="hardAlpha"/>
<feOffset/>
<feGaussianBlur stdDeviation="5"/>
<feComposite in2="hardAlpha" operator="out"/>
<feColorMatrix type="matrix" values="0 0 0 0 0 0 0 0 0 0 0 0 0 0 0 0 0 0 0.3 0"/>
<feBlend mode="normal" in2="BackgroundImageFix" result="effect1_dropShadow_636_113"/>
<feBlend mode="normal" in="SourceGraphic" in2="effect1_dropShadow_636_113" result="shape"/>
</filter>
</defs>
</svg>
